<svg width="1280" height="1098" xmlns="http://www.w3.org/2000/svg" xmlns:xlink="http://www.w3.org/1999/xlink"><defs><path id="a" d="M.183.076h270.383v302.44H.183z"/><path id="c" d="M.183.076h270.383v302.44H.183z"/><path id="e" d="M.183.076h270.383v302.44H.183z"/><path id="g" d="M.183.076h270.383v302.44H.183z"/><path id="i" d="M0 .171h29.739V46.69H0z"/><path id="k" d="M0 58h389V1H0z"/></defs><g fill="none" fill-rule="evenodd"><path d="M-56.097 997.615c-25.108 0-40.092-18.723-40.092-78.148s14.984-78.147 40.092-78.147c8.039 0 15.038 1.924 20.842 6.484h-14.751v110.54h31.032c-5.47 29.107-18.329 39.27-37.123 39.27m0-229.557c-90.713 0-134.855 55.354-134.855 151.41 0 96.057 44.142 151.411 134.855 151.411 90.712 0 134.854-55.354 134.854-151.41 0-96.057-44.547-151.411-134.854-151.411" fill="#4FAE47"/><g transform="translate(-119.866 723)"><mask id="b" fill="#fff"><use xlink:href="#a"/></mask><path d="M175.567 151.297c0-59.35-15.021-78.05-40.192-78.05-25.17 0-40.192 18.7-40.192 78.05 0 59.35 15.021 78.049 40.192 78.049 25.577 0 40.192-18.7 40.192-78.05m-175.384 0C.183 55.362 44.436.077 135.375.077c90.534 0 135.192 55.285 135.192 151.22 0 95.936-44.252 151.22-135.192 151.22S.183 247.233.183 151.297" fill="#FAE91F" mask="url(#b)"/></g><path d="M120.6 831.59c0-59.426-14.984-78.148-40.092-78.148-25.108 0-40.091 18.722-40.091 78.147 0 59.425 14.983 78.148 40.091 78.148 25.513 0 40.092-18.723 40.092-78.148m-174.946 0c0-96.056 44.142-151.41 134.854-151.41 90.308 0 134.855 55.354 134.855 151.41S171.22 983 80.508 983c-90.712 0-134.854-55.355-134.854-151.41" fill="#F49C00"/><path d="M193.777 787.58c0-59.424-14.984-78.147-40.092-78.147-25.108 0-40.092 18.723-40.092 78.147 0 59.425 14.984 78.148 40.092 78.148 25.513 0 40.092-18.723 40.092-78.148m-174.946 0c0-96.056 44.141-151.41 134.854-151.41 90.308 0 134.855 55.354 134.855 151.41 0 96.057-44.142 151.411-134.855 151.411S18.831 883.637 18.831 787.581" fill="#D94F46"/><path d="M-33.438 841.34c0-27.693 23.578-50.092 51.63-50.092 28.051 0 50.817 22.399 50.817 50.092 0 28.507-22.766 50.5-50.817 50.5-28.052 0-51.63-21.993-51.63-50.5M264.863 741.476c0-59.425-14.984-78.147-40.092-78.147-25.108 0-40.092 18.722-40.092 78.147 0 59.425 14.984 78.148 40.092 78.148 25.513 0 40.092-18.723 40.092-78.148m-174.946 0c0-96.056 44.141-151.41 134.854-151.41 90.308 0 134.855 55.354 134.855 151.41S315.484 892.887 224.77 892.887 89.917 837.532 89.917 741.477" fill="#446A91"/><path d="M-114.174 753.466l41.392-15.424c43.014-15.83 79.536-42.213 79.536-94.572 0-54.39-39.363-97.413-122.55-97.413-80.348 0-125.798 40.182-129.855 112.836h85.623c1.623-24.759 12.174-35.718 36.521-35.718 23.13 0 36.522 9.336 36.522 28.007 0 15.83-8.928 24.353-37.74 35.312l-30.028 11.365c-61.681 23.135-90.087 52.36-90.087 112.431v31.253H8.377v-74.277H-140.55c6.493-6.089 16.232-10.148 26.376-13.8M89.278 746.191c-28.051 0-51.63 22.4-51.63 50.092 0 28.508 23.579 50.5 51.63 50.5 28.051 0 50.817-21.992 50.817-50.5 0-27.693-22.766-50.092-50.817-50.092M296.903 775.615c-25.108 0-40.092-18.723-40.092-78.148s14.984-78.147 40.092-78.147c8.039 0 15.038 1.924 20.842 6.484h-14.751v110.54h31.032c-5.47 29.107-18.329 39.27-37.123 39.27m0-229.557c-90.713 0-134.855 55.354-134.855 151.41 0 96.057 44.142 151.411 134.855 151.411 90.712 0 134.854-55.354 134.854-151.41 0-96.057-44.547-151.411-134.854-151.411" fill="#4FAE47"/><path d="M79.463 722.21v74.277h-253.217v-31.254c0-60.071 28.406-89.295 90.087-112.43l30.03-11.365c28.81-10.96 37.738-19.483 37.738-35.313 0-18.67-13.391-28.006-36.522-28.006-24.347 0-34.898 10.959-36.521 35.718h-85.623C-170.507 541.183-125.058 501-44.71 501c83.188 0 122.55 43.024 122.55 97.414 0 52.36-36.522 78.741-79.536 94.571l-41.391 15.424c-10.145 3.653-19.884 7.712-26.377 13.8H79.463zM109.779 751.227c0-27.693 23.579-50.092 51.63-50.092 28.051 0 50.818 22.399 50.818 50.092 0 28.507-22.767 50.5-50.818 50.5s-51.63-21.993-51.63-50.5" fill="#FAE91F"/><g transform="translate(233.134 501)"><mask id="d" fill="#fff"><use xlink:href="#c"/></mask><path d="M175.567 151.297c0-59.35-15.021-78.05-40.192-78.05-25.17 0-40.192 18.7-40.192 78.05 0 59.35 15.021 78.049 40.192 78.049 25.577 0 40.192-18.7 40.192-78.05m-175.384 0C.183 55.362 44.436.077 135.375.077c90.534 0 135.192 55.285 135.192 151.22 0 95.936-44.252 151.22-135.192 151.22S.183 247.233.183 151.297" fill="#FAE91F" mask="url(#d)"/></g><g><path d="M159.028 684.388v74.277H-94.188v-31.254c0-60.07 28.405-89.295 90.087-112.43l30.028-11.365c28.812-10.96 37.74-19.483 37.74-35.312 0-18.671-13.392-28.007-36.523-28.007-24.347 0-34.898 10.959-36.52 35.718H-95c4.058-72.654 49.507-112.837 129.855-112.837 83.188 0 122.55 43.025 122.55 97.414 0 52.36-36.522 78.742-79.536 94.571l-41.391 15.424c-10.145 3.653-19.884 7.712-26.377 13.8h148.927zM188.299 714.453c0-27.693 23.579-50.092 51.63-50.092 28.051 0 50.817 22.399 50.817 50.092 0 28.507-22.766 50.5-50.817 50.5-28.051 0-51.63-21.993-51.63-50.5M486.6 614.59c0-59.426-14.984-78.148-40.092-78.148-25.108 0-40.091 18.722-40.091 78.147 0 59.425 14.983 78.148 40.091 78.148 25.513 0 40.092-18.723 40.092-78.148m-174.946 0c0-96.056 44.142-151.41 134.854-151.41 90.308 0 134.855 55.354 134.855 151.41S537.22 766 446.508 766c-90.712 0-134.854-55.355-134.854-151.41" fill="#F49C00"/><path d="M231.16 640.379v74.278H-22.058v-31.254c0-60.071 28.406-89.295 90.087-112.431l30.029-11.365c28.811-10.96 37.739-19.483 37.739-35.312 0-18.671-13.392-28.006-36.522-28.006-24.348 0-34.898 10.958-36.521 35.718H-22.87C-18.81 459.353 26.64 419.17 106.986 419.17c83.188 0 122.55 43.024 122.55 97.413 0 52.36-36.521 78.742-79.535 94.572l-41.392 15.424c-10.145 3.653-19.884 7.712-26.376 13.8h148.926zM259.385 669.396c0-27.693 23.579-50.092 51.63-50.092 28.051 0 50.817 22.4 50.817 50.092 0 28.508-22.766 50.5-50.817 50.5-28.051 0-51.63-21.992-51.63-50.5M559.777 570.58c0-59.424-14.984-78.147-40.092-78.147-25.108 0-40.092 18.723-40.092 78.147 0 59.425 14.984 78.148 40.092 78.148 25.513 0 40.092-18.723 40.092-78.148m-174.946 0c0-96.056 44.141-151.41 134.854-151.41 90.308 0 134.855 55.354 134.855 151.41 0 96.057-44.142 151.411-134.855 151.411s-134.854-55.354-134.854-151.41" fill="#D94F46"/><path d="M303.29 595.322V669.6H50.075v-31.254c0-60.07 28.406-89.295 90.087-112.43l30.029-11.365c28.811-10.96 37.739-19.483 37.739-35.313 0-18.67-13.391-28.006-36.522-28.006-24.348 0-34.898 10.959-36.521 35.718H49.263c4.058-72.654 49.507-112.837 129.855-112.837 83.188 0 122.55 43.024 122.55 97.414 0 52.36-36.522 78.742-79.536 94.571l-41.391 15.424c-10.145 3.653-19.885 7.712-26.377 13.8H303.29zM332.562 624.34c0-27.693 23.578-50.092 51.63-50.092 28.051 0 50.817 22.399 50.817 50.092 0 28.507-22.766 50.5-50.817 50.5-28.052 0-51.63-21.993-51.63-50.5M630.863 524.476c0-59.425-14.984-78.147-40.092-78.147-25.108 0-40.092 18.722-40.092 78.147 0 59.425 14.984 78.148 40.092 78.148 25.513 0 40.092-18.723 40.092-78.148m-174.946 0c0-96.056 44.141-151.41 134.854-151.41 90.308 0 134.855 55.354 134.855 151.41S681.484 675.887 590.77 675.887s-134.854-55.355-134.854-151.41" fill="#446A91"/><path d="M251.826 536.466l41.392-15.424c43.014-15.83 79.536-42.213 79.536-94.572 0-54.39-39.363-97.413-122.55-97.413-80.348 0-125.798 40.182-129.855 112.836h85.623c1.623-24.759 12.174-35.718 36.521-35.718 23.13 0 36.522 9.336 36.522 28.007 0 15.83-8.928 24.353-37.74 35.312l-30.028 11.365c-61.681 23.135-90.087 52.36-90.087 112.431v31.253h253.217v-74.277H225.45c6.493-6.089 16.232-10.148 26.376-13.8M455.278 529.191c-28.051 0-51.63 22.4-51.63 50.092 0 28.508 23.579 50.5 51.63 50.5 28.051 0 50.817-21.992 50.817-50.5 0-27.693-22.766-50.092-50.817-50.092M662.903 558.615c-25.108 0-40.092-18.723-40.092-78.148s14.984-78.147 40.092-78.147c8.039 0 15.038 1.924 20.842 6.484h-14.751v110.54h31.032c-5.47 29.107-18.329 39.27-37.123 39.27m0-229.557c-90.713 0-134.855 55.354-134.855 151.41 0 96.057 44.142 151.411 134.855 151.411 90.712 0 134.854-55.354 134.854-151.41 0-96.057-44.547-151.411-134.854-151.411" fill="#4FAE47"/><path d="M445.463 505.21v74.277H192.246v-31.254c0-60.071 28.406-89.295 90.087-112.43l30.03-11.365c28.81-10.96 37.738-19.483 37.738-35.313 0-18.67-13.391-28.006-36.522-28.006-24.347 0-34.898 10.959-36.521 35.718h-85.623C195.493 324.183 240.942 284 321.29 284c83.188 0 122.55 43.024 122.55 97.414 0 52.36-36.522 78.741-79.536 94.571l-41.391 15.424c-10.145 3.653-19.884 7.712-26.377 13.8h148.927zM475.779 534.227c0-27.693 23.579-50.092 51.63-50.092 28.051 0 50.818 22.399 50.818 50.092 0 28.507-22.767 50.5-50.818 50.5s-51.63-21.993-51.63-50.5" fill="#FAE91F"/><g transform="translate(599.134 284)"><mask id="f" fill="#fff"><use xlink:href="#e"/></mask><path d="M175.567 151.297c0-59.35-15.021-78.05-40.192-78.05-25.17 0-40.192 18.7-40.192 78.05 0 59.35 15.021 78.049 40.192 78.049 25.577 0 40.192-18.7 40.192-78.05m-175.384 0C.183 55.362 44.436.077 135.375.077c90.534 0 135.192 55.285 135.192 151.22 0 95.936-44.252 151.22-135.192 151.22S.183 247.233.183 151.297" fill="#FAE91F" mask="url(#f)"/></g><g><path d="M512.028 462.388v74.277H258.812v-31.254c0-60.07 28.405-89.295 90.087-112.43l30.028-11.365c28.812-10.96 37.74-19.483 37.74-35.312 0-18.671-13.392-28.007-36.523-28.007-24.347 0-34.898 10.959-36.52 35.718H258c4.058-72.654 49.507-112.837 129.855-112.837 83.188 0 122.55 43.025 122.55 97.414 0 52.36-36.522 78.742-79.536 94.571l-41.391 15.424c-10.145 3.653-19.884 7.712-26.377 13.8h148.927zM541.299 492.453c0-27.693 23.579-50.092 51.63-50.092 28.051 0 50.817 22.399 50.817 50.092 0 28.507-22.766 50.5-50.817 50.5-28.051 0-51.63-21.993-51.63-50.5M839.6 392.59c0-59.426-14.984-78.148-40.092-78.148-25.108 0-40.091 18.722-40.091 78.147 0 59.425 14.983 78.148 40.091 78.148 25.513 0 40.092-18.723 40.092-78.148m-174.946 0c0-96.056 44.142-151.41 134.854-151.41 90.308 0 134.855 55.354 134.855 151.41S890.22 544 799.508 544c-90.712 0-134.854-55.355-134.854-151.41" fill="#F49C00"/><path d="M584.16 418.379v74.278H330.942v-31.254c0-60.071 28.406-89.295 90.087-112.431l30.029-11.365c28.811-10.96 37.739-19.483 37.739-35.312 0-18.671-13.392-28.006-36.522-28.006-24.348 0-34.898 10.958-36.521 35.718H330.13c4.058-72.654 49.508-112.837 129.855-112.837 83.188 0 122.55 43.024 122.55 97.413 0 52.36-36.521 78.742-79.535 94.572l-41.392 15.424c-10.145 3.653-19.884 7.712-26.376 13.8h148.926zM612.385 447.396c0-27.693 23.579-50.092 51.63-50.092 28.051 0 50.817 22.4 50.817 50.092 0 28.508-22.766 50.5-50.817 50.5-28.051 0-51.63-21.992-51.63-50.5M912.777 348.58c0-59.424-14.984-78.147-40.092-78.147-25.108 0-40.092 18.723-40.092 78.147 0 59.425 14.984 78.148 40.092 78.148 25.513 0 40.092-18.723 40.092-78.148m-174.946 0c0-96.056 44.141-151.41 134.854-151.41 90.308 0 134.855 55.354 134.855 151.41 0 96.057-44.142 151.411-134.855 151.411s-134.854-55.354-134.854-151.41" fill="#D94F46"/><path d="M656.29 373.322V447.6H403.075v-31.254c0-60.07 28.406-89.295 90.087-112.43l30.029-11.365c28.811-10.96 37.739-19.483 37.739-35.313 0-18.67-13.391-28.006-36.522-28.006-24.348 0-34.898 10.959-36.521 35.718h-85.623c4.058-72.654 49.507-112.837 129.855-112.837 83.188 0 122.55 43.024 122.55 97.414 0 52.36-36.522 78.742-79.536 94.571l-41.391 15.424c-10.145 3.653-19.885 7.712-26.377 13.8H656.29zM685.562 402.34c0-27.693 23.578-50.092 51.63-50.092 28.051 0 50.817 22.399 50.817 50.092 0 28.507-22.766 50.5-50.817 50.5-28.052 0-51.63-21.993-51.63-50.5M983.863 302.476c0-59.425-14.984-78.147-40.092-78.147-25.108 0-40.092 18.722-40.092 78.147 0 59.425 14.984 78.148 40.092 78.148 25.513 0 40.092-18.723 40.092-78.148m-174.946 0c0-96.056 44.141-151.41 134.854-151.41 90.308 0 134.855 55.354 134.855 151.41s-44.142 151.411-134.855 151.411-134.854-55.355-134.854-151.41" fill="#446A91"/><path d="M604.826 314.466l41.392-15.424c43.014-15.83 79.536-42.213 79.536-94.572 0-54.39-39.363-97.413-122.55-97.413-80.348 0-125.798 40.182-129.855 112.836h85.623c1.623-24.759 12.174-35.718 36.521-35.718 23.13 0 36.522 9.336 36.522 28.007 0 15.83-8.928 24.353-37.74 35.312l-30.028 11.365c-61.681 23.135-90.087 52.36-90.087 112.431v31.253h253.217v-74.277H578.45c6.493-6.089 16.232-10.148 26.376-13.8M808.278 307.191c-28.051 0-51.63 22.4-51.63 50.092 0 28.508 23.579 50.5 51.63 50.5 28.051 0 50.817-21.992 50.817-50.5 0-27.693-22.766-50.092-50.817-50.092M1015.903 336.615c-25.108 0-40.092-18.723-40.092-78.148s14.984-78.147 40.092-78.147c8.039 0 15.038 1.924 20.842 6.484h-14.751v110.54h31.032c-5.47 29.107-18.329 39.27-37.123 39.27m0-229.557c-90.713 0-134.855 55.354-134.855 151.41 0 96.057 44.142 151.411 134.855 151.411 90.712 0 134.854-55.354 134.854-151.41 0-96.057-44.547-151.411-134.854-151.411" fill="#4FAE47"/><path d="M798.463 283.21v74.277H545.246v-31.254c0-60.071 28.406-89.295 90.087-112.43l30.03-11.365c28.81-10.96 37.738-19.483 37.738-35.313 0-18.67-13.391-28.006-36.522-28.006-24.347 0-34.898 10.959-36.521 35.718h-85.623C548.493 102.183 593.942 62 674.29 62c83.188 0 122.55 43.024 122.55 97.414 0 52.36-36.522 78.741-79.536 94.571l-41.391 15.424c-10.145 3.653-19.884 7.712-26.377 13.8h148.927zM828.779 312.227c0-27.693 23.579-50.092 51.63-50.092 28.051 0 50.818 22.399 50.818 50.092 0 28.507-22.767 50.5-50.818 50.5s-51.63-21.993-51.63-50.5" fill="#FAE91F"/><g transform="translate(952.134 62)"><mask id="h" fill="#fff"><use xlink:href="#g"/></mask><path d="M175.567 151.297c0-59.35-15.021-78.05-40.192-78.05-25.17 0-40.192 18.7-40.192 78.05 0 59.35 15.021 78.049 40.192 78.049 25.577 0 40.192-18.7 40.192-78.05m-175.384 0C.183 55.362 44.436.077 135.375.077c90.534 0 135.192 55.285 135.192 151.22 0 95.936-44.252 151.22-135.192 151.22S.183 247.233.183 151.297" fill="#FAE91F" mask="url(#h)"/></g></g></g><g transform="translate(61 56)"><mask id="j" fill="#fff"><use xlink:href="#i"/></mask><path d="M21.823 41.425c-1.175 3.65-4.946 5.265-9.21 5.265C4.513 46.69 0 40.566 0 29.74c0-10.763 4.513-16.826 12.613-16.826 4.264 0 8.099 1.492 9.21 5.203L21.825.171h7.914v45.776h-7.914l-.002-4.522zm.002-6.55v-10.27c0-3.155-2.907-5.196-6.677-5.196-4.081 0-6.865 3.033-6.865 7.61v5.567c0 4.577 2.784 7.547 6.865 7.547 3.77 0 6.677-1.917 6.677-5.259z" fill="#FEFEFE" mask="url(#j)"/><path d="M57.018 41.7c-1.187 3.674-4.99 5.3-9.295 5.3C39.553 47 35 40.835 35 29.938 35 19.103 39.552 13 47.723 13c4.305 0 8.172 1.502 9.295 5.237l-.002-4.49H65v32.506h-7.984l.002-4.552zm-.002-6.594V24.769c0-3.176-2.93-5.231-6.736-5.231-4.116 0-6.923 3.053-6.923 7.66v5.604c0 4.608 2.807 7.598 6.923 7.598 3.806 0 6.736-1.93 6.736-5.294zM69 41.022l4.886-4.733c2.38 2.739 5.263 4.42 8.958 4.42 3.822 0 5.451-1.43 5.451-3.736 0-1.868-1.128-3.05-4.01-3.425l-3.258-.436c-7.015-.871-10.9-3.922-10.9-9.838 0-6.29 4.95-10.274 12.403-10.274 6.39 0 9.648 1.868 12.78 5.105l-4.697 4.67c-1.88-1.991-4.636-3.487-7.832-3.487-3.443 0-4.948 1.37-4.948 3.363 0 2.18 1.189 3.176 4.26 3.674l3.319.436C92.555 27.758 96 30.933 96 36.35 96 42.64 90.675 47 82.53 47c-6.2 0-10.272-2.242-13.53-5.978M234.018 41.7c-1.187 3.674-4.99 5.3-9.294 5.3C216.553 47 212 40.836 212 29.938 212 19.104 216.553 13 224.724 13c4.304 0 8.171 1.502 9.294 5.239l-.002-4.492H242v32.506h-7.984l.002-4.552zm-.002-6.593V24.77c0-3.178-2.93-5.231-6.735-5.231-4.117 0-6.924 3.051-6.924 7.659v5.604c0 4.609 2.807 7.599 6.924 7.599 3.805 0 6.735-1.932 6.735-5.294zM355.018 41.7c-1.187 3.674-4.99 5.3-9.295 5.3C337.553 47 333 40.836 333 29.938 333 19.104 337.553 13 345.723 13c4.305 0 8.172 1.502 9.295 5.239l-.002-4.492H363v32.506h-7.984l.002-4.552zm-.002-6.593V24.77c0-3.178-2.93-5.231-6.735-5.231-4.117 0-6.924 3.051-6.924 7.659v5.604c0 4.609 2.807 7.599 6.924 7.599 3.805 0 6.735-1.932 6.735-5.294zM298.429 40.616V14.001h-4.907V14l-7.68.001v6.386h4.727v20.23H284V47h21v-6.384zM321.011 46c-5.4 0-8.286-2.933-8.286-8.128v-17.6H308V14.1l5.525-.001V6.209L320.58 2v12.1H328v6.171h-7.42v19.495h6.93V46h-6.499zM250 1h7.984l-.001 17.747c1.184-3.671 4.927-5.146 9.23-5.146 8.233 0 12.787 5.994 12.787 16.638C280 40.943 275.446 47 267.214 47c-4.304 0-7.985-1.6-9.231-5.207v4.472H250V1zm21.643 32.052v-5.505c0-4.526-2.87-7.524-6.986-7.524-3.804 0-6.673 2.02-6.673 5.137v10.155c0 3.303 2.869 5.2 6.673 5.2 4.116 0 6.986-2.937 6.986-7.463zM382.01 46c-5.399 0-8.285-2.933-8.285-8.128v-17.6H369V14.1l5.525-.001V6.209L381.58 2v12.1H389v6.171h-7.42v19.495h6.929V46h-6.498zM289 5a5 5 0 1 0 10.001-.001A5 5 0 0 0 289 5M179 1h8.036v18.095c1.319-3.48 4.395-5.29 9.48-5.29 6.717 0 10.484 4.6 10.484 12.68V47h-8.037V27.295c0-4.6-1.568-6.963-5.399-6.963-3.326 0-6.528 1.741-6.528 5.22V47H179V1z" fill="#FEFEFE"/><mask id="l" fill="#fff"><use xlink:href="#k"/></mask><path fill="#FEFEFE" mask="url(#l)" d="M97 58h75v-7H97z"/></g></g></svg>
