<svg height="30" viewBox="0 0 160 30" width="160" xmlns="http://www.w3.org/2000/svg"><g fill-rule="evenodd" transform="translate(.949646 4.332036)"><path d="m9.04255294 16.3743526h-.17456665c-.69826664 1.5711-1.88531992 2.5835866-3.87537984 2.5835866-2.9676332 0-4.95769312-2.1995399-4.95769312-6.7731864 0-4.57364646 1.99005992-6.77318637 4.95769312-6.77318637 1.99005992 0 3.1771132 1.04739996 3.87537984 2.58358656h.17456665v-7.92532633h3.21202656v18.60880584h-3.21202656zm0-2.1646265v-4.0848599c0-1.46635991-1.22196661-2.19953987-2.68832655-2.19953987-1.85040658 0-2.93271987 1.22196661-2.93271987 3.17711317v2.0598866c0 1.9551466 1.08231329 3.1771132 2.93271987 3.1771132 1.43144661.0698267 2.68832655-.62844 2.68832655-2.1297132z" fill-rule="nonzero"/><path d="m23.671239 16.3743526h-.1745667c-.6982666 1.5711-1.8853199 2.5835866-3.8753798 2.5835866-2.9676332 0-4.9576931-2.1995399-4.9576931-6.7731864 0-4.57364646 1.9900599-6.77318637 4.9576931-6.77318637 1.9900599 0 3.1771132 1.04739996 3.8753798 2.58358656h.1745667v-2.3042799h3.2120265v12.98775941h-3.2120265zm0-2.1646265v-4.0848599c0-1.46635991-1.2219666-2.19953987-2.6883266-2.19953987-1.8504066 0-2.9327198 1.22196661-2.9327198 3.17711317v2.0598866c0 1.9551466 1.0823132 3.1771132 2.9327198 3.1771132 1.4314466.0698267 2.6883266-.62844 2.6883266-2.1297132z" fill-rule="nonzero"/><path d="m29.0129788 16.514006 1.8853199-1.7107533c1.0473999 1.1521399 2.4439332 1.8504066 4.2594265 1.8504066 1.6060132 0 2.6534132-.5237 2.6534132-1.6409266 0-.94266-.73318-1.1870533-1.7805799-1.3267066l-2.0948-.31422c-2.1646265-.31422-4.2245131-1.1870533-4.2245131-3.73572651 0-2.68832656 2.1995399-4.18959982 5.6908731-4.18959982 2.4788465 0 4.2594265.7680933 5.3766531 2.02497324l-1.6758399 1.85040659c-.73318-.80300663-1.9202333-1.5361866-3.8055532-1.5361866-1.6060133 0-2.4788466.52369998-2.4788466 1.5361866 0 .94266.7680933 1.2219666 1.8154933 1.3616199l2.0598866.31422c2.1995399.31422 4.2594264 1.15214 4.2594264 3.7357265 0 2.6534133-2.1995399 4.2943398-5.8654397 4.2943398-2.7581532-.0349133-4.8878665-1.0124866-6.0749197-2.5137598z"/><path d="m43.5503535 23.6305059v-2.9967268h13.4658111v2.9967268z"/><path d="m60.4349774.06982666h3.2120265v7.92532633h.1396534c.5935266-1.39653327 1.6758399-2.58358656 3.8055531-2.58358656 2.5486733 0 4.2943398 1.7456666 4.2943398 4.88786647v8.3791996h-3.2120265v-7.9253263c0-1.85040658-.8379199-2.82797987-2.4439332-2.82797987-1.2917933 0-2.5486732.6633533-2.5486732 2.05988657v8.6585063h-3.2120266v-18.57389254z"/><path d="m83.4079497 16.3743526h-.1745666c-.6982666 1.5711-1.8853199 2.5835866-3.8753798 2.5835866-2.9676333 0-4.9576932-2.1995399-4.9576932-6.7731864 0-4.57364646 1.9900599-6.77318637 4.9576932-6.77318637 1.9900599 0 3.1771132 1.04739996 3.8753798 2.58358656h.1745666v-2.3042799h3.2120266v12.98775941h-3.2120266zm0-2.1646265v-4.0848599c0-1.46635991-1.2219666-2.19953987-2.6883265-2.19953987-1.8504066 0-2.9327199 1.22196661-2.9327199 3.17711317v2.0598866c0 1.9551466 1.0823133 3.1771132 2.9327199 3.1771132 1.4314466.0698267 2.6883265-.62844 2.6883265-2.1297132z" fill-rule="nonzero"/><path d="m90.0763961.06982666h3.2120266v7.92532633h.1745666c.6982667-1.57109993 1.8853199-2.58358656 3.8753798-2.58358656 2.9676329 0 4.9576929 2.19953991 4.9576929 6.77318637 0 4.5736465-1.99006 6.7731864-4.9576929 6.7731864-1.9900599 0-3.1771131-1.0474-3.8753798-2.5835866h-.1745666v2.3042799h-3.2120266zm8.8679863 13.16232614v-2.0598866c0-1.9551466-1.0823133-3.17711321-2.9327199-3.17711321-1.4663599 0-2.6883265.69826664-2.6883265 2.19953991v4.0848598c0 1.46636 1.2219666 2.1995399 2.6883265 2.1995399 1.8504066-.0698266 2.9327199-1.2917933 2.9327199-3.2469398z" fill-rule="nonzero"/><path d="m104.495602 16.1299593h4.259427v-7.89041299h-3.98012v-2.54867322h7.22706v10.43908621h3.980119v2.5486732h-11.451572v-2.5486732z"/><path d="m151.872993 18.6786325c-2.478846 0-3.630986-1.4663599-3.630986-3.5262465v-6.91283969h-3.77064v-2.54867322h3.98012v-3.73572651l3.002546-1.88531992v5.62104643h5.271914v2.54867322h-5.271914v7.89041299h5.271914v2.5486732z"/><path d="m123.453541 18.6786325c-2.478846 0-3.630986-1.4663599-3.630986-3.5262465v-6.91283969h-3.77064v-2.54867322h3.98012v-3.73572651l3.002546-1.88531992v5.62104643h5.271913v2.54867322h-5.271913v7.89041299h5.271913v2.5486732z"/><path d="m139.199454 16.3743526h-.174567c-.698266 1.5711-1.88532 2.5835866-3.875379 2.5835866-2.967634 0-4.957694-2.1995399-4.957694-6.7731864 0-4.57364646 1.99006-6.77318637 4.957694-6.77318637 1.990059 0 3.177113 1.04739996 3.875379 2.58358656h.174567v-2.3042799h3.212027v12.98775941h-3.212027zm0-2.1646265v-4.0848599c0-1.46635991-1.221967-2.19953987-2.688327-2.19953987-1.850406 0-2.932719 1.22196661-2.932719 3.17711317v2.0598866c0 1.9551466 1.082313 3.1771132 2.932719 3.1771132 1.431447.0698267 2.688327-.62844 2.688327-2.1297132z" fill-rule="nonzero"/><path d="m110.151562 3.91029317c-1.0474 0-1.920233-.8728333-1.920233-1.92023326 0-1.04739995.872833-1.92023325 1.920233-1.92023325s1.920233.8728333 1.920233 1.92023325c0 1.04739996-.872833 1.92023326-1.920233 1.92023326z"/></g></svg>