<svg width="845" height="500" xmlns="http://www.w3.org/2000/svg"><path d="M357.762 257.068c5.256-14.66 7.376-20.589 9.321-26.607 2.797 8.728 5.68 16.864 9.072 26.607h-18.393zm3.645-37.364l-22.718 59.812H350.3l4.835-13.98h23.66l4.75 13.98h11.694l-21.882-59.812h-11.95zm57.6 52.359c-6.274 0-9.923-5.167-9.923-14.151 0-8.044 4.244-13.129 10.258-13.129 5.68 0 9.158 5.167 9.158 13.638 0 8.984-3.646 13.642-9.493 13.642zm-9.648-29.06v-23.296h-9.938v59.812h9.503v-5.508c2.886 4.152 6.78 6.356 12.546 6.356 10.414 0 17.38-8.137 17.38-21.931 0-13.724-6.356-21.931-16.28-21.931a16.25 16.25 0 0 0-13.204 6.524l-.007-.026zm50.332.695c4.092 0 7.298 2.204 9.418 5.947l7.387-5.007c-3.72-5.947-9.927-8.482-16.634-8.482-10.444 0-16.365 6.107-16.365 12.723 0 6.446 4.158 10.263 10.693 12.3l4.497 1.442c6.368 2.037 7.81 3.223 7.81 6.022 0 2.546-2.376 4.412-6.694 4.412-4.672 0-8.574-2.546-10.787-6.873l-7.733 5.082c3.564 5.345 9.422 9.5 18.08 9.5 10.527 0 17.058-5.683 17.058-13.485 0-6.788-4.243-10.263-11.708-12.638l-4.501-1.353c-5.434-1.699-6.792-2.885-6.792-5.431 0-2.46 2.038-4.156 6.282-4.156l-.01-.003zm36.901 1.61h8.183v-7.948h-8.183v-13.79h-9.875l-.171 13.79h-6.624v7.947h6.624v23.113c0 3.91.595 6.88 2.38 8.921 1.7 2.04 4.505 3.06 8.667 3.06a29.89 29.89 0 0 0 7.394-.937v-7.903a12.23 12.23 0 0 1-4.091.77c-3.058 0-4.315-1.532-4.315-5.862l.011-21.162zm23.303-7.948h-9.5v42.375h9.939v-19.753c0-4.52.744-7.5 2.21-9.709 1.859-2.646 4.463-4.241 9.052-4.193 1.235.015 2.462.2 3.646.55v-9.27a11.767 11.767 0 0 0-3.646-.55c-5.85 0-9.16 2.468-11.701 7.062v-6.512zm43.975 24.406c-.085 2.38-.51 4.755-1.86 6.691-1.859 2.803-5.01 4.416-8.833 4.416-4.415 0-6.453-2.293-6.453-5.349 0-2.375 1.019-3.992 3.652-5.178 2.976-1.442 8.663-2.29 13.506-2.546l-.012 1.966zm9.467-8.92c0-6.624-.89-10.104-3.523-12.568-2.804-2.714-6.877-4.089-12.646-4.089-10.787 0-17.597 5.096-18.274 14.263l9.51.907c.51-4.673 2.805-7.3 7.987-7.3 2.63 0 4.668.59 5.858 1.78 1.116 1.115 1.614 2.713 1.614 5.092v2.286c-6.695.424-14.878 1.613-19.025 3.48-5.01 2.29-7.726 5.854-7.726 11.288 0 7.553 5.435 12.397 13.16 12.397 6.03 0 10.612-2.123 13.84-6.026.919 4.223 3.895 5.784 9.21 5.784a13.606 13.606 0 0 0 4.534-.68v-6.453c-3.831.688-4.5-1.554-4.527-4.862l.008-15.3zm16.808 5.337c0-9.408 4.415-13.73 10.184-13.73 3.99 0 7.045 1.858 8.231 7.46l8.927-3.052c-1.953-7.542-7.722-12.713-16.89-12.713-12.647 0-20.621 8.39-20.621 22.206 0 13.898 7.81 22.377 20.111 22.377 9.593 0 15.194-5.089 17.653-12.121l-8.908-3.052c-1.02 4.49-3.72 6.865-8.235 6.865-6.532 0-10.437-4.914-10.437-14.24h-.015zm46.464-12.876h8.183v-7.947h-8.183v-13.79h-9.875l-.175 13.79h-6.625v7.947h6.625v23.113c0 3.91.599 6.88 2.384 8.921 1.696 2.04 4.504 3.06 8.666 3.06a29.837 29.837 0 0 0 7.391-.937v-7.903c-1.31.49-2.694.75-4.091.77-3.062 0-4.315-1.532-4.315-5.862l.015-21.162zM256.536 193c45.23 0 56.537 11.3 56.537 56.5S301.765 306 256.536 306 200 294.7 200 249.5s11.307-56.5 56.536-56.5zm-.99 45.784a21.654 21.654 0 0 0-23.59 4.687 21.62 21.62 0 0 0-4.693 23.572 21.644 21.644 0 0 0 19.997 13.354c11.947-.013 21.63-9.687 21.644-21.627a21.63 21.63 0 0 0-13.359-19.986zm31.025-19.3h-60.07v10.594h49.47v49.438h10.6v-60.032zm-39.311 28.25c6.095.009 11.035 4.945 11.043 11.036 0 6.096-4.944 11.037-11.043 11.037-6.1 0-11.043-4.941-11.043-11.037 0-6.095 4.944-11.036 11.043-11.036z" fill="#000" fill-rule="nonzero"/></svg>