<svg width="857" height="500" xmlns="http://www.w3.org/2000/svg"><g fill="#000" fill-rule="evenodd"><path d="M402.41 187.673c-14.59-19.833-13.24-41.686-13.225-41.904l-.265-.019c11.586-15.168 12.556-33.75 12.556-33.75-23.317 23.49-36.707 7.049-36.433 8.699 3.35 19.983 14.137 25.77 19.012 27.39.047 6.785 1.464 25.192 14.264 42.592l4.092-3.008M451.761 165.307c-32.04 5.402-38.18-20.648-38.562-19.103-5.37 21.779 4.522 33.821 10.283 38.755-2.422 5.916-9.564 26.5-4.26 52.73l4.978-1.007c-4.889-24.17 1.584-43.673 3.864-49.47 18.52-9.51 23.697-21.905 23.697-21.905" opacity=".4"/><path d="M227.651 295.963c1.378 1.966 2.456 3.54 3.44 4.428 5.902 0 11.995-1.082 13.47-1.573.1-1.868 0-4.036 0-5.804l-5.996.198c-.489.096-.687-.295-.687-1.18 0-4.13.198-14.849.198-20.258 0-9.833-6.592-15.441-14.066-15.441-8.456 0-14.75 4.229-20.158 9.05 1.278 1.77 2.754 3.538 4.13 5.113 3.641-3.246 8.259-6.099 12.094-6.099 5.31 0 7.575 3.639 7.28 11.704h-6.002c-14.162 0-20.354 8.358-20.354 13.865 0 5.898 6.784 10.425 11.798 10.425 3.542 0 7.674-.985 14.36-4.428h.493zm-15.441-7.176c0-3.838 3.245-7.183 11.012-7.183 1.968 0 3.542.101 4.033.101v7.77c0 .295 0 .491-.197.688-2.85 1.967-6.39 3.243-9.144 3.243-3.05 0-5.704-1.869-5.704-4.52v-.1zm44.91-23.802v27.835c0 .194-.1.392-.295.392l-5.41.294c-.099 1.87-.099 4.03-.099 5.9 3.348 0 7.474-.097 11.016-.097h11.604c0-1.87.097-3.934.097-5.903l-5.902-.194c0-6.494.1-17.014.298-23.798 3.145-2.558 7.77-4.72 10.72-4.72 2.063 0 4.031.291 5.506 3.046 1.08 1.87 1.08 5.017 1.08 9.246v15.834c-.096.194-.195.392-.393.392l-5.014.294v5.9c3.047 0 7.08-.097 10.618-.097h11.313c.095-1.87.095-4.034.095-5.903l-5.7-.194c.096-6.885.294-15.736.294-22.225 0-2.457-.394-5.114-1.967-7.869-1.969-3.147-5.705-6.785-10.425-6.785-4.327 0-6.49.494-16.224 6.393l-.494-.1c-.295-1.673-.786-3.93-1.18-5.898 0-.198 0-.297-.194-.297-.59 0-11.9 2.165-16.23 2.653 0 1.774-.097 3.838-.097 5.704l6.983.197zm58.514 20.26c-2.165.293-4.526.688-6.591 1.18.491 4.033.983 8.162 1.477 12.194 2.654.984 7.275 1.772 12.293 1.772 5.407 0 10.223-.887 13.077-2.462 4.622-2.554 7.277-6.585 7.277-11.404 0-7.67-5.212-10.132-12.294-12.098-7.67-2.26-9.44-2.951-9.44-6.097 0-2.26.984-3.636 2.165-4.427 1.178-.88 3.146-1.374 5.015-1.374 1.868 0 3.736.393 5.014 1.28.297.192.491.686.59 1.08l1.476 5.8c2.262-.293 4.621-.689 6.588-.985-.297-3.931-.69-7.863-1.18-11.798-1.28-.591-5.211-1.573-10.521-1.573-5.41 0-9.635 1.08-12.586 2.655-3.641 1.87-7.18 5.8-7.18 10.917 0 5.802 3.638 9.442 11.999 11.897 7.472 2.163 9.635 2.855 9.635 6.787 0 2.259-1.18 3.637-2.558 4.425-1.67 1.079-3.539 1.178-5.803 1.178-2.26 0-4.622-.686-6.193-1.77-.494-.39-.593-.685-.788-1.18l-1.472-5.997zm51.576 15.146c5.113 0 11.407-.887 16.913-2.854-.194-1.964-.489-4.131-.881-6-3.245.788-6.982 1.477-9.933 1.477-2.95 0-5.604-1.771-5.604-5.312 0-4.719 0-9.538.095-13.57v-9.831c5.113 0 10.718.096 15.145.096.096-2.164.297-4.718.297-6.883-4.82 0-10.329.1-15.343.1.1-3.544.196-10.426.196-13.277 0-.198-.096-.295-.196-.295-.294 0-6.687 2.163-10.229 4.129-.196 2.654-.39 6-.489 8.751 0 .393-.396.691-.69.691-1.967.097-4.228.293-6.293.393-.196 1.965-.196 4.227-.196 6.295h6.783c0 1.769-.098 9.44-.098 11.994 0 1.966-.099 8.457-.099 13.671 0 2.95.1 5.211 3.05 7.67 2.558 2.36 5.211 2.755 7.473 2.755h.099zM401.9 235.29c-4.327 0-6.982 3.148-6.982 6.488 0 3.739 3.15 6.589 6.688 6.589 3.836 0 6.887-2.751 6.887-6.784 0-2.95-1.969-6.293-6.493-6.293h-.1zm-4.819 29.797v27.733c0 .194-.097.392-.392.392l-5.998.294c-.1 1.87-.1 3.933-.1 5.9 3.641 0 7.966-.097 11.603-.097h12c.097-1.87.097-3.934.097-5.903l-6.293-.194c0-10.229.196-25.867.196-36.583 0-.198 0-.296-.097-.296-.886 0-13.276 2.065-17.997 2.556 0 1.869-.099 4.033 0 5.9l6.981.298zm40.879 28.125c0-8.85.099-20.848.099-28.815h13.275c.1-2.164.296-4.82.296-6.883-4.23.1-9.049.1-13.47.1-.101-10.524.388-12.886 1.963-15.441.985-1.672 3.049-2.363 4.82-2.363 2.656 0 6.687 1.673 7.473 1.968 1.672-1.18 3.838-5.898 3.838-8.454-1.773-.69-4.72-1.378-8.162-1.378-4.627 0-10.132 1.177-15.736 7.18-4.031 4.327-5.508 7.964-5.508 17.796 0 .393-.197.691-.592.691-1.966.097-4.226.097-6.293.197-.099 1.967-.195 4.324-.195 6.49h7.18c.097 9.242.097 19.176.097 28.52 0 .194-.197.392-.394.392l-5.308.294c-.1 1.968-.1 3.933-.1 5.9 3.346 0 7.67-.097 11.113-.097h14.748c.099-1.97.099-3.934.099-5.903l-9.243-.194zm36.661 7.18c5.118 0 11.408-.888 16.913-2.855-.193-1.964-.487-4.131-.883-6-3.245.788-6.981 1.477-9.933 1.477-2.949 0-5.604-1.771-5.604-5.312 0-4.719 0-9.538.098-13.57v-9.831c5.115 0 10.718.096 15.145.096.098-2.164.294-4.718.294-6.883-4.821 0-10.324.1-15.339.1.095-3.544.196-10.426.196-13.277 0-.198-.1-.295-.196-.295-.295 0-6.688 2.163-10.23 4.129-.195 2.654-.393 6-.488 8.751 0 .393-.397.691-.689.691-1.967.097-4.229.293-6.296.393-.194 1.965-.194 4.227-.194 6.295h6.782c0 1.769-.095 9.44-.095 11.994 0 1.966-.1 8.457-.1 13.671 0 2.95.1 5.211 3.05 7.67 2.557 2.36 5.21 2.755 7.474 2.755h.095zm55.582-5.117c1.375 2.46 2.558 4.131 3.735 5.116 5.213 0 12.099-1.182 13.178-1.672.098-1.868.098-3.937.098-5.802l-6.097.097c-.391 0-.587-.296-.587-1.082 0-11.405.196-23.602.196-34.319 0-.2 0-.396-.1-.396-1.375 0-13.08.197-16.718.297 0 1.967-.1 4.13-.1 6.195l5.705.194c0 6.787.098 17.509 0 24.983-3.147 2.357-6.49 3.735-9.244 3.735-2.161 0-4.03-.59-5.505-2.95-1.474-2.265-1.379-5.41-1.379-8.951 0-7.767.197-16.026.297-23.206 0-.1-.1-.391-.297-.391-1.179.094-12.293.391-16.03.587-.096 1.97-.194 4.13-.194 6.1l5.312.093c0 6.787-.101 14.753-.101 22.916 0 6.294 6.59 13.572 12.98 13.572 3.934 0 5.902-.298 14.358-5.116h.493zm29.518-30.29v27.835c0 .194-.096.392-.295.392l-5.41.294c-.096 1.87-.096 4.03-.096 5.9 3.344 0 7.475-.097 11.015-.097h11.602c0-1.87.1-3.934.1-5.903l-5.9-.194c0-6.494.097-17.014.295-23.798 3.147-2.558 7.77-4.72 10.718-4.72 2.066 0 4.03.291 5.507 3.046 1.08 1.87 1.08 5.017 1.08 9.246v15.834c-.099.194-.194.392-.392.392l-5.014.294v5.9c3.05 0 7.08-.097 10.62-.097h11.307c.1-1.87.1-4.034.1-5.903l-5.705-.194c.1-6.885.295-15.736.295-22.225 0-2.457-.393-5.114-1.967-7.869-1.963-3.147-5.7-6.785-10.423-6.785-4.325 0-6.487.494-16.224 6.393l-.493-.1c-.294-1.673-.785-3.93-1.182-5.898 0-.198 0-.297-.194-.297-.592 0-11.899 2.165-16.224 2.653 0 1.774-.1 3.838-.1 5.704l6.98.197zm61.698 23.016c-8.16 5.112-8.455 5.405-8.455 6.29 0 4.82 3.244 6.59 6.49 7.671v.59c-2.358 1.77-4.72 3.246-8.752 6.1-1.574 1.276-2.066 2.259-2.066 3.832 0 7.377 7.572 11.506 20.258 11.506 5.703 0 11.309-.98 15.735-2.751 7.377-2.854 11.408-8.068 11.408-13.867 0-4.425-1.377-6.194-4.524-8.36-3.148-2.161-6.983-2.654-15.638-2.95-8.948-.297-11.503-.588-11.503-2.949 0-1.18 1.67-2.755 3.637-4.326 9.146.39 14.458-2.262 17.704-5.607 3.046-3.247 4.424-7.67 4.424-11.11 0-3.347-1.081-6.493-2.85-8.361l.096-.394h8.753c.095-2.065.095-4.523-.1-6.587-2.85.194-9.243.395-13.668.587-.59.099-1.182 0-2.165-.192-1.083-.2-4.328-.79-7.867-.79-12.094 0-20.65 7.768-20.65 17.113 0 7.57 5.41 11.996 9.733 14.06V288zm1.576-15.343c0-6.982 3.344-10.916 8.358-10.916 2.654 0 4.522.885 5.704 2.559 1.377 1.868 1.966 4.13 1.966 7.669 0 7.67-3.441 11.506-8.063 11.506-4.327 0-7.965-2.557-7.965-10.719v-.099zm22.126 36.977c0 2.849-1.573 5.014-4.228 6.588-2.655 1.474-6.589 2.066-10.032 2.066-5.21 0-10.817-1.868-10.817-6.199 0-2.949 2.26-5.11 5.51-8.258 2.062.099 5.406.296 10.226.686 7.374.491 9.341 1.379 9.341 5.017v.1z"/></g></svg>