<svg width="842" height="500" xmlns="http://www.w3.org/2000/svg"><g fill="#000" fill-rule="evenodd"><path d="M454.237 238.727l3.268-7.883h14.054l3.27 7.883h4.568l-12.247-30.28h-4.482l-12.754 30.28h4.323zM464.72 212.6l5.494 14.636H458.93l5.79-14.636z"/><path d="M497.51 228.495c0 .5-.044 2.975-.8 4.95-.837 2.181-3.06 3.015-4.696 3.015-3.816 0-4.657-2.679-4.657-6.33v-12.458h-3.982v14.094c0 4.238 2.515 7.59 6.923 7.59 2.93 0 5.62-1.089 7.213-3.73h.085v3.1h3.9v-21.054h-3.985v10.823" fill-rule="nonzero"/><path d="M511.376 227.695c0-3.311 1.26-7.756 5.916-7.756 4.315 0 5.912 3.69 5.912 7.756 0 4.071-1.597 7.76-5.912 7.76-4.657 0-5.916-4.444-5.916-7.76zm11.828-6.875c0 .293-.549-.922-.63-1.007-1.3-1.93-3.567-2.767-5.62-2.767-6.375 0-9.771 4.778-9.771 10.86 0 5.913 2.556 10.447 8.975 10.447 2.6 0 5.66-1.049 6.916-3.568h.13c-.13 4.742-.13 9.435-5.79 9.435-2.812 0-4.738-1.089-4.905-3.9h-4.197c.041 4.867 3.271 6.797 7.805 6.797 7.716 0 11.069-3.149 11.069-10.865v-14.806c0-1.26.126-2.515.255-3.774h-4.111l-.126 3.148z"/><path d="M532.705 223.42c0 8.22 12.795 4.698 12.795 9.395 0 2.726-2.393 3.648-4.742 3.648-2.43 0-4.193-1.385-4.278-3.985h-4.19c-.044 4.867 3.645 6.882 8.046 6.882 4.326 0 9.357-1.596 9.357-6.756 0-4.738-4.112-5.157-7.675-6.335-1.512-.46-5.12-.626-5.12-2.974 0-2.349 1.723-3.356 3.86-3.356 2.308 0 4.36.881 4.193 3.567h4.194c.296-4.782-4.194-6.46-8.176-6.46-3.815 0-8.264 1.97-8.264 6.375" fill-rule="nonzero"/><path d="M570.81 228.203c0 3.941-1.47 8.26-5.96 8.26-4.822 0-5.952-4.319-5.952-8.26 0-3.816 1.426-8.26 5.953-8.26 4.786 0 5.96 4.319 5.96 8.26zm-11.83 7.382l-.082-.21h.081c1.43 2.937 4.197 3.985 7.257 3.985 6.25 0 8.764-5.745 8.764-11.157 0-5.708-2.933-11.157-9.475-11.157-2.686 0-5.327.963-6.546 3.482h-.081v-12.08h-3.99v26.926c0 .837-.118 2.097-.203 3.356h4.108l.166-3.145z"/><path d="M594.655 228.495c0 .5-.04 2.975-.792 4.95-.841 2.181-3.068 3.015-4.701 3.015-3.816 0-4.653-2.679-4.653-6.33v-12.458h-3.985v14.094c0 4.238 2.515 7.59 6.92 7.59 2.937 0 5.622-1.089 7.211-3.73h.086v3.1h3.9v-21.054h-3.986v10.823M610.073 228.284c0-4.441.881-7.127 5.915-7.297.545 0 1.17 0 1.719.211v-3.775c-.463 0-.882-.04-1.382-.04-2.896 0-5.582 1.467-6.167 4.36h-.085v-4.071h-3.986v21.055h3.986v-10.443" fill-rule="nonzero"/><path d="M624.716 227.695c0-3.311 1.255-7.756 5.912-7.756 4.322 0 5.915 3.69 5.915 7.756 0 4.071-1.593 7.76-5.915 7.76-4.657 0-5.912-4.444-5.912-7.76zm11.827-6.875c0 .293-.544-.922-.63-1.007-1.3-1.93-3.567-2.767-5.619-2.767-6.375 0-9.775 4.778-9.775 10.86 0 5.913 2.56 10.447 8.975 10.447 2.604 0 5.664-1.049 6.923-3.568h.126c-.126 4.742-.126 9.435-5.79 9.435-2.811 0-4.737-1.089-4.908-3.9h-4.19c.042 4.867 3.272 6.797 7.798 6.797 7.72 0 11.072-3.149 11.072-10.865v-14.806c0-1.26.126-2.515.252-3.774h-4.111l-.123 3.148z"/><path d="M451.885 188.23c-.167 6.797 4.445 9.483 10.78 9.483 6.123 0 12.287-2.434 12.287-9.313 0-7.634-7.59-7.634-13.169-9.438-2.641-.841-5.075-1.045-5.075-4.49 0-3.604 4.067-4.697 7.046-4.697 3.022 0 5.87 1.175 6.038 4.571h4.408c0-5.87-5.075-8.179-10.235-8.179-5.664 0-11.661 2.434-11.661 9.02 0 6.794 8.308 7.924 13.298 9.016 2.519.504 4.949 1.723 4.949 4.657 0 4.234-4.197 5.241-7.635 5.241-4.07 0-6.545-1.593-6.626-5.871h-4.405M477.697 175.902v2.978l3.608-.04v13.376c0 2.811.21 2.897.922 3.904.67.919 1.722 1.256 2.348 1.386.963.166 1.72.207 2.686.207.922 0 1.804-.207 2.726-.252v-3.063c-.63.166-1.467.252-2.096.252-1.426 0-2.6-.712-2.6-2.223V178.84l4.867.04v-2.978l-4.868.126v-5.745l-3.985 1.26v4.485l-3.608-.126" fill-rule="nonzero"/><path d="M507.238 186.848c.085 3.9-.793 7.968-5.497 7.968-2.345 0-4.149-1.296-4.149-3.9 0-3.06 3.23-3.942 5.66-4.068h3.986zm-3.604-2.767c-4.993 0-10.235 1.719-10.235 7.631 0 4.112 3.69 6.001 7.338 6.001 2.897 0 5.245-1.13 6.546-3.775h.081c.045.963.126 1.886.211 2.849.045.507.752.296 1.134.296h2.682a68.42 68.42 0 0 1-.167-4.445V182.57c0-5.868-4.279-7.168-8.598-7.168-4.152 0-7.76 1.634-7.971 6.25h4.197c.04-2.186 1.926-3.36 3.941-3.36 4.234 0 4.445 2.14 4.445 5.79h-3.604zM520.785 186.515c0-3.945 1.174-8.35 5.956-8.35 4.53 0 5.953 4.53 5.953 8.35 0 3.938-1.134 8.427-5.953 8.427-4.49 0-5.956-4.49-5.956-8.427zm11.868-7.635h-.085c-1.215-2.515-3.856-3.482-6.538-3.482-6.546 0-9.439 5.453-9.439 11.158 0 5.408 2.471 11.157 8.72 11.157 3.067 0 5.835-1.052 7.257-3.986h.085v.211l.126 3.142h4.067c-.085-1.215-.207-2.471-.207-3.73V166.8h-3.986v12.08z"/><path d="M540.147 175.902v2.978l3.604-.04v13.376c0 2.811.211 2.897.926 3.904.67.919 1.719 1.256 2.349 1.386.963.166 1.719.207 2.685.207.923 0 1.8-.207 2.723-.252v-3.063c-.626.166-1.467.252-2.097.252-1.426 0-2.596-.712-2.596-2.223V178.84l4.86.04v-2.978l-4.86.126v-5.745l-3.99 1.26v4.485l-3.604-.126" fill-rule="nonzero"/><path d="M312.286 185.781s-.1.745-.178 1.02c-.078.288-.133.529-.219.788-.096.282-.274.967-.274.967l-2.437 7.334-57.494 153.683h17.325s19.31-54.438 21.47-60.646h69.44l-3.93-10.735-61.843.089 31.309-83.661-2.105-5.73c-.27-.738-.54-1.393-.822-2.005a17.575 17.575 0 0 0-1.082-2.015c-.659-1.06-1.43-2.037-2.481-3.226-.893-1.011-1.641-1.775-2.438-2.452-.76-.652-1.582-1.234-2.66-1.93-1.344-.912-2.944-1.804-3.596-2.097-1.467-.66-3.008-1.382-5.042-1.952-1.048-.29-1.908-.511-2.737-.678-.682-.133-1.438-.026-2.149-.089-.918-.081.348-.026 2.63.5 1.086.248 2.178.641 2.986 1.03.526.256 1.011.485 1.456.715.407.215.789.426 1.144.667a7.5 7.5 0 0 1 1.33 1.081c.27.274.541.582.811.934.37.496.63.889.856 1.322.17.326.319.667.485 1.097.2.522.341.94.445 1.37.107.452.17.908.215 1.497-.03.596-.126 1.396-.126 1.396l-.119.808-.17.918" fill-rule="nonzero" opacity=".4"/><path d="M288.664 166.375h49.7l70.048 183.206-26.482-.004-56.175-153.683-2.505-6.797a28.578 28.578 0 0 0-.822-2.004 17.032 17.032 0 0 0-1.085-2.015c-.66-1.06-1.445-2.064-2.478-3.23-.908-1.023-1.645-1.775-2.438-2.453-.763-.648-1.582-1.237-2.663-1.93-1.341-.907-2.941-1.804-3.593-2.093-1.893-.848-3.012-1.381-5.046-1.952-1.044-.292-1.907-.515-2.737-.678a17.416 17.416 0 0 0-2.045-.292c-.918-.085-1.926-.111-3.204-.097l-8.475-.01v-5.968M234.752 233.063l12.094 11.99a32.916 32.916 0 0 1-23.944-.14l11.85-11.85zm16.784-16.777l12.894 12.78a32.734 32.734 0 0 1-6.175 8.564 32.75 32.75 0 0 1-9.435 6.594l-12.672-12.558 15.388-15.38zm-33.657.052l15.461 15.328-12.394 12.395a32.814 32.814 0 0 1-9.087-6.43 32.667 32.667 0 0 1-6.349-8.924l12.369-12.369zm16.78-16.784l15.465 15.328-15.383 15.384-15.462-15.328 15.38-15.384zm30.883 2.723a32.902 32.902 0 0 1-.23 24.87L252.94 214.88l12.602-12.602zm-61.206.637l12.068 11.968-11.798 11.795a32.91 32.91 0 0 1-.27-23.763zm47.696-20.733c4.879 5.056 8.768 10.557 11.765 16.399.311.57.611 1.152.889 1.74l-13.158 13.162-15.465-15.332 15.97-15.97zm-34.416.481l15.569 15.436-15.38 15.384-12.654-12.543c.252-.563.522-1.115.807-1.667l.23-.437c3.012-5.89 6.794-11.294 11.428-16.173zm17.432-17.458l15.528 15.503-15.984 15.984-15.587-15.451 16.043-16.036z" fill-rule="nonzero"/></g></svg>