<svg width="938" height="500" xmlns="http://www.w3.org/2000/svg"><g fill="#000" fill-rule="nonzero"><path d="M202.304 284.288a2.306 2.306 0 0 1-2.304-2.306v-64.518a2.304 2.304 0 0 1 2.304-2.305h64.51a2.304 2.304 0 0 1 2.305 2.305v9.215a2.3 2.3 0 0 1-2.304 2.302h-46.08a2.307 2.307 0 0 0-2.303 2.306v9.218a2.304 2.304 0 0 0 2.304 2.303h41.471a2.303 2.303 0 0 1 2.304 2.302v9.218a2.304 2.304 0 0 1-2.304 2.306h-41.471a2.305 2.305 0 0 0-2.304 2.306v23.04a2.306 2.306 0 0 1-2.304 2.307l-13.824.001zM670.753 215a2.303 2.303 0 0 0-2.302 2.302v64.522a2.303 2.303 0 0 0 2.302 2.302h64.513a2.303 2.303 0 0 0 2.302-2.302v-9.218a2.305 2.305 0 0 0-2.302-2.306h-46.08a2.303 2.303 0 0 1-2.305-2.302c0-1.276-.056-50.936-.056-50.936s.158-2.055-2.25-2.062h-13.822zM273.728 217.464a2.304 2.304 0 0 1 2.304-2.305h69.118a2.304 2.304 0 0 1 2.303 2.305v9.215a2.3 2.3 0 0 1-2.303 2.302h-50.686a2.307 2.307 0 0 0-2.306 2.306v9.218a2.304 2.304 0 0 0 2.306 2.303h46.078a2.303 2.303 0 0 1 2.304 2.302v9.218a2.304 2.304 0 0 1-2.304 2.306h-46.078a2.305 2.305 0 0 0-2.306 2.306v9.214a2.302 2.302 0 0 0 2.306 2.303h50.686a2.306 2.306 0 0 1 2.303 2.306v9.218a2.306 2.306 0 0 1-2.303 2.306h-69.118a2.306 2.306 0 0 1-2.304-2.306v-64.517zM352.062 242.809c0 7.636 6.19 13.827 13.823 13.827h36.863a4.607 4.607 0 0 1 4.609 4.609v4.609a4.606 4.606 0 0 1-4.609 4.605h-29.95a2.3 2.3 0 0 1-2.304-2.3 2.304 2.304 0 0 0-2.304-2.305h-13.824a2.303 2.303 0 0 0-2.303 2.302v2.303c0 7.636 6.19 13.83 13.823 13.83h46.08c7.636 0 13.825-6.195 13.825-13.83v-13.824c0-7.637-6.19-13.827-13.825-13.827h-36.863a4.608 4.608 0 0 1-4.608-4.61v-4.605a4.61 4.61 0 0 1 4.608-4.612h29.953a2.305 2.305 0 0 1 2.302 2.305 2.307 2.307 0 0 0 2.305 2.306h13.822a2.308 2.308 0 0 0 2.306-2.306v-2.305c0-7.634-6.19-13.824-13.826-13.824h-46.08c-7.634 0-13.823 6.19-13.823 13.824v13.828zM430.395 217.464a2.306 2.306 0 0 1 2.305-2.305h69.121a2.303 2.303 0 0 1 2.302 2.305v9.215a2.3 2.3 0 0 1-2.302 2.302h-23.04a2.308 2.308 0 0 0-2.306 2.306v50.695a2.303 2.303 0 0 1-2.302 2.305H460.35a2.306 2.306 0 0 1-2.306-2.305v-50.694a2.306 2.306 0 0 0-2.305-2.306h-23.038a2.303 2.303 0 0 1-2.306-2.302v-9.216h-.001zM522.557 284.288c-7.636 0-13.828-6.194-13.828-13.83v-41.477c0-7.633 6.193-13.823 13.828-13.823h46.08c7.632 0 13.822 6.19 13.822 13.823v41.478c0 7.636-6.19 13.83-13.822 13.83h-46.08zm9.214-13.83h27.646a4.609 4.609 0 0 0 4.612-4.605v-32.26a4.613 4.613 0 0 0-4.612-4.612H531.77a4.612 4.612 0 0 0-4.609 4.613v32.259a4.608 4.608 0 0 0 4.609 4.606zM602.62 284.48c-7.639 0-13.825-6.187-13.825-13.824v-41.477c0-7.637 6.186-13.827 13.825-13.827h46.077c7.636 0 13.825 6.19 13.825 13.827v41.477c0 7.637-6.19 13.824-13.825 13.824H602.62zm9.214-13.824h27.646a4.608 4.608 0 0 0 4.609-4.613v-32.259a4.606 4.606 0 0 0-4.609-4.605h-27.646a4.606 4.606 0 0 0-4.608 4.605v32.26a4.608 4.608 0 0 0 4.608 4.612z"/></g></svg>