<svg width="590" height="500" xmlns="http://www.w3.org/2000/svg"><g fill="#000" fill-rule="nonzero"><path d="M358.727 279.025c.318 0 .622.02.913.057.291.038.562.091.812.16h3.21c.13 0 .233.084.313.25.08.167.12.449.12.845 0 .365-.042.636-.125.812-.085.174-.185.262-.307.262h-1.192c.166.183.285.39.358.623.072.233.108.475.108.726 0 .594-.099 1.122-.295 1.582-.197.46-.479.85-.846 1.165-.367.316-.81.555-1.328.72a5.723 5.723 0 0 1-1.73.246c-.325 0-.635-.04-.93-.12-.295-.08-.522-.173-.681-.28-.09.098-.172.216-.244.354a.967.967 0 0 0-.108.457c0 .22.096.401.288.543.194.14.465.22.812.234l2.463.092a5.858 5.858 0 0 1 1.537.246c.45.142.83.339 1.135.594.307.255.541.562.703.92.163.359.245.766.245 1.222 0 .503-.11.977-.329 1.423-.22.446-.548.833-.987 1.16-.439.327-.99.587-1.65.777-.663.19-1.436.286-2.323.286-.862 0-1.597-.069-2.206-.206-.61-.137-1.11-.327-1.497-.572-.39-.244-.674-.535-.852-.873a2.372 2.372 0 0 1-.267-1.114 2.644 2.644 0 0 1 .38-1.378 3.42 3.42 0 0 1 .46-.6c.18-.19.389-.372.624-.547a1.897 1.897 0 0 1-1.022-1.704 2.5 2.5 0 0 1 .306-1.228c.205-.37.47-.703.795-1a3.01 3.01 0 0 1-.636-.96c-.159-.373-.238-.837-.238-1.393 0-.594.104-1.125.313-1.593.208-.47.497-.865.867-1.19a3.83 3.83 0 0 1 1.328-.742 5.366 5.366 0 0 1 1.703-.256zm-1.191 10.716a3.071 3.071 0 0 0-.472.418c-.116.133-.21.26-.283.382-.073.122-.12.24-.142.354a1.895 1.895 0 0 0-.033.355c0 .38.19.67.572.868.383.198.922.297 1.618.297a3.9 3.9 0 0 0 1.089-.131c.294-.088.533-.205.715-.349.18-.145.31-.307.386-.487a1.46 1.46 0 0 0 .113-.565c0-.343-.136-.605-.408-.788-.273-.183-.647-.283-1.124-.297l-2.031-.057zm-61.24-10.767c.847 0 1.57.126 2.172.377.602.251 1.096.6 1.482 1.046.386.445.668.972.85 1.582.183.61.273 1.273.273 1.989v.459h-.001c0 .351-.078.609-.233.777-.155.169-.368.25-.64.25h-6.163c0 .435.052.83.154 1.183.102.355.265.656.487.903.224.248.51.437.863.566.352.13.773.194 1.266.194.5 0 .937-.036 1.316-.109a8.675 8.675 0 0 0 1.668-.48 1.27 1.27 0 0 1 .442-.109c.067 0 .126.014.171.04a.3.3 0 0 1 .114.143c.03.069.05.167.061.291a7.131 7.131 0 0 1 .006.904c-.008.118-.018.218-.034.302a.745.745 0 0 1-.068.212.813.813 0 0 1-.119.165c-.05.054-.183.126-.402.217-.22.092-.5.181-.84.268-.341.088-.731.165-1.17.229a9.739 9.739 0 0 1-1.407.097c-.9 0-1.689-.115-2.365-.343-.678-.229-1.243-.575-1.697-1.04-.454-.465-.792-1.05-1.016-1.76-.222-.708-.334-1.538-.334-2.49 0-.907.117-1.724.351-2.452.235-.728.575-1.345 1.022-1.85.446-.508.99-.894 1.63-1.16.638-.267 1.358-.401 2.16-.401zm75.081 0c.847 0 1.572.126 2.174.377.601.251 1.095.6 1.481 1.046.386.445.669.972.852 1.582.18.61.272 1.273.272 1.989v.459h-.003c0 .351-.078.609-.232.777-.156.169-.37.25-.642.25h-6.161c0 .435.052.83.152 1.183.103.355.266.656.49.903.222.248.51.437.861.566.353.13.774.194 1.266.194.5 0 .938-.036 1.316-.109.378-.072.706-.151.98-.24.277-.087.507-.167.689-.24.18-.072.327-.109.441-.109.068 0 .125.014.17.04a.29.29 0 0 1 .114.143.96.96 0 0 1 .063.291c.01.126.016.285.016.475 0 .168-.002.31-.01.429-.009.118-.02.218-.035.302a.718.718 0 0 1-.068.212.749.749 0 0 1-.12.165c-.048.054-.182.126-.402.217-.218.092-.5.181-.839.268-.34.088-.731.165-1.169.229a9.739 9.739 0 0 1-1.407.097c-.9 0-1.689-.115-2.366-.343-.676-.229-1.242-.575-1.696-1.04-.454-.465-.793-1.05-1.015-1.76-.224-.708-.335-1.538-.335-2.49 0-.907.117-1.724.352-2.452.234-.728.575-1.345 1.021-1.85.446-.507.99-.894 1.629-1.16.64-.267 1.36-.401 2.161-.401zm-46.505.2c.28 0 .51.007.686.022.178.016.318.04.42.075.103.034.173.08.21.137a.34.34 0 0 1 .058.198c0 .084-.013.186-.035.308a8.047 8.047 0 0 1-.124.526l-2.702 9.22a.99.99 0 0 1-.147.315.597.597 0 0 1-.279.188 2.022 2.022 0 0 1-.533.092 14.05 14.05 0 0 1-.902.023c-.37 0-.673-.01-.907-.029a2.379 2.379 0 0 1-.55-.097.59.59 0 0 1-.29-.188.814.814 0 0 1-.135-.303l-1.702-6.193-.023-.103-.023.103-1.566 6.193a.88.88 0 0 1-.13.315.558.558 0 0 1-.29.188 2.281 2.281 0 0 1-.556.092c-.235.015-.536.023-.907.023-.379 0-.683-.01-.914-.029a2.38 2.38 0 0 1-.545-.097.59.59 0 0 1-.289-.188.815.815 0 0 1-.136-.303l-2.678-9.22a3.795 3.795 0 0 1-.13-.52c-.019-.125-.029-.23-.029-.314 0-.076.02-.143.063-.2.04-.057.117-.103.226-.137.11-.035.257-.059.443-.075.185-.016.418-.022.698-.022.302 0 .549.007.737.022.19.016.338.043.444.08.105.038.179.09.22.155a.764.764 0 0 1 .097.234l2.008 7.485.022.136.023-.136 1.884-7.485a.616.616 0 0 1 .107-.234.49.49 0 0 1 .22-.154 1.64 1.64 0 0 1 .416-.081c.177-.016.405-.022.686-.022.28 0 .508.01.681.028.174.02.313.047.413.08.103.035.175.08.217.137.04.058.073.124.095.2l2.02 7.54.035.127.022-.136 1.929-7.485a.561.561 0 0 1 .09-.234.449.449 0 0 1 .228-.154c.106-.038.249-.065.431-.081a8.48 8.48 0 0 1 .693-.022zm-19.208-.002c.28 0 .51.012.693.034.181.023.327.057.437.097.11.04.187.092.232.148a.314.314 0 0 1 .068.2v10.17a.314.314 0 0 1-.068.2.497.497 0 0 1-.232.142c-.11.038-.256.066-.437.086-.182.02-.413.029-.693.029-.28 0-.51-.01-.692-.029a2.036 2.036 0 0 1-.436-.086.508.508 0 0 1-.233-.142.308.308 0 0 1-.068-.2v-10.17c0-.074.021-.142.068-.2a.535.535 0 0 1 .233-.148c.11-.041.255-.074.436-.097a5.91 5.91 0 0 1 .692-.034zm24.652 0c.28 0 .51.012.692.034.18.023.327.057.437.097a.537.537 0 0 1 .232.148.314.314 0 0 1 .068.2v10.17a.314.314 0 0 1-.068.2.502.502 0 0 1-.232.142 2.13 2.13 0 0 1-.437.086c-.182.02-.413.029-.692.029-.281 0-.51-.01-.694-.029a2.048 2.048 0 0 1-.436-.086.505.505 0 0 1-.232-.142.313.313 0 0 1-.068-.2v-10.17c0-.074.022-.142.068-.2a.523.523 0 0 1 .232-.148c.11-.041.256-.074.436-.097.182-.022.413-.034.694-.034zm6.52-4.867c.28 0 .51.01.693.033.183.023.327.056.436.097.11.042.188.094.234.154a.34.34 0 0 1 .068.206v15.025a.314.314 0 0 1-.068.2.5.5 0 0 1-.234.143 2.095 2.095 0 0 1-.436.086c-.182.02-.412.029-.693.029-.28 0-.51-.01-.691-.029a2.058 2.058 0 0 1-.437-.086.505.505 0 0 1-.233-.142.308.308 0 0 1-.068-.2v-15.026c0-.075.022-.144.068-.206a.512.512 0 0 1 .233-.154 1.93 1.93 0 0 1 .437-.097 5.71 5.71 0 0 1 .691-.033zm6.522 0c.281 0 .51.01.693.033.181.023.327.056.436.097a.517.517 0 0 1 .233.154c.045.061.067.13.067.206v15.025a.314.314 0 0 1-.067.2.502.502 0 0 1-.233.143c-.11.038-.255.066-.436.086-.181.02-.412.029-.693.029-.28 0-.51-.01-.693-.029a2.048 2.048 0 0 1-.436-.086.505.505 0 0 1-.232-.142.313.313 0 0 1-.068-.2v-15.026c0-.075.022-.144.068-.206a.512.512 0 0 1 .232-.154 1.92 1.92 0 0 1 .436-.097c.182-.022.413-.033.693-.033zm6.52 4.867c.282 0 .511.012.694.034.18.023.326.057.436.097.11.04.188.092.233.148a.314.314 0 0 1 .068.2v10.17a.314.314 0 0 1-.068.2.5.5 0 0 1-.233.142 2.12 2.12 0 0 1-.436.086c-.182.02-.412.029-.693.029-.28 0-.51-.01-.692-.029a2.048 2.048 0 0 1-.436-.086.503.503 0 0 1-.234-.142.313.313 0 0 1-.068-.2v-10.17c0-.074.023-.142.068-.2a.522.522 0 0 1 .234-.148c.109-.041.255-.074.436-.097.181-.022.412-.034.692-.034zm35.397-.195c.688 0 1.268.115 1.74.343.474.228.855.54 1.147.932.293.392.502.85.63 1.376.128.526.193 1.159.193 1.897v6.295a.314.314 0 0 1-.069.2.5.5 0 0 1-.227.143 2.01 2.01 0 0 1-.436.086c-.185.02-.415.029-.688.029-.28 0-.51-.01-.697-.029a1.955 1.955 0 0 1-.437-.086.505.505 0 0 1-.226-.142.307.307 0 0 1-.068-.2v-5.816c0-.495-.037-.883-.109-1.165a2.284 2.284 0 0 0-.312-.725 1.381 1.381 0 0 0-.527-.47 1.644 1.644 0 0 0-.755-.165c-.362 0-.73.133-1.1.4-.371.267-.757.655-1.158 1.165v6.775a.314.314 0 0 1-.067.2.502.502 0 0 1-.233.143 2.13 2.13 0 0 1-.437.086c-.181.02-.412.029-.692.029-.28 0-.51-.01-.693-.029a2.048 2.048 0 0 1-.436-.086.505.505 0 0 1-.233-.142.313.313 0 0 1-.068-.2v-10.193a.36.36 0 0 1 .057-.2.416.416 0 0 1 .204-.143 1.71 1.71 0 0 1 .38-.085c.155-.02.35-.029.586-.029.241 0 .441.01.6.029.159.019.283.047.369.085.087.04.15.086.187.143a.35.35 0 0 1 .056.2v1.177c.56-.61 1.13-1.066 1.708-1.371a3.842 3.842 0 0 1 1.81-.457zm-97.497-.002c.098 0 .204.006.318.018.114.012.23.03.352.057.122.027.228.057.318.092.092.035.158.07.2.109.041.037.071.08.091.125.02.046.036.11.051.19s.026.199.035.359c.002.16.006.378.006.652s-.008.498-.022.673a2.138 2.138 0 0 1-.068.412.416.416 0 0 1-.12.206.305.305 0 0 1-.187.056.654.654 0 0 1-.204-.04 4.537 4.537 0 0 0-.568-.172 1.59 1.59 0 0 0-.374-.04 1.27 1.27 0 0 0-.477.097 2.024 2.024 0 0 0-.493.304c-.17.136-.349.32-.534.548-.184.228-.383.51-.595.845v6.353a.314.314 0 0 1-.068.2.497.497 0 0 1-.233.143c-.11.037-.255.065-.437.086-.181.019-.412.028-.692.028-.28 0-.51-.01-.692-.028a2.036 2.036 0 0 1-.436-.086.5.5 0 0 1-.232-.143.313.313 0 0 1-.069-.2v-10.193a.36.36 0 0 1 .057-.2.423.423 0 0 1 .205-.143c.098-.038.225-.065.38-.085.155-.02.35-.028.585-.028.242 0 .442.01.602.028.159.02.282.047.368.085.087.04.15.086.188.144a.35.35 0 0 1 .056.199v1.27a8 8 0 0 1 .75-.943 4.33 4.33 0 0 1 .67-.59c.21-.144.423-.246.634-.301.212-.057.424-.087.635-.087zm-8.646-3.553c.068 0 .129.02.182.063.052.042.1.111.141.206.042.095.072.222.091.382.02.16.028.356.028.585 0 .229-.009.42-.028.576-.019.157-.049.282-.09.372a.585.585 0 0 1-.142.206.27.27 0 0 1-.182.069h-4.8v3.976h4.506a.3.3 0 0 1 .18.057.47.47 0 0 1 .142.193c.041.092.072.213.091.366.019.153.028.342.028.57 0 .23-.01.42-.028.573-.02.152-.05.278-.09.376a.514.514 0 0 1-.143.21.278.278 0 0 1-.18.064h-4.506v5.507a.35.35 0 0 1-.067.217.508.508 0 0 1-.245.153c-.118.042-.27.074-.46.097a6.251 6.251 0 0 1-.726.035c-.287 0-.528-.012-.72-.035a2.127 2.127 0 0 1-.46-.097.544.544 0 0 1-.244-.153.335.335 0 0 1-.074-.217V276.37c0-.336.085-.577.255-.726.171-.149.38-.223.63-.223h6.911zm79.561 5.589c-.28 0-.525.048-.738.142a1.482 1.482 0 0 0-.527.39 1.622 1.622 0 0 0-.312.57 2.253 2.253 0 0 0-.103.68c0 .518.152.928.455 1.229.302.3.722.45 1.26.45.287 0 .536-.045.748-.136.212-.092.388-.216.528-.377.139-.16.246-.344.318-.554.07-.21.107-.43.107-.657 0-.55-.15-.975-.453-1.28-.304-.305-.73-.457-1.283-.457zm-62.467 0c-.362 0-.678.068-.947.206a1.93 1.93 0 0 0-.669.554 2.53 2.53 0 0 0-.409.822 4.189 4.189 0 0 0-.165 1.01h4.267c.022-.806-.137-1.44-.482-1.9-.344-.46-.875-.692-1.595-.692zm75.082 0c-.363 0-.679.068-.948.206a1.938 1.938 0 0 0-.669.554 2.52 2.52 0 0 0-.408.822c-.094.316-.15.654-.165 1.01h4.267c.021-.806-.139-1.44-.483-1.9-.344-.46-.876-.692-1.594-.692zm-65.634-6.318c.635 0 1.067.108 1.294.325.227.217.34.604.34 1.16 0 .58-.116.978-.35 1.2-.235.221-.67.33-1.306.33-.643 0-1.077-.105-1.3-.32-.223-.212-.334-.597-.334-1.154 0-.578.115-.98.346-1.204.23-.225.666-.337 1.31-.337zm24.652 0c.635 0 1.067.108 1.294.325.227.217.342.604.342 1.16 0 .58-.118.978-.353 1.2-.235.221-.67.33-1.305.33-.643 0-1.077-.105-1.3-.32-.223-.212-.334-.597-.334-1.154 0-.578.115-.98.346-1.204.23-.225.667-.337 1.31-.337zm19.564 0c.635 0 1.066.108 1.293.325.227.217.342.604.342 1.16 0 .58-.117.978-.352 1.2-.235.221-.67.33-1.305.33-.644 0-1.077-.105-1.3-.32-.223-.213-.334-.597-.334-1.154 0-.578.114-.98.346-1.204.23-.225.667-.337 1.31-.337zM360.959 306.465c.28 0 .51.01.692.027.181.02.327.049.437.086a.518.518 0 0 1 .232.143.314.314 0 0 1 .068.2v5.759c0 .533.034.941.102 1.223.067.281.172.523.312.725.14.202.318.36.534.47.214.109.467.165.754.165.363 0 .728-.134 1.095-.4.367-.267.759-.656 1.175-1.166v-6.775c0-.076.02-.142.062-.2a.465.465 0 0 1 .227-.143c.11-.037.255-.066.437-.086.181-.019.411-.027.692-.027.28 0 .51.009.692.027.182.02.325.049.432.086a.516.516 0 0 1 .227.143.314.314 0 0 1 .068.2v10.19c0 .077-.018.144-.056.2a.411.411 0 0 1-.199.143c-.094.039-.22.067-.374.086-.155.02-.35.029-.585.029-.25 0-.451-.01-.608-.029a1.413 1.413 0 0 1-.367-.086.404.404 0 0 1-.193-.142.344.344 0 0 1-.057-.2v-1.177c-.559.61-1.128 1.066-1.707 1.371a3.82 3.82 0 0 1-1.799.457c-.696 0-1.28-.114-1.753-.343a3.04 3.04 0 0 1-1.146-.936 3.783 3.783 0 0 1-.625-1.378c-.126-.521-.187-1.17-.187-1.947v-6.239a.34.34 0 0 1 .061-.2.47.47 0 0 1 .227-.143 2.13 2.13 0 0 1 .443-.086c.185-.019.414-.027.687-.027zm-40.53-.199c.848 0 1.572.127 2.173.377.603.252 1.096.6 1.482 1.047.386.444.669.972.851 1.581.182.61.273 1.273.273 1.988v.46h-.003c0 .35-.077.61-.233.778-.155.167-.367.25-.64.25h-6.163c0 .435.052.828.154 1.183.102.354.264.655.488.902.223.248.51.437.863.566.351.13.773.195 1.265.195.5 0 .938-.037 1.316-.109a8.71 8.71 0 0 0 .981-.24c.277-.088.506-.168.687-.24a1.25 1.25 0 0 1 .443-.109c.067 0 .125.014.17.04a.301.301 0 0 1 .114.142c.029.069.05.167.06.292.014.125.019.284.019.475 0 .167-.005.31-.01.428-.01.118-.02.218-.035.302a.738.738 0 0 1-.069.212.789.789 0 0 1-.119.165c-.05.054-.183.126-.402.218-.22.091-.5.18-.84.268-.34.088-.73.165-1.17.229a9.739 9.739 0 0 1-1.406.096c-.9 0-1.69-.114-2.366-.342-.677-.23-1.242-.576-1.696-1.04-.454-.465-.792-1.051-1.016-1.76-.223-.709-.334-1.54-.334-2.49 0-.908.117-1.725.352-2.453.234-.727.575-1.343 1.022-1.85.446-.507.989-.894 1.628-1.16.638-.267 1.36-.4 2.162-.4zm23.128-2.486c.281 0 .513.01.699.028.186.018.33.05.436.091a.52.52 0 0 1 .227.155c.045.06.068.13.068.207v2.273h2.202c.075 0 .142.019.198.056.057.039.104.1.143.19.037.087.065.207.084.359.02.153.03.34.03.56 0 .419-.04.718-.114.896-.077.18-.187.269-.33.269h-2.213v4.786c0 .556.087.973.26 1.252.174.278.485.418.931.418.15 0 .287-.014.409-.04.12-.027.229-.058.322-.093.095-.035.175-.064.24-.092a.45.45 0 0 1 .175-.04c.046 0 .089.014.13.04.042.027.075.08.097.16a3.383 3.383 0 0 1 .094.852c0 .335-.022.592-.064.771-.041.18-.095.306-.164.378a.923.923 0 0 1-.302.194 2.86 2.86 0 0 1-.465.148c-.178.042-.37.074-.58.097a5.757 5.757 0 0 1-.629.034c-.567 0-1.058-.073-1.474-.217a2.442 2.442 0 0 1-1.033-.668c-.272-.3-.473-.68-.601-1.137-.13-.456-.194-.998-.194-1.622v-5.221h-1.213c-.145 0-.254-.09-.33-.269-.075-.178-.114-.477-.114-.896 0-.22.01-.407.029-.56.019-.152.048-.272.085-.36a.429.429 0 0 1 .142-.189.353.353 0 0 1 .199-.056h1.202v-2.273c0-.077.021-.146.062-.207a.485.485 0 0 1 .227-.155c.11-.04.257-.072.443-.091.186-.02.414-.028.686-.028zm-9.23 2.49c.689 0 1.268.114 1.742.341.473.229.854.54 1.146.932.291.393.501.853.63 1.378.127.525.193 1.158.193 1.896v6.295h-.002a.306.306 0 0 1-.068.2.49.49 0 0 1-.226.143 1.935 1.935 0 0 1-.438.086c-.185.02-.413.029-.686.029a7.3 7.3 0 0 1-.699-.029 1.837 1.837 0 0 1-.436-.086.488.488 0 0 1-.227-.142.31.31 0 0 1-.068-.2v-5.816c0-.494-.035-.883-.107-1.164a2.321 2.321 0 0 0-.312-.727 1.403 1.403 0 0 0-.528-.468 1.632 1.632 0 0 0-.755-.166c-.363 0-.73.133-1.1.4-.372.267-.758.656-1.157 1.165v6.775a.31.31 0 0 1-.069.2.489.489 0 0 1-.233.143 1.981 1.981 0 0 1-.436.086c-.182.02-.412.029-.692.029-.281 0-.51-.01-.692-.029a2.002 2.002 0 0 1-.437-.086.49.49 0 0 1-.233-.142.306.306 0 0 1-.068-.2V306.92c0-.075.019-.141.056-.2a.414.414 0 0 1 .206-.143c.097-.037.224-.065.38-.086.155-.019.349-.027.584-.027.243 0 .442.01.602.027.159.02.281.049.367.086a.432.432 0 0 1 .189.143.361.361 0 0 1 .056.2v1.178c.56-.61 1.129-1.067 1.709-1.372a3.845 3.845 0 0 1 1.81-.457zm44.413 0c.416 0 .79.043 1.123.13.333.089.63.214.89.379.261.163.486.36.675.588.19.228.35.483.477.765.303-.327.599-.609.89-.846.291-.236.58-.428.862-.576.284-.149.567-.259.852-.332.283-.072.573-.108.867-.108.674 0 1.241.114 1.704.342.46.229.833.54 1.117.932.283.393.485.853.607 1.378.12.525.181 1.082.181 1.667v6.523a.31.31 0 0 1-.069.2.493.493 0 0 1-.227.143 1.88 1.88 0 0 1-.431.086c-.181.02-.413.029-.693.029-.287 0-.522-.01-.704-.029a2.004 2.004 0 0 1-.436-.086.457.457 0 0 1-.227-.142.334.334 0 0 1-.061-.2v-6.044c0-.343-.032-.655-.097-.936a2.205 2.205 0 0 0-.294-.727 1.408 1.408 0 0 0-.5-.468 1.473 1.473 0 0 0-.72-.166c-.34 0-.685.133-1.034.4-.348.267-.726.656-1.134 1.165v6.775a.306.306 0 0 1-.068.2.491.491 0 0 1-.232.143c-.11.039-.256.067-.438.086-.18.02-.408.029-.68.029-.28 0-.51-.01-.693-.029a2.014 2.014 0 0 1-.436-.086.49.49 0 0 1-.233-.142.31.31 0 0 1-.068-.2v-6.044c0-.343-.032-.655-.096-.936a2.304 2.304 0 0 0-.29-.727 1.341 1.341 0 0 0-.498-.468 1.484 1.484 0 0 0-.716-.166c-.347 0-.696.133-1.043.4-.349.267-.723.656-1.123 1.165v6.775a.31.31 0 0 1-.068.2.498.498 0 0 1-.233.143 1.981 1.981 0 0 1-.436.086 6.83 6.83 0 0 1-.693.029c-.28 0-.51-.01-.691-.029a2.002 2.002 0 0 1-.437-.086.49.49 0 0 1-.233-.142.306.306 0 0 1-.068-.2V306.92c0-.075.019-.141.056-.2a.414.414 0 0 1 .206-.143c.097-.037.224-.065.38-.086.155-.019.349-.027.583-.027.244 0 .443.01.603.027.159.02.281.049.367.086a.429.429 0 0 1 .188.143.354.354 0 0 1 .056.2v1.178c.56-.61 1.117-1.067 1.674-1.372a3.586 3.586 0 0 1 1.742-.457zm-23.088-.003a3.338 3.338 0 0 1 .67.075c.12.026.226.057.317.092.092.034.157.07.2.108.04.038.07.08.09.126.019.046.036.109.052.188.015.08.026.2.033.36.008.162.01.379.01.653s-.007.5-.022.673a2.198 2.198 0 0 1-.068.412c-.03.098-.07.168-.12.205a.293.293 0 0 1-.187.058.633.633 0 0 1-.204-.04 4.56 4.56 0 0 0-.567-.172 1.651 1.651 0 0 0-.375-.04c-.16 0-.318.032-.476.097a2.012 2.012 0 0 0-.493.301 3.65 3.65 0 0 0-.534.55 8.658 8.658 0 0 0-.595.845v6.352a.31.31 0 0 1-.068.2.503.503 0 0 1-.233.143c-.11.039-.255.067-.436.086-.182.02-.413.029-.693.029-.28 0-.51-.01-.692-.029a2.014 2.014 0 0 1-.437-.086.49.49 0 0 1-.233-.142.31.31 0 0 1-.068-.2v-10.192c0-.076.019-.142.057-.2a.415.415 0 0 1 .205-.143c.097-.038.224-.066.38-.086.155-.02.35-.028.584-.028.243 0 .443.01.602.028.159.019.282.048.367.086.088.038.15.087.189.142a.354.354 0 0 1 .056.2v1.27c.264-.382.513-.696.748-.944.235-.247.458-.442.67-.588.21-.144.423-.246.635-.303.211-.056.423-.086.636-.086zm-43.768-3.551c.31 0 .54.08.688.24.147.161.22.385.22.674v.56c0 .206-.01.383-.028.53-.019.15-.053.294-.101.435-.05.141-.117.286-.2.436-.083.148-.188.325-.317.531l-5.606 8.97h6.14c.143 0 .252.091.328.274.077.181.115.498.115.947 0 .221-.01.407-.028.56-.019.151-.048.276-.085.37a.423.423 0 0 1-.142.201.334.334 0 0 1-.187.057h-8.658c-.303 0-.535-.088-.699-.263-.162-.174-.244-.43-.244-.765v-.503c0-.152.01-.291.028-.416.02-.127.052-.254.096-.384.045-.13.111-.27.199-.422.088-.153.195-.336.323-.55l5.696-9.094h-5.65a.416.416 0 0 1-.234-.062.451.451 0 0 1-.16-.2 1.308 1.308 0 0 1-.09-.365 4.539 4.539 0 0 1-.028-.55c0-.228.009-.42.027-.577.02-.156.05-.282.092-.376a.413.413 0 0 1 .159-.2.447.447 0 0 1 .233-.058h8.113zm8.476 5.587c-.363 0-.68.069-.948.207a1.931 1.931 0 0 0-.67.553 2.53 2.53 0 0 0-.407.823 4.181 4.181 0 0 0-.166 1.01h4.267l.001-.236c-.012-.695-.173-1.25-.483-1.665-.344-.461-.876-.692-1.594-.692zM326.964 333.609c.318 0 .623.019.913.056.292.04.562.093.813.16h3.21c.13 0 .233.085.313.252.08.166.118.449.118.844 0 .365-.041.636-.124.811-.084.175-.186.263-.307.263h-1.192c.166.183.285.39.358.623.07.233.107.474.107.726 0 .594-.098 1.121-.294 1.581-.197.461-.478.85-.846 1.166-.368.315-.81.555-1.328.72a5.721 5.721 0 0 1-1.73.245c-.325 0-.635-.04-.93-.12-.296-.08-.522-.172-.681-.28a1.633 1.633 0 0 0-.244.355.967.967 0 0 0-.109.457c0 .22.097.4.29.542.193.141.464.22.811.235l2.463.092a5.858 5.858 0 0 1 1.537.246c.45.14.829.338 1.135.594.307.255.541.561.704.919.162.36.243.766.243 1.223 0 .503-.109.976-.328 1.423-.22.445-.548.832-.987 1.16-.439.327-.99.587-1.652.777-.662.19-1.434.285-2.32.285-.863 0-1.598-.068-2.208-.205-.609-.138-1.108-.328-1.497-.572-.389-.244-.673-.535-.852-.874a2.371 2.371 0 0 1-.266-1.114 2.644 2.644 0 0 1 .38-1.377 3.47 3.47 0 0 1 .46-.6 4.9 4.9 0 0 1 .624-.548 1.9 1.9 0 0 1-1.021-1.703 2.5 2.5 0 0 1 .306-1.228c.205-.37.47-.704.795-1a3.026 3.026 0 0 1-.636-.96c-.159-.374-.238-.837-.238-1.393 0-.594.104-1.125.313-1.595.208-.469.496-.863.867-1.188.37-.323.814-.57 1.328-.742a5.36 5.36 0 0 1 1.702-.256zm57.56 0a6.425 6.425 0 0 1 1.726.217h3.211c.128 0 .233.084.313.25.078.167.118.45.118.845 0 .365-.042.636-.125.811-.084.176-.186.263-.307.263h-1.191c.167.183.285.39.358.623.071.233.108.474.108.726 0 .594-.099 1.121-.295 1.581-.197.461-.478.85-.846 1.166-.366.316-.81.555-1.328.72a5.727 5.727 0 0 1-1.73.245c-.324 0-.636-.04-.93-.12-.295-.08-.522-.172-.682-.28-.09.099-.171.217-.244.355a.967.967 0 0 0-.107.457c0 .22.096.4.289.542.193.141.463.22.812.235l2.463.092a5.858 5.858 0 0 1 1.537.246c.45.142.828.338 1.134.594.307.255.542.561.703.919.163.36.245.766.245 1.223 0 .503-.11.976-.33 1.423a3.221 3.221 0 0 1-.986 1.16c-.438.327-.989.587-1.651.777-.662.19-1.435.285-2.321.285-.862 0-1.598-.068-2.208-.205-.608-.138-1.108-.328-1.497-.572-.388-.244-.674-.535-.852-.874a2.371 2.371 0 0 1-.266-1.114c0-.251.032-.492.096-.72.064-.228.159-.448.283-.657a3.42 3.42 0 0 1 .46-.6c.181-.19.39-.372.625-.548a1.905 1.905 0 0 1-1.021-1.703 2.5 2.5 0 0 1 .306-1.228c.204-.37.47-.704.794-1a3.023 3.023 0 0 1-.635-.96c-.16-.374-.238-.837-.238-1.393 0-.594.103-1.125.311-1.595.208-.469.498-.863.869-1.188.37-.323.813-.57 1.328-.742a5.36 5.36 0 0 1 1.701-.256zm-58.751 10.716a2.976 2.976 0 0 0-.47.418c-.119.134-.213.261-.284.383-.073.121-.12.24-.142.354a1.822 1.822 0 0 0-.034.354c0 .38.19.67.574.868.381.199.92.298 1.616.298a3.9 3.9 0 0 0 1.089-.132 2.11 2.11 0 0 0 .715-.348c.181-.146.31-.308.386-.487.075-.18.112-.368.112-.565 0-.343-.135-.606-.407-.789-.273-.183-.648-.282-1.124-.296l-2.031-.058zm57.56 0a2.63 2.63 0 0 0-.755.8c-.072.122-.12.241-.141.355a1.822 1.822 0 0 0-.035.354c0 .38.19.67.573.868.383.199.921.298 1.617.298a3.9 3.9 0 0 0 1.09-.132c.295-.088.533-.205.714-.348.182-.146.31-.308.386-.487.076-.18.114-.368.114-.565 0-.343-.135-.606-.409-.789-.272-.183-.647-.282-1.123-.296l-2.03-.058zm-72.048-10.568c.28 0 .51.01.691.028.182.02.327.048.438.085.109.04.186.087.231.144a.307.307 0 0 1 .069.2v5.758c0 .534.033.94.101 1.223.068.282.172.524.313.726.14.202.318.358.533.468.215.11.468.166.755.166.362 0 .728-.133 1.095-.4.367-.266.758-.655 1.174-1.165v-6.776c0-.075.021-.142.062-.2a.477.477 0 0 1 .227-.143c.11-.037.255-.065.437-.085.182-.02.412-.028.692-.028.28 0 .51.01.693.028.181.02.325.048.432.085.105.04.181.087.227.144a.311.311 0 0 1 .067.199v10.19c0 .077-.018.144-.055.201a.41.41 0 0 1-.198.143 1.56 1.56 0 0 1-.376.086c-.154.019-.35.028-.585.028-.248 0-.451-.01-.606-.028a1.42 1.42 0 0 1-.37-.086.42.42 0 0 1-.192-.143.352.352 0 0 1-.056-.2v-1.177c-.56.61-1.13 1.067-1.708 1.37a3.815 3.815 0 0 1-1.799.458c-.695 0-1.28-.114-1.753-.343a3.032 3.032 0 0 1-1.146-.936c-.29-.397-.5-.856-.625-1.377s-.187-1.172-.187-1.948v-6.239c0-.075.02-.142.062-.2a.466.466 0 0 1 .228-.143c.109-.037.257-.065.441-.085.185-.02.415-.028.688-.028zm27.33-.197c.319 0 .627.022.926.068.3.046.57.102.812.172.243.067.446.142.613.222.167.08.285.149.358.207a.547.547 0 0 1 .221.377c.016.08.028.18.04.298a6.18 6.18 0 0 1 0 .942c-.012.13-.03.232-.056.309-.026.075-.063.128-.108.154a.306.306 0 0 1-.16.039c-.067 0-.173-.04-.317-.12a6.4 6.4 0 0 0-1.288-.514 3.6 3.6 0 0 0-.97-.12c-.257 0-.48.028-.669.08-.19.054-.344.13-.466.23a.965.965 0 0 0-.363.777c0 .236.071.434.215.593.143.16.332.301.568.423.234.123.5.236.799.343.299.107.602.222.908.348.307.126.61.273.908.44.299.168.565.374.8.617.235.244.424.535.568.874.14.34.212.742.212 1.206 0 .579-.108 1.089-.323 1.532-.215.44-.52.81-.914 1.107-.393.298-.858.52-1.395.669a6.554 6.554 0 0 1-1.748.222 6.693 6.693 0 0 1-2.008-.303 4.728 4.728 0 0 1-.682-.268 1.696 1.696 0 0 1-.397-.257c-.084-.08-.148-.206-.193-.376-.045-.172-.068-.425-.068-.76 0-.22.008-.4.023-.532a1.31 1.31 0 0 1 .068-.32c.03-.08.068-.134.113-.16a.33.33 0 0 1 .17-.04c.084 0 .207.047.369.142.162.096.364.2.607.315.242.114.524.22.846.32.322.099.686.15 1.095.15.257 0 .485-.027.687-.081.2-.054.374-.13.522-.229a.967.967 0 0 0 .333-.377 1.16 1.16 0 0 0 .114-.526.879.879 0 0 0-.209-.588 1.863 1.863 0 0 0-.556-.429 6.22 6.22 0 0 0-.783-.343c-.29-.106-.59-.224-.896-.355a8.164 8.164 0 0 1-.895-.444 3.45 3.45 0 0 1-.784-.617 2.791 2.791 0 0 1-.555-.88c-.14-.343-.21-.754-.21-1.234 0-.488.094-.935.283-1.344.19-.406.462-.755.817-1.045a3.867 3.867 0 0 1 1.299-.674c.51-.16 1.084-.24 1.72-.24zm7.938-4.672c.28 0 .51.011.692.034.182.022.327.056.437.097.11.041.187.093.233.154a.34.34 0 0 1 .068.205v5.634c.257-.26.513-.48.772-.664.257-.182.513-.332.771-.45s.523-.204.795-.257c.273-.054.56-.08.862-.08.749 0 1.384.15 1.907.45.523.302.947.707 1.276 1.217.33.512.57 1.107.722 1.788.151.685.228 1.402.228 2.155 0 .908-.1 1.723-.296 2.446-.197.724-.48 1.34-.852 1.85-.371.51-.825.902-1.367 1.177-.541.274-1.155.411-1.844.411-.34 0-.658-.032-.953-.097a3.18 3.18 0 0 1-.846-.314 4.453 4.453 0 0 1-.793-.55 7.394 7.394 0 0 1-.802-.799v1.109c0 .084-.02.155-.061.211a.455.455 0 0 1-.205.142c-.094.038-.22.065-.38.08a6.11 6.11 0 0 1-.58.023c-.234 0-.429-.008-.584-.023a1.347 1.347 0 0 1-.374-.08.412.412 0 0 1-.2-.142.38.38 0 0 1-.056-.211v-15.026c0-.075.022-.143.069-.205a.51.51 0 0 1 .233-.154c.109-.042.254-.075.436-.097.18-.023.411-.034.692-.034zm13.216 4.869c.281 0 .511.01.694.028.181.02.326.048.436.085.109.04.187.087.232.144a.312.312 0 0 1 .068.2v5.758c0 .534.035.94.102 1.223.068.282.172.524.313.726.14.202.317.358.533.468.215.11.467.166.755.166.363 0 .727-.133 1.094-.4.367-.267.759-.655 1.175-1.165v-6.776c0-.075.02-.142.062-.2a.468.468 0 0 1 .228-.143c.109-.037.254-.065.436-.085.181-.02.412-.028.693-.028.279 0 .51.01.691.028.182.02.325.048.431.085.107.04.182.087.228.144a.312.312 0 0 1 .068.199v10.19c0 .077-.018.144-.056.201a.408.408 0 0 1-.199.143 1.55 1.55 0 0 1-.374.086c-.155.019-.35.028-.584.028-.25 0-.452-.01-.608-.028a1.469 1.469 0 0 1-.369-.086.416.416 0 0 1-.192-.143.352.352 0 0 1-.056-.2v-1.177c-.56.61-1.13 1.067-1.708 1.37a3.82 3.82 0 0 1-1.799.458c-.697 0-1.28-.114-1.753-.343a3.032 3.032 0 0 1-1.146-.936 3.77 3.77 0 0 1-.625-1.377c-.126-.521-.188-1.172-.188-1.948v-6.239c0-.075.021-.142.062-.2a.477.477 0 0 1 .227-.143c.11-.037.257-.065.444-.085.185-.02.413-.028.685-.028zm-59.25-3.817c.446 0 .802.005 1.068.017.264.011.471.039.617.08a.599.599 0 0 1 .32.188c.063.085.118.199.164.343l4.538 13.106c.09.274.147.49.17.65.024.16-.007.281-.09.36-.085.081-.23.132-.442.15-.213.019-.505.028-.875.028-.386 0-.686-.005-.901-.018a2.215 2.215 0 0 1-.494-.068.459.459 0 0 1-.24-.142.768.768 0 0 1-.112-.241l-.988-2.97h-5.514l-.93 2.89a.905.905 0 0 1-.12.27.49.49 0 0 1-.239.17c-.109.042-.265.07-.466.086-.2.016-.463.023-.788.023-.347 0-.62-.012-.817-.035-.196-.022-.332-.077-.408-.165-.075-.088-.101-.211-.079-.371.022-.16.08-.374.17-.64l4.528-13.117c.045-.13.098-.234.159-.314.06-.08.157-.141.289-.183.132-.041.317-.069.55-.08.234-.012.545-.017.93-.017zm76.304 3.62a3.062 3.062 0 0 1 .67.074c.12.027.226.057.318.092.091.034.156.07.198.108.042.038.072.08.092.126.019.045.035.109.05.19.016.079.027.198.034.359.007.16.011.377.011.652 0 .274-.008.5-.022.674a2.07 2.07 0 0 1-.069.411.409.409 0 0 1-.119.206.295.295 0 0 1-.188.057.633.633 0 0 1-.204-.04c-.075-.026-.16-.056-.254-.086a4.538 4.538 0 0 0-.313-.086 1.593 1.593 0 0 0-.374-.04c-.159 0-.318.031-.477.096a2.047 2.047 0 0 0-.493.303 3.65 3.65 0 0 0-.533.549 8.817 8.817 0 0 0-.596.846v6.352a.314.314 0 0 1-.068.2.5.5 0 0 1-.233.143 2.06 2.06 0 0 1-.436.086c-.182.02-.413.028-.692.028-.281 0-.51-.01-.693-.028a2.048 2.048 0 0 1-.436-.086.508.508 0 0 1-.234-.143.313.313 0 0 1-.068-.2V334.21c0-.075.02-.141.057-.199a.422.422 0 0 1 .205-.144 1.71 1.71 0 0 1 .38-.085c.155-.019.35-.028.584-.028.243 0 .443.01.602.028.159.02.282.048.368.085a.43.43 0 0 1 .188.144.35.35 0 0 1 .056.2v1.268c.265-.38.514-.694.748-.942.235-.248.458-.443.67-.588a2.05 2.05 0 0 1 .635-.303c.212-.058.423-.086.636-.086zm-26.48 2.459c-.188 0-.372.026-.554.08a2.086 2.086 0 0 0-.561.274c-.194.13-.393.297-.596.503-.206.205-.42.46-.647.765v3.382c.4.518.785.912 1.152 1.182.367.27.75.406 1.152.406.37 0 .685-.095.942-.285.257-.19.471-.438.64-.743.172-.304.293-.651.37-1.04a6.2 6.2 0 0 0 .112-1.166 8.06 8.06 0 0 0-.096-1.257 3.625 3.625 0 0 0-.334-1.073 2.07 2.07 0 0 0-.62-.749c-.252-.186-.573-.28-.96-.28zm-49.858-3.189h-.011l-2.077 6.285h4.165l-2.077-6.285zm26.446 2.765c-.28 0-.526.049-.738.143a1.482 1.482 0 0 0-.527.389c-.14.163-.245.354-.313.571a2.254 2.254 0 0 0-.102.68c0 .517.152.927.454 1.228.302.301.723.451 1.26.451.287 0 .537-.046.749-.136.21-.093.388-.217.528-.377.139-.16.246-.345.318-.554.07-.21.106-.43.106-.659 0-.548-.15-.974-.454-1.279-.302-.304-.73-.457-1.281-.457zm57.56 0a1.8 1.8 0 0 0-.738.143 1.486 1.486 0 0 0-.529.389 1.629 1.629 0 0 0-.311.571 2.254 2.254 0 0 0-.102.68c0 .517.15.927.453 1.228.303.301.722.451 1.26.451.287 0 .537-.046.75-.136a1.47 1.47 0 0 0 .526-.377c.14-.16.247-.345.318-.554.072-.21.109-.43.109-.659 0-.548-.151-.974-.455-1.279-.302-.304-.73-.457-1.281-.457z"/><path d="M289.505 151.265c-.088.27-.03.629.059.867.624.149.654 1.135 1.394 1.315.06.178.12.357.358.417.356-.417.444.328.681.449-.325.865 1.129.657.566 1.524.355.12.295.716.74.807.03.568.712.597.564 1.195.654.209.21 1.582 1.04 1.254-.298.508.355.48.504.687 1.157-.329 1.483 1.017 2.612 1.017.86.298 1.217 1.075 2.078 1.224.238.568 1.246-.06 1.186.837.743.149.297 1.195 1.041 1.164.117.42.473.689.711 1.047.297-.329.385.24.772.061.117.27.179.628.563.686.503-.507.831.09 1.159.388.177-.09.446-.239.385-.478l-.029-.178c.118.21.327.418.622.178.445.808 1.01 1.554 1.811 2.032-.058.358.418.358.507.627l.236-.059c-.057.148 0 .507.12.658.355.597 1.245.477 1.75.957.475-.51.743.267 1.216.357.3.27.358.897.892.807-.12.749.771.749 1.187.986l.179-.03c-.326.328.237.36.264.537.18.656.18 1.346 1.04 1.584.478-.09.653.298 1.128.388l-.12.33c.297.268.861.238.803.716.653.06.118.657.476.896.385.629 1.66.059 1.365 1.135.356.032.088.747.561.45-.176 1.253 1.278 1.642 1.278 2.747.148.061.266.27.445.21l.088-.149c-.088.148-.146.268-.088.418.088.238.386-.12.533.089-.177.567.624.418.774.778.326-.36 1.069.776.948-.27.327.148-.178.896.475.956.15.568.715.629.951 1.167.623.179.118.536.474.865-.058.12.031.27.06.388.207.15.416.21.711.12-.385.657-.147 1.286.297 1.824.505-.15.713.447 1.127.685-.267.15.148.45.24.657.324.241.473.717.948.717.475.42.743.987 1.215 1.406.21.388.446.568.625.806.593.656.802 1.344.624 2.15.147.628.712 1.017.652 1.615l1.277 1.074c-.06.12-.207.3-.06.39.566.118.833.508.951 1.075-.296.298.296.538.296.955-.059.33.238.449.475.42.089-.061.178-.12.268-.09-.18.179-.18.418-.18.626.596-.178.27.748.835.78.413.088 1.096.327 1.422-.032.682.418 0 1.853.95 2.062.327.21.98.06.892.597.03.537.83.3.74.927.24.598.893.656.862 1.314.208.388.177.926.445 1.315.652.119.98.747 1.483 1.106 0 .298-.296.537-.03.836h.12c.058.3-.12.448.03.777.977.686 1.098 2.151 1.514 3.168.386.448.563 1.076.563 1.643.564.238.387 1.583 1.218 1.015.177.628.68.24 1.065.15.06-.03.06-.089.09-.089.388.118-.207.508.267.538.625.537.921-.657 1.455-.06.266-.09.566-.028.712.12-.177.687.624 1.045.386 1.733.297.058.03.298 0 .389-.029.656-.149 1.523.268 2.299-.327.36-.209.898-.536 1.286.358.717-.83 1.046-.177 1.673-.801.389 0 .776.088 1.254.892.27.27 1.046.537 1.584.532.419 1.75-.088 1.6 1.016-.414.239-.561.687-.445 1.226.594.507-.563.926-.236 1.612-.21.152-.387.27-.267.538 0 .835-1.485 1.015-.652 1.853-.09.628.652 1.405-.24 1.824-.117.418.298.776.387 1.194.682.09-.147.748.535.866l-.03.21c.177.239.623-.21.682.15-.238.298-.09.687-.03.957.267.089.534.089.506.537-.24.149-.06.36.088.478-.266.42-.207.777-.027 1.196.978.897-1.307 2.062.235 2.898.801 1.046-.09 2.6 1.365 3.167 0 .48-.118.747-.325 1.135-.712.778-.207 1.913-.03 2.929-.95.748-2.255 1.224-3.353 1.882-7.39 3.793-14.869 7.619-22.32 11.173-.236.15-.444-.09-.62-.208-.328-.419.088-.837.206-1.195.12-.24.535-.24.414-.598.12-.06.328 0 .359-.209 0-.09-.09-.09-.12-.121.623-.178-.266-.478.238-.777-.03-.717.861-.807 1.128-1.314.147-.029.296-.12.324-.27-.177-.117-.296-.358-.296-.597.119-.596.177-1.343.892-1.553.176-.867-.892-2.06.297-2.6-.061-.447.535-.716.178-1.104.117-.538-.772-.807-.388-1.286.121-.329-.207-.09-.326-.27.21-.296.148-.715 0-1.046-.208.061-.357-.357-.623-.178-.237-.388.209-.657.147-1.016.656.03.24-.538.358-.837-.177-.06-.239-.209-.267-.388.624-.508.177-1.464 1.01-1.913-.476-.627-.03-.776.356-1.314-.06-.18-.355-.21-.386-.418.534-.27.476-1.045.92-1.374-.06-.268-.475-.48-.238-.807.771-.418-.027-.566.267-1.164-.504-.51.09-1.375-.801-1.494l-.178-.33c-.028-.925-.238-2.12.564-2.838-.534-.45.446-1.374-.534-1.374-.238-.45-.058-1.166-.535-1.375.297-.24.238-.659.238-.956-1.067-.926-.058-2.153-1.126-3.018.859-.629-.445-1.136-.445-1.853.294-.357-.268-.477-.15-.895-.473-.808-.444-1.643-1.423-1.972.294-.419-.149-1.105.504-1.164l.118-.121c-.265-.388-.77-.657-1.244-.688-.15.03-.239.27-.446.18-.296-.866-.653-1.733-.98-2.568-.533.266-.475-.48-.86-.51-.652-.269-1.365-.716-1.215-1.522-.24-.597.71-1.226-.09-1.674-.209-.628-.476-.926-.564-1.464.356-.15.386-.597.297-.838-.209-.148-.356-.356-.387-.597.564-.626-.474-.926-.625-1.494.151-.268.536-.716.179-1.106-.297-.059-.652.152-.89-.207-.239-.538-.12-1.345-.801-1.614.296-.538-.506-.477-.566-.956-.028-.628-.384-1.046-.741-1.494-.118-.388.415-.09.415-.449-.712-.09-.623-.895-.98-1.284-.115-.419.179-1.375-.592-1.135.208-.298-.385-.539.12-.778-.564-.178.06-.776-.594-.717-.565-.298-.949-.657-1.364-1.104.207-.12.18-.42.207-.657-.416-.329.357-1.135-.624-1.046-.058-.478-.562-1.016-.919-1.464-.177-.329-.446.03-.623-.18-.653-.598-.832-1.224-1.218-1.912.09-.267-.295-.536-.356-.806l-1.306-.838-.386.42a.542.542 0 0 0-.416-.689c.18-.686-.414-.715-.385-1.344-.148-.12-.268.18-.416.03-.03-.478-.951-.268-.86-.957-.415-.389-1.069-.389-1.513-.297l.295-.33c-.592-.06-1.008-.596-1.6-.328-.209-.509-.773-.089-1.128-.089-.416-.717-.565-1.734-1.455-2.092l.06-.178c-.536-.658-1.16-.717-1.427-1.525-.592-.149-.296-.658-.682-.836.178-.657-.592-.479-.95-.629-.118-.478-.296-.924-.711-1.165-.416.21-.652-.388-1.04-.18-.177-.447-1.424-.478-.651-1.135-.267-.447-.862-.09-1.277-.18-.297-.149-.743-.089-.86-.356-.801.477-1.069-.897-1.87-.658l-.86-.597-.059.12c-.357-.45-1.218-.688-1.603-1.107-.594.06-1.069-.328-1.661-.538l-.061.24c-1.364-.12-2.194-1.256-3.68-.986-.505-.628-1.602-.18-1.809-.957-.356-.21-.834-.419-1.16-.09-.385.061-.711-.09-.949-.386-.059-.09.058-.33-.147-.3-.506.657-1.011-.537-1.605-.178-.266-.567-.8-.211-1.275-.24-.208-.687-.98 0-1.396 0-.356-.06-.682-.597-1.008-.24-.447.121-.92-.507-1.396-.656-.622-.21-1.009.656-1.661.269-.474.477-.92-.09-1.455.089-.801-.03-1.216-.896-1.99-.657l-.65-.447c-.505-.24-.98.327-1.425-.15-.505-.27-.683-1.016-1.127-1.464.15-.358.118-1.015-.06-1.254-.563.239-.68-.33-.979-.6.119-.057.03-.179.03-.269-.356-.477-1.247.06-1.247-.714-.178-.33-1.069-.27-.652-.839.325-.357-.12-.984.414-1.283.148-.39-.414-.867.208-.987.15-.387.89-.835.565-1.254.445.328.534-.448.892-.448 0-.15.09-.48.294-.3.269.688 1.07.3 1.603.18l.15-.24c.474.598.503-.358.95-.417.028-.238.445-.359.71-.328.536.387.625-.51 1.13-.3.237-.418.651-.15.978-.449.061-.327-.177-.477.03-.777.386.06.86-.148.89-.565l-.089-.45c.179.21.447.42.625.658.117-.09.178-.239.354-.239.446.179.684-.537 1.158-.508.09-.748 1.515-.358 1.305-1.345-.057-.656.625-.21.86-.239.15-.149.594-.388.95-.478l.119-.569c.03.09.445.21.654.45.297-.181.208-.418.268-.628.146.149.267.538.592.479.031-.24.297-.33.504-.39.209-.058.624.09.86-.15.032-.03.032-.12 0-.268.386.208.862.089 1.278-.149.029-.867 1.632-.15 1.128-1.197.237-.09-.15-.448.237-.358.325.21.325 0 .712-.06.118-.208.563-.386.238-.687l-.03-.09c.177-.148.325.15.414-.148.03-.3-.326-.39-.444-.629.295-.777.86.21 1.246-.299.89-.446.266-1.492.832-2.21.237-.327-.178-.627.028-.986.387 0 .415.718.832.21.358-.48 1.425-.39 1.216-1.166.2.028.408.805.734.265" opacity=".25"/><path d="M262.13 187.897c.03.656.8.448 1.303.746.208.06.504.151.651.36.476-.419.891.269 1.394-.209.324.09.652.327.948.118 1.008-.208 1.54 1.315 2.548.42.209.15.03.537.326.537l.446-.508.028.09c.742.06 1.393-.389 1.81-.867.175.06.237.419.502.21 0-.33.267-.479.385-.777.267.24.415-.12.534-.269l.235-.748c0 .448.654.24.832.151.326.297.74.477.888.985.177.09.446.27.506-.06.53.478 1.183.15 1.45.986.326.299.326.868.83 1.017.146.239.385.627.742.656.682.12.798 1.166 1.42 1.435l.237-.15c.595.777 1.78.45 2.372 1.224.178.359.772.21 1.008.448.384-.507.86.51 1.096-.328l-.386-.328c.445.629 1.246-.059 1.604.508.59-.179 1.036.449 1.509.03.682.239 1.216-.627 1.924-.567.268-.387-.412-.478-.265-.836.533 1.045 1.451-.15 1.808.896.475-.06.385.626.8.687.149.449.564.716.682 1.194.71.27 1.275.927 1.838 1.494-.09.12 0 .208 0 .33.207.178.563.148.709-.031l.06-.058c-.148.567.71.448.444 1.014.385-.06.385 1.077.92.42.355.598.798 1.015 1.54.985.209-.208.178-.629.534-.687-.119.3-.15.479 0 .776.444.18.473.569.948.66-.06.447.71.447.473.955.268.478.86.09 1.01.478.236.12.797-.328.709.27.297.208.652.864 1.245.537.147.478.622.807 1.037.986.238-.03.592 0 .74-.269-.029.538.446.477.83.656.83-.089 1.75-1.224 2.371-.358-.029.358.475.448.475.806.473.18.416 1.016.95 1.077l-.268.059c.118.687.653 1.195.859 1.912.385-.149.147.42.474.39.208.207.387.656.74.597-.412.148-.324.715-.117 1.074.118.032.176.24.355.24.208.029.238-.151.238-.268v-.062l.149-.029c-.09.45-.21.808-.239 1.226.476.119.506.837.978.687-.236.628.564.597.682 1.075.089-.15.298-.09.445-.119.531.12.146 1.105.769.688.623.09.861.628 1.483.507 1.095.328.386 1.704 1.274 2.21.266.627.445 1.524.386 2.21.384.3.384.957 1.038.839l.325-.24c-.416.836 1.036.656.445 1.434.414.718 1.006 1.494 1.688 2.24-.117.329.208.539.326.808.118.12.356-.09.385.18v.746c-.326.36.148.987.119 1.403.357.419.029 1.226.651 1.526.832-.241 1.126.566 1.66.926-.356.03-.68-.72-1.007-.122l-.09.122c.653.416 1.185.896 1.422 1.524-.09-.151-.266-.151-.415-.031 0 .12-.117.269-.206.419l.532.299c-.208.625-.652 1.523-.237 2.001.651.508-.415.896.059 1.344.088.478.24.717.622.896-.592-.12-.356.448-.592.688-.03.417.384.568.683.627.235-.089.68-.178.858.121-.208.118-.858-.09-.682.446.505.48.563 1.196.416 1.763.028.36-.15.778.236.926l.06.061c.028.09-.178-.06-.326 0-.09.27 0 .628.177.898.177.058.239.058.356-.061-.029-.119-.09-.298 0-.42.475.777-.267 1.316-.237 1.973-.474.508.323.686-.058 1.195-3.645.986-7.497 1.554-11.292 2.152-1.303.058-2.547.596-3.94.687-.506-.18-1.452.777-1.6-.21.295-.27.503-.627.295-1.046-.327-.418-.535-1.046-.562-1.494-.445-.238-.357-.955-.475-1.344-.326-.597-.593-1.405-1.038-1.943l-.326-.148c0 .059-.117.031-.208.059-.267-.537-.829-1.016-.74-1.613-.12-.211-.209-.537-.03-.717-.148-.329-.859-.509-.475-.987-.206-.42-.503-.597-.83-.896-.119-.776-1.275-.24-1.243-1.165-.179-.24-.712.269-.446-.299l-.119-.088c.444-.241-.294-.569-.413-.808-.325-.418-.385-.986-.86-1.315-.356-.927-.979-1.733-.68-2.809.147-1.164-1.067-1.612-1.423-2.568.504-.866-.741-.687-.978-1.166l-.118-.718c.09 0 .09-.119.146-.148 0-.15-.117-.21-.117-.329 0-.508-.326-.866-.445-1.404-.386-.24-.356-.807-.77-.866.09-.926-1.037-.718-1.215-1.436-.654-.028-.83-.894-1.483-.715-.89-.06-1.807-.777-2.161-1.673-.416-.36-.682.148-1.127.03-.029-.39-.534-.39-.592-.718-.296.03-.089.359-.208.478-.177-.239-.651-.327-1.038-.298-.503-.36-.799-1.286-1.543-.928-.62-.328-.974-1.253-1.775-.746l-.267-.12.177-.387c-.444-.569-1.185-.331-1.688-.749h-.118c-.298-.297-.238-.925-.832-.956-.504.09-.443-.508-.948-.359-.682.121-.652-1.074-1.214-.417-.326-.508-.95-.388-1.452-.508-.384.21-.622-.06-.92-.239-.384-.327-.71-.837-1.332-.628-.296-.03-.444.24-.504.42-.74-.42-1.541.417-2.252-.21l-.622.21c-.12-.18-.238-.747-.651-.479 0 .27-.12.029-.268.09-.475-.21-.504-1.018-1.126-.419-.533-.359-1.125.299-1.661 0-.531.568-.74-.508-1.243-.06-.77-.03-1.098-1.494-1.748-.956-.178-.359-.68-.24-.95-.12-.234.419-1.035.15-1.006.777-.742.448-1.097-.33-1.867.03-.653.536-.711-.478-1.304-.449-.652-.028-1.423.179-1.897-.418-.206.03-.028.238-.06.36-.532-.33-.71.387-1.244.089-.504.09-1.008.537-1.511.148-.326.18-.77.031-1.157.33-.71-.449-1.568.387-2.43.328-.238 1.016-1.51-.21-1.57.926-.327.21-1.037.03-1.214.508l.324.15c-.592.446-1.274.177-1.807.118-.416.15-.948.328-1.363.629-.059-.15-.238-.36-.415-.24-.443-.06-.859.656-1.156.06-.386.18-1.274-.508-1.36.327-.508.24-.772-.508-1.187-.596-.831.21-.889-1.464-1.688-.656-.15 0-.298-.09-.416-.03l-.533.716c-.832-.357-1.424.27-2.046.567-.504.12-1.214-.448-1.51.36 0 .21.325.359.118.568-.565.119-.149.806-.8.896-.09.03 0 .15-.029.21-.386.327-1.008.18-1.422.269-.356-.689-.8.117-1.305-.15-.356.238-1.157.328-1.422.805-.683.478-1.393-.207-1.867.629-.503.09-.77.866-1.423.537-.028.836-.888.777-1.127 1.405l-.118-.36c-.295.18-.532.508-.68.808-7.38-1.076-14.73-1.076-21.839-2.242-.476.389-.742-.508-1.068-.119-1.57.06-3.054-.449-4.563-.299-.297-.209 0-.538-.09-.807.384-.297.03-.687.384-.956.09-1.105 1.068-1.94 1.897-2.509.178-.658 1.068-.837 1.276-1.523.502-.537 1.065-.928 1.6-1.524.176-.568.296-1.375 1.005-1.435.15-.299.712-.208.624-.717-.236-.419-.296-1.195.03-1.614.385-.298.385-.896.917-1.105 1.126.686 1.66-.956 2.667-.567.622-.359 1.424-.537 2.163-.687.18-.329.475-.358.594-.718 1.245-.389 1.925-1.853 3.29-2.18.089-.36.504-.06.741-.09 1.127-.27 2.4-.66 3.437 0 .713-.18 1.542-.538 2.163-.359.297-.238 1.128-.628 1.63-.27.148-.924 1.246-.15 1.037-1.076l.147-.208c.297.596.714-.09 1.07-.12.562-.269.739-.506 1.333-.776.266-.508.798-.746 1.186-1.106.502.06.828-.597.977-.986-.15-.897.8-.12 1.125-.567.533-.689 1.482-.598 2.224-.628.503-.479 1.243.06 1.807-.269.414.387 1.037.06 1.509.179.444-.956 1.809-.448 2.639-1.075.535.419.446-.627.829-.507.267-.12.504-.567.831-.239.237.298.563.298.917.208l.06-.119c-.029-.238-.414-.118-.207-.388 1.067-.359 1.808.687 2.962.3.535.269 1.276.269 1.898.15 0-.27-.208-.657-.414-.898.504.3 1.215 1.466 2.103.928.919-.42 1.63 1.373 2.282.059.296.18.533.596.89.718.178-.15.444.12.592-.212.385.12.238 1.226.83.54l-.149-.598c.178.149.327.419.534.478.236.06.236-.178.236-.299.416-.179 1.186-.179.979-.777.59 0 .8-.658 1.392-.686.475-.21 1.273.328 1.362-.538.414.03.237-.956.682-.419.117-.389.416-.329.68-.537.12.148.297.269.445.387.356-.446 1.216-.597.978-1.226.12-.297.623-.327.534-.745.089.03.267.12.473.059l.09-.299c.33.058.358.687.803.418" opacity=".5"/><path d="M255.769 219.474c-.147.177.057.266.146.324.501.06.975-.09 1.387-.444l.501-.354c.328.03-.059.473.386.473.324-1.093 1.091.443 1.83-.178.472.502 1.358-.207 1.624.59.532 0 1.15-.205 1.683.06l1.24-.237c.088.09.117.208.235.267l.266-.06c.267.827 1.062-.118 1.565 0 .384.295.974.769 1.477.414.205-.12.738.148.619-.382 0-.03 0-.09.06-.12.266.68.971.12 1.505.12.207-.355.502.323.768-.06.06.649.473.089.738.5.62.386 1.418-.058 1.83.443.385.12.532-.648.829-.205.146-.06.293-.177.442-.119.383.12.323.855.768.621.796-.887 1.27.62 2.007.59.237.236.562.325.53.71.651.265 1.064.856 1.212 1.566 1.329-.384 1.566 1.447 2.718 1.772.148-.325.381-.03.59 0 .06.65.618.974.562 1.743.411.206.826.797 1.356 1.004-.324.385.503.385.442.797.444.237 1.241.915 1.832.65.03.178-.089.474.147.562.356-.118.296-.177.622-.296-.266.532.442.532.767.68.442-.355.68.353 1.153.413a1.79 1.79 0 0 1 1.179.061c-.235.089-.266.471-.176.649.385-.266.474.501.825.323-.323.328.415.386.236.828.179.06.386.029.415.236-.324.325.266.502.443.768.206-.236.621-.178.944-.266-.03.828 1.121.442 1.004 1.3.325.236 1.034.562.886 1.153.738.088.678.796 1.24 1.004.415.03.474.502.71.797-.504.857.914.503.206 1.301l.381.265c-.058.324.355.59.591.767.236.356.472.68.915.77-.176.176-.973.265-.53.737.647.178.501.917.708 1.359-.12.118-.09.473.088.503.355.058.414.441.384.768.413.62.296 1.358.945 1.8-.117.68-.207 1.478-.708 1.92-.207.148-.916-.769-.916-.089-.414-.236-1.09-.501-1.416-1.004-.326-.177-.74-.472-1.033-.354-.387-.59-.83-.974-1.451-1.152-.146-.029-.382.178-.382.355-.03-.207-.384-.383-.295-.62-.325.088-.62.531-.972.294.146-.236-.061-.443-.267-.502-.475-.058-.975.413-1.095-.266-.5-.235-.854-.56-1.415-.709-.386-.117-.944-.029-1.064-.471-.324.177-.649-.356-1.003-.178-.06-.178-.326-.325-.532-.385-.356.208-.65.296-1.092.238.118-.384-.383-.413-.62-.532-.209.09-.236.266-.323.354-.179-.473-.977-.62-.888-1.21-.444-.444-.56.59-.975 0-.294.324-1.003.382-1.386.324l-.77-.414c-.205.148.032.472-.324.414-.47-.857-1.21.148-1.829-.561-.65.413-.944-.325-1.596.088-.353-.384-.856-.413-1.297-.237-.503.266-.621-.382-1.005-.592-1.27.178-2.124-1.298-3.424-.648-.416-.149-.562-.798-.976-.886l.15.475c-.533-.089-1.124-.71-1.655-.327-.148-.028-.294-.118-.502-.028-.293.648-1.063.088-1.536.205-.531.236-1.092-.088-1.476.207-.178.473-.738-.235-1.123-.146-.47.146-.766-.53-1.18-.178-.473-.384-1.152-.03-1.625.089-.117.206-.385.178-.443.414-.382-.444-1.21 0-1.741.088-.059.443-.472.56-.856.502l-.502-.324c-.383.206-.265.825-.738.914 0-.058-.087-.146 0-.207-.443-.235-.678.798-1.24.296l-.353.266c-.03-.177-.179-.089-.295-.089-.09.059 0 .178-.031.296-.737-.355-1.21.442-1.978.413 0 1.123-1.003 0-1.507.532l-.177-.15c-.295.651-.916-.471-1.328.15.06.176.176.089.176.324-1.064-.176-1.948.769-3.1.56-.414.297-.856-.027-1.24.12-.088-1.004-.945-.355-1.535-.621-.443.354 0 .915-.355 1.36-.03.856-1.89.62-.944 1.712l.295.178-.325.325c.059.117.207.088.235.147-.562.59-1.534-.089-1.949.235-.44.207-.295.829-.382 1.242-.032.177.206.236.056.384l-.147-.266c-.648.089-.384.975-.945 1.417-.087-.118-.207-.029-.235-.029-.209.208-.296.502-.119.679l-.915 1.242c.68.059-.03.768.296 1.18-.118.386-.591-.088-.591.386.236.265-.267.532-.178.768-.176-.06-.47-.236-.589.028-.206.474.475 1.122-.147 1.3.206.295-.15.208-.236.354-.383.443-.62 1.006-.591 1.597-.207.855-1.417 1.181-1.239 2.274-.03.768 1.388 1.446.117 2.039-.472.058-.709.471-1.063.648-.177.325.768.59.176.888-.266.058-.443.53-.797.412-.296.265.266.324.176.622-.207 0-.323.088-.445.265.8.355-.322.916.15 1.418.237.62.06 1.329.295 1.98.355 1.152-.974 1.595-.413 2.687-.383.237-.032.826-.5.887.294.679.028.649 0 1.27-.416.354.117.886-.149 1.24.176.532 1.032.148.914.769.118.354-.355.885.118 1.093.415-.148.562.354.827.442.03.177-.119.384-.207.531.12.324.297-.118.5.119.888-.325.68 1.093 1.625.502-.116.472.444.856.68 1.299.059.532.029 1.33.706 1.536-.026.267-.705.474-.293.74.472.473-.12.945.235 1.476.294.413.944.503.768.974-.057.06-.119.06-.177.177.59.118 1.004 1.033 1.711.855.06.24-.295.385-.117.68.442.088.442.473.56.77.325.412 1.093.795.858 1.503.088.031.207.12.324.209l.266-.119c-.205.532.828.177.354.828.267.117.68.175.532.53.177.09.236-.265.444-.236.266.59-.857.622-.119 1.153l.502.266c-.057.029-.028.118 0 .174.65-.411.354.71 1.005.654.53.234.294 1.446 1.179 1.063-.206.206.032.353 0 .62.62 1.12 1.772-.886 1.86.708-.206.208-.355.621-.115.887.678.059.381.737.264.944.296.03.265.534.65.534l.265-.12c.032.651.886.709 1.211.946l1.063-.295c-.148.206.325.354.473.56.147-.059.236-.207.324-.355.15.386-.382.503-.324.827.443 0 .856.354 1.358.176.061.089-.058.326.176.265.236.031.267.416.565.563.087.355-.032.62.324.71.205.088.323-.268.47-.032-.028.178 0 .356.178.414.384-.147.68-.147 1.093-.206.09.265.235.441 0 .707.472.533 1.3-.088 1.534.74l1.036-.03c.324.769 1.092-.146 1.505.207.59-.353 1.653.358 1.917-.56.474.088.858.709 1.447.709l.119-.12c-.088-.029-.088-.09-.119-.147.236.147.59-.03.768-.03-.03.177.148.414.353.297.501.03.857-.798 1.153 0 .648.266 1.328.117 1.948-.057.532.146 1.004-.356 1.595-.179.295-.474.797.354 1.033-.325.796.088 1.772-1.122 2.51-.06.354-.442 1.092-.353 1.476-.825.149.355.53.117.827.176l.502-.323c-.03.117.027.207.148.264.59-.236.265-.826.65-1.151.265-.118.294-.324.618-.208.15.09.356.296.474.03.382.473 1.092.324 1.18.887-.294.352-.5.856-.443 1.298-.116.385-.619.12-.797.385-.796 1.004 1.004 1.181.325 2.215.236.355.178.916.797.798-.442.474.886.77 0 1.092.088.385.355.887.739 1.096l.118-.032.06.384c.144 0 .381-.176.411.119-.56.53.62.207.147.768.268.562.856.855.619 1.507.415.206-.234.59.298.767.029.592 1.033.886.885 1.655.74 1.002 2.747 1.18 2.363 2.687.384.443.475 1.183.709 1.623l-.295.149c-.03.382.412.473.588.443.092.265-.442.441.062.532.236.472-.68.678-.088 1.12-.502.031-.12.507-.443.68.5.208.56.561.618 1.035-.56.237.177.296.149.591.058.472-.502 1.24.146 1.417l.177-.031c.088.297-.236.297-.5.357.62.709-.503 1.448-.267 2.186-.472.443.354.975-.208 1.536-.028.175.09.325.237.384-.622.179-.385.944-.531 1.418l.059.059c-.56.383-1.418.473-1.359 1.3-.561.383-.443 1.005-.767 1.507.383.767.206 1.504.502 2.185-.209.147-.237.973-.62.619-.384 0-.474.384-.444.59-.442-.413-.737-.795-1.358-.62.031-.325-.325-.354-.501-.442-.385.589-.856-.324-1.21.235-.15-.235-.355-.355-.562-.59l-.384.384c-.413 0-.472-.591-.946-.708-.323.472-1.386.236-1.27 1.004-.383.059-.53.562-.944.623-.384.235-.53.558-.856.824-.385.296-1.005.413-1.152.888-.621 0-.886.827-1.624.767-.324.238-.738.415-1.063.77-.384-.504-.885.265-1.27-.147-.798.056-.711 1.005-1.418 1.21-.029.442-.856.413-.797.945-.176.028-.384 0-.472.266.355.472-.356.383-.443.679l-.117-.118c-1.27-.65-1.92.089.117.118-2.657 0-3.632.058-4.222.532-.472.384-1.004.09-1.505.384 0-.09-.12-.148-.208-.177-1.417-.473-1.683.621 0 0-1.86.709-2.039.768-2.303.797-.059-.236-.382-.384-.589-.176-.118.355-.414.355-.68.5-.354-.472-.413.209-.65.209-.205-.325-.795.177-.767-.412-1.181-.268-2.303-.976-3.308-1.833-.411.09-.914-.383-1.178.03-.238-.474-1.211.352-1.242-.354-.236.53-.62-.12-.885.146-.326-.384-1.27-.206-1.092-.976l-.738.12c.235-.147-.088-.384-.266-.442-.474-.208-.621.678-1.034.118-.296.324-.445-.208-.797.027-.533-.413-1.212-.62-1.802-.973-.146.03-.355.058-.443.177-.324-.415-.532-1.153-1.092-1.241-.444.209-.827-.294-1.211.06.117-.68-.739-.444-.65-1.037-.324-.204-.857 0-.946-.47-.827-.386-1.653-.474-2.333-1.094l-.529.265c-.239-.294-.266-.679-.621-.884l-.296.355c-.47-.12-.739-.591-1.18-.65-.148.058-.266-.148-.385-.207l-.205.293-.088-.058c.088-.209.442-.089.266-.501-.768-.592-1.447-.975-2.156-1.597-.384.178-.474-.355-.708-.442-.088-.413-.648-.443-.973-.532-.446-.973-1.477.03-1.92-.916l.206-.59c-.295-.441-1.004-.355-1.24-.916-.266 0-.649-.03-.797-.323.03-.797-.944-1.094-1.002-1.862-.328-.53-1.006-1.033-.799-1.712-.59-.238-.71-1.094-1.18-1.536-.267-.533-.09-1.301-.828-1.537 0-.119-.116-.177-.177-.208-.117-.03-.177.09-.204.178l.234.235c-.176-.058-.234.146-.266.266-.324-.089.032-.413-.206-.532-.885-.205-1.417-.915-2.304-1.152 0-.502-.945-.294-.648-.944-.296-.355-1.358-.56-1.093-1.24-.353-.325-.502-.976-.385-1.448-.649.206-1.09-.532-1.505-.829-.236-1.151-.502-2.538-1.504-3.129l-.266.057c-.119-.383-.68-.59-.502-1.091.027-.68-1.389-.857-.68-1.596-.62-.295.56-1.005-.118-1.358-.914-.473-1.3-1.359-1.359-2.392-.708-.769.324-1.743-.766-2.274-.089-.324.145-.562.294-.797l-.59-.889c.236-.03.383-.208.323-.442-.057-.737-1.21-.531-.736-1.268-.148-.268-.385-.446-.385-.859.296-.176.029-.473 0-.68-.503-.058-.827-.325-.974-.826.56-.796-.03-1.536-.235-2.423-.03-.738.706-1.21.324-1.917-.149-.209-.562-.267-.294-.534l.058-.176c-.266.03-.177-.297-.266-.443.473-.325.56-.798.56-1.357-.028-.415-.442-.415-.47-.888-.416.324-.385-.383-.74-.441.236-.179 0-.326-.088-.504-.797.148-.444-.857-.649-1.302a3.056 3.056 0 0 1-.178-1.06c-.384-.415-1.298-.06-1.33-.797l-.62-.532c.327.03.798-.12.945-.62 0-.651-.56-.239-.855-.239.708-.235-.09-.737.295-1.151-.62-.089-.235-.886-.443-1.271l-.235.06c.354-.384.266-.886 0-1.33-.503-.738.325-1.506-.235-2.274-.119-.236-.327-.207-.268-.502l.268-.383c-.268-.208.205-.327.087-.533-.885-1.033.53-2.481-.709-3.425-.234-.562.267-.856.148-1.36.533-.355.768-1.035 1.063-1.625-.384-.383.413-1.121-.472-.915-.268-.474.176-1.152-.473-1.33.59 0 .029-.621.502-.856-.768-.354.472-.62.03-1.092.384-.119-.267-.856.325-.74.826-.619.501-1.505 1.3-2.272l-.031-.858c.708.444.5-.65.915-.915l-.029-.295c.177-.03.382-.03.324-.236-.147-.502-.353-.828-.53-1.3.295-.03.825.324.913-.236l.118.087.118-.118c-.411-.266-.914-.74-.767-1.329.059-.325.059-.796.147-1.181-.62-.443-.207-1.182-.175-1.624.47-.384 1.09-.74 1.031-1.448-.56-.237.207-.917-.145-1.33.235-.175.411-.442.735-.68.679-.412 0-1.682.947-1.741.235-.59 1.476-.413 1.031-1.36.12-.412.031-1.21.8-1.003.264-.177-.12-.297.028-.444.382-.295.382-.708.441-1.18l-.234-.118c.175-.237.175-1.271.943-1.243.976-.324-.59-1.122.562-1.27.235-.444 1.063-.678.945-1.327.382-.267 1.24-.297 1.21-1.006.06-.266.473-.324.354-.649.384-.09.531-.976 1.032-.532.444-.03.415-.797.886-.295.563.03.475-.915.975-.62.029-.117.296 0 .356-.177-.443-.296.293-.68-.09-1.034.768-.236-.324-.945.356-1.36.855-.383 1.473-1.035 2.125-1.682.913-.031.708-1.212 1.594-1.3.678.443 1.476-.089 2.155.533.178-.031.239-.21.327-.298l-.238-.235c.474-.59 1.36.176 1.507-.65.148-.118.236-.03.383 0 1.271-.414 2.008-1.624 3.218-2.038-.03-.266.059-.679.355-.738.205.06.471-.058.62-.296-.118-.619-.118-.944.09-1.448.117.148-.178.386.117.475 1.21-.326 1.652-1.625 2.922-1.655l.62-.74c.502-.293 1.034-.088 1.419-.53l-.031-.206c.591.03.857-.356 1.153-.768l-.031-.119c.768-.088 1.565-.324 2.333-.59l.56.385c.472-.325 1.064-.857 1.535-.591.474-.297.857-1.034 1.182-1.507.59-.088 1.3-.532 1.89-.207.148.265.471.414.764.442.446-.088.772-.413 1.036-.737l-.088-.178c.174.059.558.473 1.002.385.235-.65 1.152-.385 1.447-1.095.563.386 1.183-.412 1.685.325.767-.294 1.624-.472 2.39-.768.208-.53.68-.68 1.091-.973.363.054.629-.093.985.054" fill-opacity=".98" opacity=".75"/></g></svg>