<svg width="920" height="500" xmlns="http://www.w3.org/2000/svg"><g fill="#000" fill-rule="evenodd"><path d="M614.523 335.843c-3.84-3.45-5.84-6.286-5.64-7.982.063-.567.39-1.002.947-1.305 7.494-3.197 13.651-6.804 19.97-11.697 6.05-4.693 11.573-9.977 18.458-17.675 6.381-7.19 12.602-14.992 22.024-26.811l2.269-2.84c4.85-6.086 9.87-12.381 16.564-20.359 7.07-8.436 15.296-17.993 27.513-30.662 6.929-7.034 19.8-18.521 31.675-27.12l2.133-1.52 1.234-.88c.917-.654 1.854-.576 2.19-.121.318.425.167 1.27-1.22 2.36-.702.553-4.834 4.234-5.6 4.928-8.524 7.527-15.794 14.512-23.571 22.666-5.797 6.022-10.9 11.677-16.565 18.34-9.573 11.35-16.193 20.246-21.922 28.16-9.621 13.359-15.7 22.788-21.058 31.112l-3.479 5.382c-6.23 9.585-11.138 16.863-16.31 23.54-5.606 7.2-10.559 12.514-16.57 17.773-2.176 1.52-7.42-.6-13.042-5.289m-23.47-18.758c-4.44-3.275-4.899-4.712-4.767-5.279.093-.4.527-.684 1.298-.83 17.7-2.557 29.684-7.289 44.224-17.456 6.88-4.903 13.446-10.573 22.668-19.586 7.719-7.582 16.14-16.444 28.89-29.852l5.586-5.88c4.952-5.103 12.515-12.152 18.818-17.528l.307-.264 1.967-1.653c.678-.547 1.195-.567 1.405-.342.22.23.166.768-.361 1.354l-2.074 2.259c-11.139 11.775-18.774 20.627-25.064 28.003l-13.378 15.96-3.279 3.934c-9.66 11.55-16.203 19.137-23.088 26.151-14.008 14.053-24.424 20.897-39.808 26.142-2.586.645-7.953-1.418-13.345-5.133m-22.178-14.116c-3.996-2.283-4.289-3.11-4.225-3.354.02-.092.195-.405 1.57-.479 19.805-.376 33.466-2.996 48.714-9.346 7.85-3.372 15.032-7.37 23.292-12.963 8.778-6.012 17.834-13.246 29.353-23.472 2.85-2.478 7.065-5.983 11.27-9.366.62-.498 2.855-2.395 3.402-2.888.61-.558 1.117-.597 1.322-.391.19.185.17.63-.307 1.182-.39.44-1.757 1.829-2.572 2.655l-.541.547c-12.105 12.382-21.312 21.605-29.807 29.323-8.772 7.973-15.564 13.306-22.697 17.837-14.652 9.145-26.904 13.256-45.2 15.168-2.889.127-8.343-1.662-13.574-4.453m28.723-16.844c8.558-2.067 16.014-4.54 24.176-8.016 8.807-3.788 17.453-8.388 27.201-14.478l6.006-3.71c.008 0 2.357-1.57 2.357-1.57.464-.303.898-.2 1.083.054a.57.57 0 0 1 .103.342c.004.264-.156.606-.561.934l-1.479 1.193c-7.943 6.359-14.837 11.276-22.346 15.95-8.05 4.941-15.271 8.524-23.42 11.618-15.28 5.612-29.133 7.826-49.39 7.904-3.528-.122-9.446-1.857-13.74-3.52l-.342-.146-.488-.205c-1.488-.572-1.946-1.154-1.883-1.516.044-.234.312-.4.64-.4l.858.02c21.17.493 35.525-.754 51.226-4.454m38.35-17.166c.113.26-.107.71-.62.968l-2.668 1.33c-16.535 8.085-28.655 11.276-39.287 13.525-15.847 3.255-30.611 4.277-52.65 3.656-3.693-.2-9.65-1.295-13.847-2.547a29.52 29.52 0 0 0-.302-.097c-1.069-.348-.966-1.125-.084-1.1.079.004.157.004.24.004 19.135.489 35.544.347 53.084-1.848 17.74-2.287 33.183-6.09 51.635-12.709l3.484-1.256c.522-.2.908-.17 1.015.074m-274.323 39.36c-.273-.172-.322-.68-.132-1.365a20.487 20.487 0 0 1 1.937-4.482l.19-.342c3.894-7.112 16.2-21.424 54.861-28.092 47.42-8.177 110.229-2.825 135.034-.684 4.138.357 8.178.67 12.017.924l2.425.112 7.129.43c3.098.147 6.016.24 8.69.298l.8.004c2.356.024 8.601.235 12.305.035 2.342-.122 5.303-.386 8.44-.67l3.123-.268c.464-.044.678.245.717.499.008.035.016.068.016.103 0 .23-.127.479-.44.557-10.792 2.669-21.94 4.59-35.09 6.036-17.242 1.838-34.222 1.902-56.031 1.408l-.878-.049c-2.742-.166-4.743-.552-9.193-1.456-.14-.032.147.039-.439-.088-.58-.137-.644-.91.108-.934.502.004 1.044.012 1.044.012 17.477.059 23.844.083 38.715-.592l6.612-.425 5.498-.4c.547-.045.786-.304.78-.543-.003-.27-.326-.597-1.214-.626-.205.004-2.244-.078-4.215-.166-2.04-.083-3.957-.166-4.167-.161l-.66-.016c-.766-.023-2.05-.068-3.81.02l-3.172.131c-17.574.836-28.635.88-48.19.939h-.371c-.332 0-2.533-.278-3.67-.587h-.003v.004l-.874-.205-1.317-.288-.503-.108c-.478-.103-.43-.743.088-.767l.293-.02.424-.031.503-.04c5.4-.385 19.18-.737 19.32-.742l3.104-.127 1.922-.064 1.01-.053 1.171-.064c.693.004 1.02-.357 1.04-.636.015-.258-.24-.562-.986-.645-2.25-.244-6.314-.41-8.524-.347l-1.307-.031-1.235-.024-1.83.035-2.405.132-4.718.161-16.77 1.022-1.488.112-1.37.108-1.962-.079-1.688-.127a162.352 162.352 0 0 0-7.104-.464l-2.747-.137c-2.44-.127-5.27-.141-8.002-.152l-5.108-.049c-12.774-.278-32.275 1.794-47.03 7.064-14.886 5.308-23.932 13.359-27.127 16.57l-.308.318-.532.523c-.615.528-1.444 1.051-2.396 1.657-1.473.934-3.147 2-4.79 3.495l-2.406 2.21-2.05 1.881c-.4.362-.82.494-1.063.343" opacity=".4"/><path d="M556.265 176h13.903v42.092h.21l16.615-19.674H603.4l-19.942 21.97 22.434 27.197h-17.65l-17.863-23.87h-.21v23.87h-13.903V176zm-57.51 22.418h13.182v6.688h.21c4.36-5.624 10.27-7.829 17.556-7.829 12.656 0 18.166 8.208 18.166 19.276v31.028h-13.923v-26.25c0-6.017-.102-14.122-9.027-14.122-10.07 0-12.255 10.014-12.255 16.313v24.059h-13.909v-49.163zm-50.765 13.56c4.672-3.25 10.588-5.338 16.508-5.338 8.203 0 12.041 2.662 12.041 10.583h-7.69c-5.804 0-12.656.48-17.952 2.86-5.296 2.4-9.13 6.697-9.13 14.036 0 9.358 9.223 14.613 18.688 14.613 6.326 0 13.28-3.065 16.504-8.494h.21c.102 1.52.102 4.76.609 7.343h12.26a202.85 202.85 0 0 1-.624-10.976 389.86 389.86 0 0 1-.2-12.326v-6.284c0-14.511-6.764-20.718-23.052-20.718-5.916 0-13.192 1.438-18.59 3.725l.419 10.976zm7.067 21.378c0-7.532 9.236-8.494 15.469-8.494h6.013c0 3.822-.624 7.353-2.906 10.121-2.19 2.671-5.492 4.386-9.754 4.386-4.974 0-8.822-1.817-8.822-6.013zM386 247.583h25.326c9.153 0 25.534-2.481 25.534-19.29 0-8.207-6.749-14.307-16.6-15.176v-.185c8.607-1.428 14.43-6.964 14.43-14.88 0-14.614-14.025-17.095-23.364-17.095H386v66.626zm14.519-56.122h5.608c6.647 0 14.03.573 14.03 8.3 0 6.882-7.593 8.12-13.708 8.12h-5.93v-16.42zm0 26.342h6.856c7.267 0 14.948 1.326 14.948 10.014 0 7.742-8.179 9.262-14.948 9.262h-6.856v-19.276zm-49.71-24.62c-4.575-1.831-9.652-2.861-14.748-2.861-4.974 0-11.412 2-11.412 9.252 0 11.544 31.753 6.672 31.753 29.013 0 14.608-12.558 20.144-27.178 20.144-7.891 0-11.427-.961-18.596-2.593l1.342-12.02c4.998 2.487 10.704 4.104 16.41 4.104 5.51 0 12.885-2.579 12.885-8.582 0-12.704-31.773-7.445-31.773-29.498 0-14.885 12.563-20.334 25.316-20.334 6.242 0 12.065.777 17.346 2.389l-1.346 10.985zm-77.92-12.226h14.533v56.122h20.59v10.505H272.89v-66.627zm-11.793 12.884c-5.584-2.38-12.875-3.52-18.688-3.52-16.918 0-26.257 10.485-26.257 24.141 0 13.55 9.144 23.758 24.609 23.758 3.93 0 7.061-.374 9.539-.947v-17.367h-15.362v-10.504h29.275v35.885c-7.671 1.908-15.674 3.443-23.452 3.443-23.472 0-39.761-10.791-39.761-33.306 0-22.816 15.152-35.613 39.76-35.613 8.413 0 15.04 1.059 21.278 2.773l-.941 11.257zM503.884 345.65h-1.654c-.243 0-.345-.104-.345-.351v-9.426c0-2.038-1.688-3.72-3.687-3.72-2.039 0-3.659 1.648-3.659 3.72v9.426c0 .247-.102.35-.345.35h-1.654c-.239 0-.346-.103-.346-.35v-14.792c0-.242.107-.351.346-.351h1.274c.244 0 .346.109.346.351v1.405c0 .242.14.385.311.385.107 0 .21-.035.312-.178 1.206-1.543 2.554-1.963 3.415-1.963 3.653 0 6.032 2.349 6.032 5.717v9.426c0 .247-.103.35-.346.35zm-17.239 0h-1.654c-.243 0-.346-.104-.346-.351v-9.426c0-2.038-1.688-3.72-3.687-3.72-2.038 0-3.658 1.648-3.658 3.72v9.426c0 .247-.103.35-.346.35H475.3c-.238 0-.345-.103-.345-.35v-14.792c0-.242.107-.351.345-.351h1.275c.243 0 .345.109.345.351v1.405c0 .242.141.385.312.385.107 0 .21-.035.311-.178 1.206-1.543 2.554-1.963 3.415-1.963 3.653 0 6.032 2.349 6.032 5.717v9.426c0 .247-.102.35-.345.35zm-17.238 0h-1.654c-.243 0-.345-.104-.345-.351v-14.792c0-.242.102-.351.345-.351h1.654c.243 0 .346.109.346.351V345.3c0 .247-.103.35-.346.35zm-.86-19.312c-.867 0-1.485-.702-1.485-1.577 0-.806.691-1.543 1.484-1.543a1.53 1.53 0 0 1 1.552 1.543c0 .84-.725 1.577-1.552 1.577zM457.061 346h-1.483c-2.311 0-3.722-.771-4.651-1.89-.311-.385-.69-.983-.69-1.161 0-.104.067-.208.203-.277l1.314-.702c.102-.036.204-.104.307-.104.107 0 .209.069.277.172.827 1.261 2.067 1.964 3.24 1.964h1.483c2.068 0 3.722-1.647 3.722-3.749 0-2.492-2.204-3.575-4.65-4.698-2.657-1.226-5.624-2.562-5.624-6.592 0-3.397 2.35-5.747 6.003-5.747h.55c2.31 0 3.691.772 4.62 1.86.38.455.76 1.014.76 1.157 0 .139-.108.242-.244.312l-1.172.598c-.136.07-.346.174-.448.174-.102 0-.17-.036-.243-.139-.827-1.261-2.101-1.929-3.274-1.929h-.55c-2.038 0-3.653 1.613-3.653 3.714 0 2.21 2.306 3.264 4.894 4.456 2.554 1.192 5.341 2.73 5.341 6.835 0 3.397-2.34 5.746-6.032 5.746zm-17.27-.036c-.176 0-.9-.143-1.416-.316-2.447-.806-3.829-2.77-3.829-5.4v-7.745c0-.242-.102-.351-.34-.351h-2.004c-.239 0-.341-.104-.341-.351v-.663l3.756-4.035c.136-.139.277-.243.413-.243h.52c.239 0 .341.104.341.352v2.591c0 .247.107.351.346.351h2.52c.238 0 .345.11.345.352v1.295c0 .248-.107.352-.345.352h-2.52c-.239 0-.346.108-.346.351v7.744c0 1.756 1.104 3.23 2.933 3.65a.34.34 0 0 1 .278.346v1.37c0 .208-.107.351-.311.351zm-10.821-.315h-1.654c-.243 0-.346-.104-.346-.351v-9.426c0-2.038-1.688-3.72-3.687-3.72-2.039 0-3.658 1.648-3.658 3.72v9.426c0 .247-.103.35-.346.35h-1.654c-.239 0-.346-.103-.346-.35v-21.344c0-.248.107-.352.346-.352h1.654c.243 0 .346.104.346.352v7.922c0 .242.136.386.277.386.102 0 .204-.075.311-.178 1.207-1.509 2.55-1.929 3.41-1.929 3.211 0 5.692 2.349 5.692 5.717v9.426c0 .247-.102.35-.345.35zm-16.131-1.541c-.93 1.123-2.31 1.889-4.621 1.889-3.654 0-5.965-2.344-5.965-5.746v-4.733c0-3.398 2.311-5.712 5.965-5.712 2.276 0 3.692.737 4.62 1.825.414.49.76.979.76 1.152 0 .144-.103.247-.243.317l-1.24.633c-.137.069-.278.138-.38.138-.103 0-.17-.036-.239-.138-.831-1.192-2.106-1.929-3.278-1.929-2.034 0-3.654 1.647-3.654 3.714v4.733c0 2.032 1.654 3.753 3.654 3.753 1.172 0 2.447-.771 3.278-2.003.069-.104.137-.138.239-.138.14 0 .311.104.447.178l1.173.593c.14.07.243.173.243.317 0 .138-.312.598-.76 1.157zm-16.962-4.839c0-.247-.102-.35-.346-.35h-4.548c-1.138 0-2.038.91-2.038 2.067v.563c0 1.118.934 2.102 2.038 2.102h1.377c1.585 0 2.967-1.577 3.517-3.051v-1.33zm2 6.38h-1.275c-.243 0-.346-.104-.346-.351v-1.509c0-.277-.136-.42-.311-.42-.103 0-.204.074-.311.178-1.032 1.226-2.38 2.102-3.274 2.102h-1.377c-2.418 0-4.344-1.612-4.344-4.1v-.213c0-2.487 1.926-4.065 4.344-4.065h4.548c.244 0 .346-.07.346-.316v-1.435c0-2.072-1.654-3.644-3.687-3.644-1.139 0-2.418.662-3.245 1.923-.068.11-.17.179-.273.179-.107 0-.243-.07-.379-.144l-1.24-.662c-.141-.07-.21-.178-.21-.282 0-.139.38-.702.657-1.054.929-1.152 2.31-1.958 4.69-1.958 3.653 0 6.031 2.24 6.031 5.643v9.777c0 .247-.102.35-.345.35zm-15.65 0h-1.654c-.243 0-.346-.104-.346-.351v-9.426c0-2.072-1.795-3.72-3.346-3.72-1.445 0-3.274 1.648-3.274 3.72v9.426c0 .247-.103.35-.346.35h-1.654c-.243 0-.346-.103-.346-.35v-9.426c0-2.072-1.79-3.72-3.342-3.72-1.483 0-3.278 1.648-3.278 3.72v9.426c0 .247-.103.35-.346.35h-1.654c-.238 0-.345-.103-.345-.35v-14.792c0-.242.107-.351.345-.351h1.275c.243 0 .345.109.345.351v1.405c0 .277.107.42.278.42.102 0 .204-.07.311-.178 1.275-1.543 2.758-1.998 3.444-1.998 1.246 0 2.763.49 3.863 2.067.073.109.175.178.277.178.103 0 .175-.07.278-.178 1.172-1.577 2.724-2.067 4.169-2.067 3.244 0 5.691 2.349 5.691 5.717v9.426c0 .247-.102.35-.345.35zm-36.202.35h-1.07c-2.345 0-3.722-.875-4.617-1.929-.346-.42-.69-.944-.69-1.083 0-.104.067-.213.238-.282l1.206-.598a.57.57 0 0 1 .311-.104c.108 0 .21.069.278.173.69 1.162 1.931 1.963 3.274 1.963h1.07c2.136 0 3.172-1.33 3.172-2.695 0-1.72-2.345-2.245-4.928-2.735-2.243-.455-4.621-1.053-4.621-4.03 0-3.12 2.412-4.876 5.307-4.876h1.07c2.243 0 3.62.81 4.514 1.79.419.455.76.98.76 1.123 0 .138-.103.242-.24.316l-1.035.524c-.17.07-.312.174-.414.174-.102 0-.204-.07-.277-.174-.759-1.122-2.033-1.894-3.308-1.894h-1.07c-2.238 0-3.065 1.02-3.065 2.419 0 1.859 2.34 2.314 4.86 2.838 2.242.46 4.757 1.123 4.757 4.03 0 2.735-1.897 5.05-5.482 5.05zm-12.478-6.73c0-.247-.103-.351-.346-.351h-4.548c-1.138 0-2.038.91-2.038 2.067v.564c0 1.117.934 2.102 2.038 2.102h1.377c1.585 0 2.967-1.578 3.517-3.052v-1.33zm2 6.38h-1.275c-.244 0-.346-.104-.346-.352v-1.508c0-.277-.136-.42-.311-.42-.103 0-.205.074-.312.178-1.03 1.226-2.378 2.101-3.273 2.101h-1.377c-2.418 0-4.35-1.612-4.35-4.1v-.212c0-2.488 1.932-4.065 4.35-4.065h4.548c.243 0 .346-.07.346-.317v-1.434c0-2.072-1.654-3.644-3.688-3.644-1.138 0-2.417.662-3.244 1.923-.068.11-.17.178-.273.178-.107 0-.243-.069-.38-.143l-1.24-.663c-.14-.069-.209-.178-.209-.282 0-.138.38-.702.657-1.053.929-1.152 2.31-1.958 4.69-1.958 3.653 0 6.031 2.24 6.031 5.642v9.777c0 .247-.102.351-.345.351zm-17.096-9.78c0-2.032-1.688-3.714-3.687-3.714-2.039 0-3.659 1.647-3.659 3.714v4.03c0 2.033 1.66 3.75 3.659 3.75 1.999 0 3.687-1.717 3.687-3.75v-4.03zm2 9.777h-1.275c-.243 0-.346-.104-.346-.346v-1.508c0-.248-.136-.386-.311-.386-.102 0-.204.035-.311.173-1.24 1.612-2.584 2.067-3.445 2.067-3.658 0-5.968-2.383-5.968-5.746v-4.03c0-3.363 2.451-5.713 5.623-5.713.861 0 2.204.42 3.41 1.998.107.139.21.174.312.174.175 0 .31-.139.31-.386v-7.992c0-.242.103-.351.346-.351h1.654c.244 0 .346.109.346.351v21.35c0 .241-.102.345-.346.345z" fill-rule="nonzero"/></g></svg>