<svg width="1291" height="500" xmlns="http://www.w3.org/2000/svg"><g fill="#000" fill-rule="nonzero"><path d="M233.86 188.197a4.565 4.565 0 0 0-3.037 5.69l21.374 70.22c-8.406 0-29.318-.008-29.318-.008a4.557 4.557 0 0 0-.003 9.115l35.469.006a4.57 4.57 0 0 0 3.665-1.837 4.566 4.566 0 0 0 .693-4.047l-23.158-76.106a4.56 4.56 0 0 0-5.685-3.033zM200 217.692a5.98 5.98 0 0 0 5.97 5.972c3.297 0 5.98-2.68 5.98-5.972a5.984 5.984 0 0 0-5.98-5.976c-3.288 0-5.97 2.68-5.97 5.976zM317.133 188.197a4.562 4.562 0 0 1 3.223 4.362c0 .437-.056.885-.194 1.327l-21.37 70.221c8.406 0 29.32-.008 29.32-.008a4.556 4.556 0 0 1 4.558 4.557 4.556 4.556 0 0 1-4.558 4.558l-35.467.006a4.574 4.574 0 0 1-3.668-1.837 4.584 4.584 0 0 1-.7-4.047l23.162-76.106a4.568 4.568 0 0 1 5.694-3.033zM268.208 217.565c0 3.22 2.617 5.84 5.84 5.84 3.218 0 5.843-2.62 5.843-5.84a5.85 5.85 0 0 0-5.843-5.841 5.846 5.846 0 0 0-5.84 5.841zM386.892 188.197a4.561 4.561 0 0 1 3.234 4.362c0 .437-.07.885-.202 1.327 0 0-18.323 60.204-21.368 70.221 8.4 0 29.311-.008 29.311-.008a4.558 4.558 0 1 1 .009 9.115l-35.473.006a4.542 4.542 0 0 1-3.654-1.837 4.548 4.548 0 0 1-.705-4.047l23.162-76.106a4.56 4.56 0 0 1 5.686-3.033zM336.41 217.565c0 3.22 2.62 5.84 5.84 5.84a5.842 5.842 0 0 0 0-11.681c-3.22 0-5.84 2.62-5.84 5.841zM409.284 217.692c0 3.293 2.684 5.972 5.983 5.972 3.29 0 5.975-2.68 5.975-5.972a5.984 5.984 0 0 0-5.975-5.976c-3.299 0-5.983 2.68-5.983 5.976zM305.253 284.326a3.637 3.637 0 0 0-3.63 3.318c-.522 5.792 1.248 11.364 4.853 15.308 2.924 3.203 6.705 4.972 10.626 4.972 3.92 0 7.694-1.752 10.608-4.925 3.598-3.911 5.368-9.5 4.88-15.34a3.65 3.65 0 0 0-3.634-3.333h-23.703zm19.972 7.166c.06 7.512-5.77 9.302-8.124 9.29-2.304-.018-8.095-1.73-8.13-9.29h16.254zM222.545 284.171a4.23 4.23 0 0 0-4.224 4.228 4.229 4.229 0 0 0 4.224 4.225h18.876a4.223 4.223 0 0 0 4.223-4.225 4.224 4.224 0 0 0-4.223-4.228h-18.876zM222.545 296.95a4.226 4.226 0 0 0-4.224 4.221 4.229 4.229 0 0 0 4.224 4.227h18.876a4.223 4.223 0 0 0 4.223-4.227 4.218 4.218 0 0 0-4.223-4.221h-18.876zM396.503 290.723c-.036.015-3.48 1.505-7.832 1.498h-2.141c-4.488 0-7.96-1.49-7.993-1.507a4.24 4.24 0 0 0-5.563 2.172 4.215 4.215 0 0 0 2.136 5.55c.51.226 5.175 2.234 11.42 2.234h2.142c6.119.008 10.773-2.008 11.282-2.24a4.215 4.215 0 0 0 2.114-5.555 4.233 4.233 0 0 0-5.565-2.152zM753.75 229.79l-2.025 6.822h-7.02l11.81-34.891h7.416l11.907 34.89h-6.968l-2.022-6.82H753.75zm6.572-21.793l-4.844 16.062h9.638l-4.794-16.062zM801.884 236.612h-5.93l-.046-2.519c-1.238 1.134-3.66 3.112-7.962 3.112-4.101 0-6.124-1.777-7.116-3.26-1.584-2.326-1.435-5.138-1.435-7.807v-14.233h5.983v13.34c-.052 2.028-.1 4.45 1.975 5.637.792.494 1.928.738 2.864.738 2.868 0 4.301-1.874 4.799-2.763.985-1.883.891-4.55.936-6.478v-10.474h5.93v24.707h.002zM830.846 232.211c-.052 2.868.295 6.378-1.583 8.901-1.534 2.074-4.75 3.753-10.33 3.753-5.534 0-8.252-1.533-9.786-3.707-.592-.889-1.035-1.928-1.534-4.05l6.523.05c.148.492.25.788.594 1.234 1.284 1.877 4.002 1.826 4.448 1.826 2.963 0 4.497-1.133 5.138-2.32.694-1.288.642-2.57.642-5.34-2.763 2.47-6.226 2.619-7.465 2.619-1.48 0-3.107-.243-4.493-.887-2.616-1.137-6.18-4.103-6.18-10.871 0-.794 0-3.116.846-5.287 1.676-4.302 5.681-6.97 10.324-6.97.84 0 3.213.098 5.245 1.582a7.75 7.75 0 0 1 1.723 1.777v-2.616h5.886v20.306h.002zm-6.129-11.509c-.398-1.338-1.73-4.253-5.732-4.253-.84 0-2.817.15-4.403 1.88-1.728 1.878-1.678 4.152-1.678 4.942 0 .788 0 2.914 1.579 4.694.25.247.792.789 1.586 1.189.49.245 1.482.636 2.965.636 2.371 0 3.706-.933 4.4-1.677 1.678-1.682 1.678-3.86 1.678-4.645 0-1.388-.197-2.222-.395-2.766zM853.18 219.66c-.49-1.034-1.132-1.627-1.533-1.979-1.53-1.329-3.161-1.776-5.186-1.776-.248 0-1.93 0-3.017.743-.892.589-1.087 1.385-1.087 1.827.05.842.641 1.432.792 1.532.641.495 2.272.888 4.252 1.239 1.333.244 2.666.44 4.002.738 1.333.294 2.819.741 3.904 1.532a6.597 6.597 0 0 1 2.718 5.389c0 1.187-.295 2.32-.838 3.36-1.186 2.269-4.251 5.088-10.284 5.088-4.645 0-7.953-1.582-9.484-2.52a14.619 14.619 0 0 1-2.376-1.926l4.447-3.61c.2.248.495.693 1.137 1.236 2.128 1.83 5.29 1.926 5.98 1.926 1.485 0 3.213-.342 4.203-1.481.393-.396.641-.941.641-1.434 0-.194-.05-.594-.396-1.035-.64-.89-1.433-.941-3.263-1.336-1.626-.343-3.26-.542-4.844-.937-1.082-.296-6.766-1.682-6.818-7.02a7.646 7.646 0 0 1 1.139-3.806c1.236-1.928 4.15-4.25 9.488-4.25 1.925 0 6.92.295 10.624 4.597l-4.2 3.904zM868.8 213.978c.244-.247.54-.496.79-.691 2.467-1.879 5.185-2.125 6.277-2.125 1.48 0 4.492.396 7.165 3.114 1.48 1.533 3.71 4.644 3.71 9.834 0 4.644-1.885 9.438-6.081 11.813-2.176 1.236-4.202 1.431-5.141 1.431-1.288 0-3.357-.245-5.683-2.225-.396-.345-.74-.688-1.09-1.085v2.568h-5.881V201.72h5.881l.052 12.257zm10.526 5.09c-1.087-1.581-2.918-2.519-4.846-2.519-1.532 0-2.814.543-3.854 1.63-1.978 2.028-1.928 4.845-1.928 5.635 0 2.422.445 5.137 2.522 6.72.49.347 1.73 1.188 3.51 1.188.936 0 3.062-.3 4.497-2.475 1.238-1.975 1.383-4.693 1.435-5.239-.001-.641-.001-3.06-1.336-4.94zM914.065 236.612h-5.931l-.045-2.519c-1.238 1.134-3.659 3.112-7.958 3.112-4.104 0-6.126-1.777-7.12-3.26-1.579-2.326-1.435-5.138-1.435-7.807v-14.233h5.983v13.34c-.05 2.028-.1 4.45 1.977 5.637.792.494 1.928.738 2.864.738 2.866 0 4.299-1.874 4.797-2.763.99-1.883.891-4.55.936-6.478v-10.474h5.93v24.707h.002zM926.227 215.41c.392-.742.882-1.483 1.48-2.026 1.977-1.929 5.188-2.024 5.881-2.024h.496v6.078c-1.238 0-5.98 0-7.413 4.544-.444 1.385-.444 2.618-.444 4.052v10.575h-5.735v-24.704h5.735v3.505zM960.523 232.211c-.052 2.868.292 6.378-1.584 8.901-1.534 2.074-4.742 3.753-10.329 3.753-5.537 0-8.255-1.533-9.786-3.707-.59-.889-1.04-1.928-1.535-4.05l6.523.05c.149.492.25.788.595 1.234 1.284 1.877 4.001 1.826 4.447 1.826 2.966 0 4.497-1.133 5.146-2.32.686-1.288.636-2.57.636-5.34-2.767 2.47-6.228 2.619-7.46 2.619-1.485 0-3.114-.243-4.5-.887-2.618-1.137-6.18-4.103-6.18-10.871 0-.794 0-3.116.844-5.287 1.678-4.302 5.683-6.97 10.327-6.97.84 0 3.213.098 5.24 1.582a7.775 7.775 0 0 1 1.73 1.777v-2.616h5.883v20.306h.003zm-6.13-11.509c-.39-1.338-1.73-4.253-5.735-4.253-.837 0-2.814.15-4.398 1.88-1.73 1.878-1.68 4.152-1.68 4.942 0 .788 0 2.914 1.581 4.694.248.247.795.789 1.584 1.189.49.245 1.48.636 2.968.636 2.369 0 3.703-.933 4.393-1.677 1.683-1.682 1.683-3.86 1.683-4.645-.002-1.388-.2-2.222-.395-2.766zM494.063 236.505h-6.588v-15.904h-15.012v15.904h-6.586V201.53h6.586v13.18h15.012v-13.18h6.588zM523.523 229.57c-.992 2.526-4.212 7.677-11.594 7.677-1.04 0-3.17-.098-5.6-1.142-2.572-1.185-7.282-4.605-7.282-12.086 0-2.673.696-4.655 1.092-5.547.99-2.478 4.21-7.48 11.593-7.48.94 0 3.12.1 5.447 1.141 2.678 1.137 7.285 4.456 7.334 11.886 0 .891-.049 3.22-.99 5.55zm-11.89-13.227c-.546 0-2.032.099-3.37.94-1.287.843-3.021 2.874-3.021 6.59 0 1.187.148 2.227.495 3.366.447 1.191 2.13 4.56 6.192 4.56 4.508 0 6.491-3.964 6.388-7.877-.145-3.864-2.326-7.58-6.684-7.58zM551.53 229.52c-.396 1.041-.891 2.079-1.583 3.022-2.23 3.022-5.896 4.706-9.613 4.706-.893 0-2.922-.148-5.15-1.141-6.59-3.02-7.085-9.905-7.085-11.987 0-3.022.842-5.945 2.674-8.322 1.19-1.585 4.31-4.806 9.86-4.806 1.585 0 3.17.298 4.608.891 1.435.594 4.407 2.329 6.043 6.143l-5.303 2.477a5.98 5.98 0 0 0-1.484-2.526c-.695-.696-1.884-1.686-4.164-1.686-1.732 0-3.12.596-4.258 1.931-1.835 2.13-1.835 4.908-1.835 5.747 0 1.29.2 2.231.348 2.726.744 2.873 2.773 5.003 5.896 5.003 4.259 0 5.55-3.763 5.994-4.854l5.052 2.676zM560.744 214.263c.496-.548 1.09-1.091 2.378-1.834.94-.546 2.726-1.437 5.45-1.437 2.725 0 5.696.99 7.332 3.27 1.535 2.18 1.535 4.458 1.535 6.935v15.308h-5.844v-13.624c-.05-1.983.097-3.765-1.586-5.2-.495-.448-1.437-1.042-3.072-1.042-2.029 0-3.667.843-4.904 2.378a5.54 5.54 0 0 0-1.088 2.08c-.2.743-.2 1.337-.2 2.13v13.278H554.8V201.53h5.943v12.734zM599.831 219.515c-.494-1.043-1.137-1.636-1.535-1.984-1.536-1.338-3.17-1.786-5.201-1.786-.25 0-1.934 0-3.025.745-.889.594-1.087 1.388-1.087 1.834.05.84.645 1.435.794 1.536.642.492 2.278.89 4.26 1.237 1.338.249 2.674.446 4.015.743 1.335.297 2.82.744 3.911 1.536a6.618 6.618 0 0 1 2.722 5.4 7.262 7.262 0 0 1-.84 3.371c-1.188 2.276-4.26 5.101-10.303 5.101-4.657 0-7.977-1.585-9.513-2.528a14.474 14.474 0 0 1-2.38-1.93l4.46-3.618c.199.25.495.692 1.138 1.24 2.132 1.833 5.302 1.93 5.996 1.93 1.484 0 3.22-.342 4.21-1.484.395-.398.645-.942.645-1.435 0-.2-.048-.595-.397-1.04-.645-.892-1.438-.942-3.271-1.34-1.633-.346-3.27-.542-4.856-.94-1.091-.297-6.785-1.684-6.836-7.036a7.669 7.669 0 0 1 1.14-3.814c1.239-1.931 4.16-4.259 9.513-4.259 1.929 0 6.932.298 10.649 4.606l-4.209 3.915zM630.992 229.52c-.395 1.041-.891 2.079-1.583 3.022-2.229 3.022-5.896 4.706-9.613 4.706-.89 0-2.92-.148-5.152-1.141-6.587-3.02-7.082-9.905-7.082-11.987 0-3.022.842-5.945 2.676-8.322 1.188-1.585 4.308-4.806 9.858-4.806 1.586 0 3.17.298 4.608.891 1.435.594 4.406 2.329 6.045 6.143l-5.302 2.477a6.03 6.03 0 0 0-1.487-2.526c-.694-.696-1.881-1.686-4.163-1.686-1.733 0-3.12.596-4.259 1.931-1.834 2.13-1.834 4.908-1.834 5.747 0 1.29.2 2.231.348 2.726.743 2.873 2.774 5.003 5.895 5.003 4.26 0 5.55-3.763 5.996-4.854l5.05 2.676zM640.207 214.263c.496-.548 1.089-1.091 2.379-1.834.942-.546 2.722-1.437 5.45-1.437 2.725 0 5.698.99 7.332 3.27 1.534 2.18 1.534 4.458 1.534 6.935v15.308h-5.846v-13.624c-.05-1.983.101-3.765-1.586-5.2-.496-.448-1.435-1.042-3.07-1.042-2.033 0-3.666.843-4.905 2.378a5.522 5.522 0 0 0-1.088 2.08c-.2.743-.2 1.337-.2 2.13v13.278h-5.946V201.53h5.945v12.734h.001zM685.637 236.505h-5.945l-.05-2.527c-1.238 1.14-3.666 3.12-7.978 3.12-4.11 0-6.143-1.783-7.13-3.27-1.586-2.328-1.438-5.152-1.438-7.827v-14.269h5.995v13.379c-.05 2.03-.101 4.457 1.982 5.646.793.494 1.933.743 2.874.743 2.871 0 4.307-1.884 4.806-2.773.988-1.884.892-4.558.941-6.49V211.73h5.946v24.774h-.003zM698.172 236.505h-6.047V201.53h6.047v34.976zM709.268 225.311c.099.742.347 2.279 1.583 3.763.84 1.041 2.33 2.376 5.403 2.376 3.07 0 4.854-1.434 5.649-2.278.193-.198.495-.593.837-1.14l5.056 2.925a16.216 16.216 0 0 1-2.282 2.578c-1.383 1.285-4.704 3.713-9.807 3.713-1.586 0-5.5-.2-8.868-3.32-2.822-2.675-3.864-6.092-3.864-9.957 0-2.08.3-4.06 1.092-5.943 1.09-2.478 4.158-7.035 11.346-7.035 5.546 0 8.472 2.871 9.755 4.754 1.141 1.736 2.281 4.758 2.43 9.566h-18.33v-.002zm11.79-4.413c-.05-.297-.15-1.138-.496-1.979-.545-1.19-1.834-3.173-5.054-3.173-1.285 0-1.982.249-2.48.448-2.772 1.138-3.415 3.911-3.566 4.757l11.595-.053zM491.853 277.924c-.05 2.424 0 4.795-.1 7.22-.1 3.214-.544 6.226-2.72 8.793-1.58 1.832-4.545 3.904-10.129 3.904-1.284 0-5.535-.05-8.945-2.717a11.064 11.064 0 0 1-2.522-2.867c-1.827-3.212-1.679-6.77-1.679-14.035V262.06h3.262v22.638c.05 1.877.148 3.952 1.037 5.729.89 1.831 2.375 2.67 3.016 3.016 1.828.99 3.755 1.335 5.78 1.335.893 0 5.24 0 7.71-2.917 1.975-2.373 1.975-5.484 1.975-8.302V262.06h3.315v15.864zM515.18 296.953v-12.257c0-3.163.047-5.039-.543-6.424-.446-1.235-1.335-1.733-1.782-2.026-1.336-.742-2.668-.742-3.212-.742-.543 0-1.831 0-3.116.64-1.729.794-3.11 2.72-3.556 4.502-.248 1.133-.248 3.16-.299 5.976v10.331h-2.912v-23.575h2.912v4.203c.2-.593.544-1.533 1.682-2.618.94-.888 2.619-2.081 5.735-2.081 4.396 0 6.372 2.424 7.165 4.056.839 1.877.792 3.757.839 7.758v12.256h-2.914v.001zM525.754 267.846v-4.498h2.866v4.498h-2.866zm0 29.107v-23.575h2.866v23.575h-2.866zM542.896 296.953l-8.16-23.575h2.921l6.52 19.174 7.266-19.174h2.867l-9.045 23.575zM578.773 285.143l-18.284.048c-.051 1.926.197 3.112.444 3.95.494 1.88 2.172 5.784 7.56 5.735 2.075 0 5.338-.494 7.563-4.942l2.718.789c-.243.496-.839 1.827-1.828 3.063-1.287 1.533-3.608 3.758-8.403 3.758-.84 0-3.212-.05-5.437-1.236-5.633-2.914-5.828-9.836-5.828-11.368 0-.788.047-2.72.741-4.79 1.584-4.45 5.386-7.366 10.13-7.366 1.434 0 4.89.297 7.563 3.357 1.929 2.128 3.062 5.44 3.062 8.304v.698h-.001zm-3.362-2.424c-.691-6.078-4.744-7.313-7.312-7.313-4.102 0-6.027 2.816-6.671 4.102-.444.987-.742 2.222-.89 3.265l14.873-.054zM585.588 296.953v-23.575h2.916v3.758c.15-.396.396-.84.646-1.187.296-.445 1.285-1.68 2.765-2.324.642-.294 1.68-.59 3.358-.59.398 0 .894 0 1.734.096l-.05 2.622a10.297 10.297 0 0 0-1.832-.151c-3.605 0-5.828 2.128-6.37 5.585-.202 1.235-.251 2.817-.251 5.585v10.181h-2.916zM602.146 290.231c.395 1.63 2.172 4.646 6.568 4.646 2.228 0 3.66-.643 4.35-1.186 1.04-.788 1.683-2.177 1.683-3.412 0-.739-.248-1.482-.642-2.072-.744-1.038-1.927-1.633-4.45-2.177-2.322-.544-5.981-.936-7.658-2.964-.79-.99-1.237-2.42-1.237-3.707.05-.74.248-3.014 2.028-4.596 1.58-1.485 4.349-1.977 6.424-1.977.689 0 3.606.049 5.782 1.53a6.59 6.59 0 0 1 2.567 3.81l-2.765.737c-.543-2.72-3.364-3.506-5.735-3.506-1.925 0-3.21.44-3.856.889-.195.098-.69.494-1.036 1.035a4.064 4.064 0 0 0-.545 2.03c0 2.763 2.917 3.31 4.943 3.806l2.472.49c2.075.545 4.1 1.236 5.386 3.066 1.086 1.483 1.135 2.912 1.135 3.604 0 .497-.05 1.834-.74 3.164-.94 1.78-3.314 4.103-8.055 4.103-1.435 0-5.24-.198-7.91-3.56-.689-.937-1.136-1.78-1.578-2.765l2.869-.988zM624.186 267.846v-4.498h2.867v4.498h-2.867zm0 29.107v-23.575h2.867v23.575h-2.867zM645.482 296.31c-.641.444-1.83 1.089-3.757 1.089-.248 0-.545 0-.792-.05-.641-.051-2.423-.201-3.111-2.077-.396-1.038-.344-3.559-.344-4.695V275.85h-4.943v-2.473h4.943v-10.03h2.814v10.03h5.19v2.473h-5.19v12.995c.048.842.048 1.682 0 2.524 0 1.382-.047 3.459 1.925 3.459 1.189 0 2.375-.842 3.265-1.481v2.963zM658.768 300.364c-2.17 5.635-3.06 8.546-6.818 8.546-1.629 0-2.62-.59-3.112-.934v-2.966c1.331.936 2.27 1.138 3.064 1.138 1.678 0 2.171-1.088 3.16-3.557.346-.746.645-1.487.94-2.227l1.236-3.41-8.156-23.576h2.82l6.865 20.064 7.666-20.064h2.965l-10.63 26.986zM703.087 289.788c-1.485 4.742-5.188 7.758-10.183 7.758-1.63 0-5.388-.298-8.15-3.952-1.038-1.434-2.426-3.956-2.426-8.157 0-1.038.047-3.362 1.087-5.98 2.324-5.978 7.36-6.67 9.685-6.67 2.722 0 4.995.743 6.92 2.62 2.67 2.47 3.654 6.127 3.708 9.637 0 .79 0 2.669-.641 4.744zm-10.032-14.531c-.743 0-2.574.1-4.255 1.336-1.827 1.383-3.36 3.954-3.36 8.843 0 .889-.096 5.635 3.117 8.157.738.593 2.128 1.38 4.393 1.38 3.463 0 7.564-2.171 7.666-9.633.05-7.66-3.81-10.083-7.56-10.083zM714.503 275.85v21.103h-2.914v-21.102h-5.192v-2.473h5.192v-4.496c.052-2.522-.099-3.214.298-4.546.492-1.485 1.63-2.97 4.935-2.97 1.142 0 1.935.15 3.015.347v2.87c-.49-.197-1.428-.642-2.812-.642-.988 0-1.432.297-1.725.641-.936.938-.797 1.876-.797 4.052v4.745h5.334v2.473h-5.334v-.001zM760.997 296.976l-4.003-10.52h-15.618l-4.002 10.52h-3.654l14.228-34.886h2.767l13.889 34.886h-3.607zm-11.717-31.034l-6.818 17.842h13.542l-6.724-17.842zM772.753 273.407v3.856c.346-.79.589-1.187.889-1.534.84-1.14 2.77-2.82 6.23-2.82 2.522 0 4.002.695 4.893 1.239 3.602 2.27 4.99 7.166 4.99 11.115 0 .797-.052 2.175-.497 4.055-.446 1.73-2.523 8.202-9.386 8.202-3.71 0-5.686-2.025-6.473-3.26-.25-.347-.352-.542-.646-1.236v16.459h-2.862v-36.076h2.862zm2.571 19.916c1.579 1.332 3.312 1.385 4.102 1.385 5.436 0 7.31-5.292 7.31-9.835 0-.742-.045-2.327-.642-4.153-1.433-4.498-4.888-5.14-6.72-5.14-1.036 0-2.174.248-3.06.744-1.775.985-2.817 3.008-3.214 4.892-.245 1.235-.302 2.422-.346 3.657-.1 2.964.043 6.37 2.57 8.45zM798.75 273.407v3.856c.344-.79.591-1.187.886-1.534.84-1.14 2.77-2.82 6.226-2.82 2.527 0 4.005.695 4.898 1.239 3.607 2.27 4.99 7.166 4.99 11.115 0 .797-.052 2.175-.498 4.055-.438 1.73-2.52 8.202-9.39 8.202-3.703 0-5.68-2.025-6.472-3.26-.243-.347-.342-.542-.64-1.236v16.459h-2.863v-36.076h2.862zm2.569 19.916c1.58 1.332 3.312 1.385 4.1 1.385 5.439 0 7.315-5.292 7.315-9.835 0-.742-.048-2.327-.637-4.153-1.439-4.498-4.896-5.14-6.723-5.14-1.038 0-2.178.248-3.07.744-1.774.985-2.812 3.008-3.208 4.892-.245 1.235-.295 2.422-.344 3.657-.1 2.964.047 6.37 2.567 8.45zM821.824 296.8v-34.886h2.968V296.8zM833.188 267.869v-4.496h2.87v4.496h-2.87zm0 29.107v-23.569h2.87v23.57h-2.87zM864.472 285.166l-18.289.052c-.05 1.93.2 3.112.441 3.956.495 1.875 2.183 5.778 7.567 5.728 2.074 0 5.339-.496 7.561-4.941l2.72.79c-.25.491-.842 1.83-1.83 3.064-1.288 1.533-3.608 3.755-8.402 3.755-.837 0-3.213-.05-5.433-1.232-5.636-2.916-5.837-9.836-5.837-11.369 0-.793.055-2.72.743-4.795 1.584-4.448 5.389-7.363 10.133-7.363 1.43 0 4.894.298 7.56 3.361 1.93 2.126 3.066 5.435 3.066 8.302v.692zm-3.361-2.422c-.694-6.075-4.743-7.311-7.317-7.311-4.102 0-6.03 2.814-6.673 4.106-.441.983-.736 2.217-.892 3.26l14.882-.055zM886.757 296.976v-4.248c-1.092 3.114-4.107 4.793-7.269 4.793-.889 0-2.913-.15-4.888-1.485-4.75-3.112-4.847-9.686-4.847-10.87 0-1.432.196-7.709 5.09-10.823.841-.492 2.623-1.435 5.09-1.435 1.926 0 3.853.595 5.24 1.879 1.085 1.04 1.332 1.732 1.584 2.373v-15.07h2.862v34.886h-2.862zm-2.767-20.21a6.886 6.886 0 0 0-3.909-1.184c-.592 0-1.782 0-3.06.69-2.031 1.086-4.104 3.756-4.104 8.894 0 .793-.097 9.589 7.02 9.589 1.828 0 3.358-.442 4.59-1.777 1.98-1.979 2.277-5.042 2.277-7.615.092-4.742-.844-7.164-2.814-8.597zM911.735 286.455c.099 2.075.351 2.96.792 3.904.988 2.174 3.61 4.593 8.899 4.593.69 0 2.22 0 3.953-.494 3.213-.984 5.681-3.41 5.681-6.92 0-.543-.044-1.974-.936-3.36-1.188-1.88-3.166-2.718-7.22-3.805-2.517-.641-5.284-1.235-7.66-2.37-1.581-.79-5.035-2.766-5.035-7.76 0-2.717.936-4.302 1.675-5.189 3.018-3.9 8.892-3.852 9.837-3.852 3.805 0 7.465 1.038 9.982 4.05.641.792 1.284 1.678 2.032 3.604l-3.07 1.635c-.342-1.09-.735-2.075-1.43-3.015-.986-1.432-3.364-3.558-7.613-3.558-.694 0-4.4.047-6.573 2.22-.641.646-1.63 1.782-1.63 4.008 0 1.23.346 2.32 1.035 3.259 1.535 2.027 4.102 2.619 6.374 3.261 3.267.837 7.665 1.734 10.334 3.953 1.084.839 3.257 3.017 3.257 6.818 0 1.831-.542 5.24-4.296 7.958-1.63 1.138-4.153 2.471-8.698 2.471-6.674 0-11.565-2.867-13-9.685l3.31-1.726zM956.609 279.386c-1.042-2.62-3.61-3.952-6.372-3.952-.891 0-2.973.097-4.893 1.729-3.062 2.62-3.119 7.016-3.119 8.057 0 .693.102 4.743 2.225 7.363.347.396 1.035 1.138 2.324 1.73.594.294 1.63.69 3.213.69 2.968 0 4.992-1.379 6.377-3.952l2.963.694c-.644 1.334-1.43 2.518-2.57 3.509-1.087.985-3.267 2.32-6.87 2.32-1.284 0-4.497-.1-7.215-2.67-3.513-3.312-3.607-8.204-3.607-9.538 0-1.776.196-3.26.738-4.888 1.534-4.845 5.49-7.663 10.577-7.663 3.75 0 5.73 1.432 6.87 2.62 1.334 1.382 1.832 2.62 2.077 3.31l-2.718.641zM964.515 267.869v-4.496h2.869v4.496h-2.87zm0 29.107v-23.569h2.869v23.57h-2.87zM995.005 285.166l-18.284.052c-.05 1.93.198 3.112.446 3.956.488 1.875 2.173 5.778 7.556 5.728 2.077 0 5.34-.496 7.564-4.941l2.718.79c-.245.491-.84 1.83-1.829 3.064-1.284 1.533-3.609 3.755-8.4 3.755-.838 0-3.209-.05-5.436-1.232-5.637-2.916-5.832-9.836-5.832-11.369 0-.793.052-2.72.738-4.795 1.586-4.448 5.388-7.363 10.138-7.363 1.432 0 4.886.298 7.561 3.361 1.926 2.126 3.06 5.435 3.06 8.302v.692zm-3.361-2.422c-.691-6.075-4.74-7.311-7.312-7.311-4.1 0-6.03 2.814-6.676 4.106-.441.983-.736 2.217-.882 3.26l14.87-.055zM1015.67 296.976v-12.254c0-3.159.043-5.04-.547-6.42-.44-1.24-1.335-1.737-1.782-2.03-1.328-.741-2.665-.741-3.208-.741-.54 0-1.831 0-3.114.645-1.73.786-3.111 2.716-3.557 4.498-.248 1.133-.248 3.159-.295 5.978v10.325h-2.92v-23.57h2.919v4.2c.196-.592.54-1.531 1.682-2.62.932-.889 2.614-2.076 5.73-2.076 4.394 0 6.373 2.424 7.166 4.051.837 1.885.79 3.758.837 7.76v12.255h-2.91zM1041.328 279.385c-1.038-2.619-3.605-3.953-6.374-3.953-.89 0-2.966.1-4.89 1.732-3.062 2.616-3.117 7.013-3.117 8.053 0 .689.104 4.744 2.225 7.364a6.63 6.63 0 0 0 2.33 1.727c.585.3 1.626.696 3.204.696 2.968 0 4.995-1.385 6.379-3.957l2.963.698c-.637 1.332-1.435 2.516-2.574 3.506-1.081.988-3.258 2.323-6.864 2.323-1.287 0-4.495-.104-7.218-2.67-3.51-3.31-3.607-8.205-3.607-9.538 0-1.78.196-3.262.743-4.895 1.53-4.84 5.488-7.657 10.575-7.657 3.758 0 5.728 1.43 6.872 2.618 1.334 1.384 1.824 2.617 2.072 3.312l-2.72.641zM1068.51 285.133l-18.284.05c-.044 1.93.201 3.117.446 3.951.498 1.881 2.176 5.785 7.562 5.734 2.076 0 5.334-.491 7.564-4.941l2.713.79c-.245.496-.835 1.83-1.829 3.063-1.284 1.534-3.6 3.755-8.399 3.755-.84 0-3.21-.05-5.435-1.236-5.637-2.914-5.835-9.828-5.835-11.362 0-.794.052-2.724.746-4.793 1.58-4.449 5.388-7.364 10.13-7.364 1.437 0 4.891.293 7.565 3.36 1.925 2.122 3.057 5.434 3.057 8.298v.695zm-3.355-2.42c-.696-6.078-4.747-7.315-7.319-7.315-4.1 0-6.025 2.816-6.667 4.1-.446.992-.743 2.226-.894 3.263l14.88-.048zM1074.597 290.272c.397 1.633 2.174 4.646 6.573 4.646 2.22 0 3.654-.642 4.353-1.181 1.033-.798 1.675-2.177 1.675-3.415 0-.738-.245-1.48-.64-2.077-.739-1.035-1.929-1.63-4.45-2.17-2.325-.547-5.979-.941-7.66-2.965-.787-.992-1.232-2.427-1.232-3.709.044-.742.242-3.014 2.024-4.595 1.581-1.485 4.349-1.976 6.424-1.976.69 0 3.607.047 5.785 1.53a6.598 6.598 0 0 1 2.566 3.804l-2.767.74c-.54-2.715-3.36-3.507-5.73-3.507-1.93 0-3.213.447-3.862.89-.193.099-.686.494-1.032 1.038a4.052 4.052 0 0 0-.542 2.026c0 2.765 2.918 3.309 4.945 3.804l2.473.495c2.067.54 4.089 1.234 5.384 3.061 1.082 1.485 1.133 2.92 1.133 3.608 0 .496-.05 1.832-.74 3.161-.937 1.785-3.31 4.103-8.053 4.103-1.439 0-5.245-.2-7.913-3.559-.69-.936-1.137-1.777-1.576-2.764l2.862-.988z"/></g></svg>