<svg width="684" height="500" xmlns="http://www.w3.org/2000/svg"><g fill="none" fill-rule="nonzero"><path d="M207.033 185h269.399c3.807 0 7.423 3.266 7.564 7.349l.004.246v96.332c0 4.111-3.544 7.864-7.345 8.007l-.223.004H262.154l1.19 27.062-23.927-27.062h-32.384c-3.81 0-6.91-3.67-7.03-7.765l-.003-.246v-96.332c0-4.113 3.023-7.459 6.8-7.59l.233-.005h269.399zm217.47 16.13c-6.006 0-10.984 15.413-12.957 30.142a9.276 9.276 0 0 0-2.229-.258c-6.179 0-15.104 8.22-15.104 21.403 0 .517.026 1.026.08 1.526-.796.599-1.42.96-2.282.96-2.189 0-3.36-2.972-3.402-10.38v-1.262c1.624-3.428 2.802-6.853 2.802-9.338 0-2.479-1.39-4.107-3.533-4.107-4.12 0-7.09 7.109-7.09 18.919 0 1.84.085 3.547.31 5.096-1.611 2.165-3.72 3.73-5.412 3.73-2.194 0-3.824-4.637-3.879-13.01l-.001-.436v-1.029c1.628-3.336 3.263-6.678 3.263-9.163 0-2.478-1.115-4.106-3.17-4.106-3.861 0-6.694 6.334-7.039 16.95-2.315 5.311-5.79 10.533-8.02 10.533-1.458 0-2.64-1.37-2.64-6.248 0-2.058.352-4.626.784-6.936 1.718-3.34 2.666-6.764 2.666-9.249 0-2.051-.6-3.421-1.97-3.421-3.523 0-5.837 4.623-7.297 10.189-.53 2.12-.941 5.099-1.144 8.286-2.055 2.588-4.66 5.43-7.778 7.981.344-5.735.771-8.391 1.287-10.96 1.89-4.11 2.664-8.222 2.664-10.79 0-3.336-1.889-4.02-3.265-4.02-1.112 0-2.058.426-2.917 1.538-1.546-1.37-3.519-2.224-5.49-2.224-6.594 0-14.204 9.385-14.806 20.362-2.699 3.278-6.068 6.009-9.739 6.009-3.26 0-4.977-2.056-5.492-5.994 6.694-1.37 15.018-6.766 15.018-14.47 0-4.11-2.401-6.337-6.008-6.337-6.88 0-14.645 8.094-16.254 18.098a21.58 21.58 0 0 1-1.509.053c-1.544 0-2.832-.173-4.204-.43-1.287-2.996-2.92-5.223-4.636-6.934 4.806-7.703 10.042-17.723 10.042-27.826 0-7.022-2.573-9.504-5.58-9.504-8.238 0-11.24 18.753-13.044 33.905-1.546.34-2.574 1.198-2.574 3.342 0 1.625.6 3.167 1.715 4.537-.14 1.343-.269 2.693-.383 4.024-2.093 4.05-4.75 7.79-7.425 7.79-2.229 0-3.173-3.08-3.173-10.19 0-1.366.344-3.593.686-5.82 1.461-2.995 2.316-5.91 2.316-8.138 0-2.478-1.286-4.106-3.432-4.106-3.638 0-6.338 6.817-6.919 16.55-2.428 4.917-6.106 11.022-9.388 11.022-2.142 0-3.517-4.11-3.603-11.906 4.89-7.618 12.702-21.404 12.702-33.048 0-7.704-2.489-10.02-5.576-10.02-9.357 0-14.59 30.315-14.59 44.183 0 12.075 2.23 18.667 8.15 18.667 4.502 0 9.13-5.403 12.345-11.016.606 6.814 2.972 11.188 7.996 11.188 3.373 0 6.654-3.068 9.33-6.989-.154 2.91-.235 5.58-.235 7.846 0 13.528 2.918 20.718 8.669 20.718 8.838 0 9.783-17.206 9.783-22.518 0-4.277-.602-8.216-1.633-11.558.688.086 1.459.169 2.145.169.619 0 1.193-.01 1.722-.037.058 6.407 2.815 11.599 9.435 11.599 5.32 0 10.087-3.392 13.765-7.512 1.056 4.193 3.856 6.397 7.346 6.397 2.475 0 4.79-1.343 6.874-3.5l.249-.263-.344 3.594c-7.893 4.881-16.05 9.848-16.05 17.122 0 4.196 2.835 7.366 7.81 7.366 8.156 0 13.474-7.365 15.704-24.488.431-.257.775-.598 1.203-.942a55.59 55.59 0 0 0 7.022-6.592c.408 5.083 2.909 7.79 7.052 7.79 4.55 0 8.066-3.939 10.988-9.074.77 6.936 3.26 10.874 7.977 10.874 3.33 0 6.64-2.856 9.386-6.539 1.293 2.515 3.34 3.968 6.319 3.968 2.583 0 4.99-1.536 7.07-3.782 1.526 2.508 4.016 4.209 7.347 4.209 3.26 0 6.693-2.397 9.956-6.248 1.546 2.994 3.775 4.795 6.438 4.795 2.547 0 4.998-1.387 7.16-3.432 1.666 3.445 4.836 6 9.745 6 8.408 0 13.645-7.446 13.642-10.449 0-1.883-1.718-2.052-1.718-2.052-1.628 3.852-5.666 6.936-9.612 6.936-4.292 0-5.664-3.426-6.01-7.194 7.297-1.115 15.191-6.679 15.191-13.273 0-3.594-2.402-6.764-6.694-6.764-8.065 0-15.96 10.873-15.96 20.295 0 .71.047 1.43.14 2.134-.8.592-1.625.946-2.457.946-2.315 0-3.77-2.056-4.547-5.65 6.52-11.303 11.416-26.972 11.416-37.164 0-3.935-.259-11.046-5.495-11.046zM331 268c-.793 7.855-1.846 15-5.273 15-1.674 0-2.727-1.94-2.727-4.414 0-4.587 3.516-7.674 8-10.586zm-49.671-17c1.232.503 2.55.923 3.859 1.26 1.07 2.94 1.812 6.13 1.812 10.667 0 4.28-.66 10.073-3.044 10.073-2.137 0-2.956-4.533-2.956-10.914 0-2.855.164-7.224.329-11.086zm49.132-13c1.309 0 3.142 1.011 4.539 3.787l-1.572 9.925c-1.921 2.942-3.843 4.288-5.936 4.288-1.834 0-3.492-2.354-3.492-7.064 0-5.383 3.402-10.936 6.46-10.936zm75.932-1c1.825 0 2.87 1.336 3.827 2.592-.09 1.424-.09 2.848-.09 4.104 0 2.932.265 5.693.87 8.123-1.915 2.01-3.737 3.181-5.477 3.181-3.307 0-4.523-3.013-4.523-7.453 0-5.273 2.524-10.547 5.393-10.547zm-98.953 0c1.503 0 2.56 1.099 2.56 2.878 0 3.13-3.352 6.177-9 8.122.266-6.935 3.531-11 6.44-11zm131.878 0c1.093 0 1.682.835 1.682 2.251 0 2.75-2.19 7.169-8 8.749.505-5.831 3.704-11 6.318-11zm-14.487-26c.605 0 1.17.506 1.169 3.885 0 6.418-3.085 18.079-8 27.115v-.927c0-11.067 4.492-30.073 6.83-30.073zm-173.866 1c.947 0 1.036 1.903 1.035 3.281 0 7.688-4.474 16.757-8 22.719 1.12-12.093 4.99-26 6.965-26zm38.128 2c.82 0 .907 2.14.907 3.165 0 6.423-3.545 13.357-7 18.835 1.818-13.438 4.455-22 6.093-22zm-21.457-2.077c-4.205 0-6.094 3.766-6.094 6.678s1.288 5.135 3.69 5.135c3.005 0 7.124-3.594 7.124-7.703 0-2.396-1.715-4.11-4.72-4.11zm124.516-.854c-4.206 0-6.093 3.763-6.092 6.678 0 2.91 1.29 5.136 4.119 5.136 3.008 0 6.696-2.826 6.696-7.707 0-2.396-1.718-4.107-4.723-4.107z" fill="#000"/><path d="M364.313 312c1.52 0 2.676.61 3.47 1.835l.064-1.63H369v11.066c0 1.456-.4 2.605-1.208 3.457-.806.847-1.896 1.272-3.271 1.272-.777 0-1.52-.176-2.227-.527-.701-.351-1.258-.821-1.664-1.408l.694-.749c.871 1.083 1.912 1.626 3.114 1.626 1.033 0 1.838-.308 2.414-.92.584-.619.878-1.474.898-2.563v-1.417c-.79 1.109-1.945 1.666-3.456 1.666-1.293 0-2.335-.52-3.121-1.567-.779-1.04-1.172-2.45-1.172-4.225v-.167c-.001-1.769.385-3.17 1.158-4.2.777-1.036 1.827-1.549 3.154-1.549zm-85.116 0c1.278 0 2.227.352 2.855 1.064.623.712.938 1.78.948 3.204v7.731h-1.314v-7.742c-.008-1.054-.233-1.838-.678-2.353-.444-.518-1.158-.774-2.132-.774-.817 0-1.54.253-2.168.757-.63.505-1.095 1.182-1.397 2.043V324H274v-11.786h1.257l.043 2.015c.448-.726 1.008-1.279 1.678-1.659a4.38 4.38 0 0 1 2.219-.57zm11.38 0c1.252 0 2.24.326 2.965.967.723.649 1.094 1.548 1.117 2.702v5.477c0 1.12.115 1.958.341 2.515v.13h-1.328v-.002c-.125-.366-.203-.902-.24-1.615a4.34 4.34 0 0 1-1.664 1.35 4.971 4.971 0 0 1-2.144.476c-1.08 0-1.953-.308-2.622-.93-.668-.617-1.002-1.405-1.002-2.352 0-1.127.456-2.015 1.362-2.674.912-.656 2.18-.985 3.807-.985h2.253v-1.316c0-.825-.247-1.477-.743-1.951-.492-.472-1.214-.71-2.163-.71-.867 0-1.581.224-2.151.686-.567.455-.85 1.005-.85 1.646l-1.246-.01c0-.92.415-1.72 1.246-2.393.828-.672 1.851-1.011 3.062-1.011zm11.15 0c1.216 0 2.219.373 3.008 1.13.788.757 1.211 1.754 1.265 2.986h-1.18c-.053-.906-.365-1.636-.935-2.192-.574-.557-1.293-.835-2.157-.835-1.11 0-1.966.417-2.58 1.252-.611.835-.918 2.002-.918 3.505v.377c0 1.477.307 2.626.918 3.451.614.83 1.477 1.244 2.59 1.244.852 0 1.567-.251 2.147-.754.576-.502.888-1.153.936-1.951H306a3.702 3.702 0 0 1-.632 1.93c-.391.581-.91 1.036-1.555 1.361a4.503 4.503 0 0 1-2.076.496c-1.456 0-2.608-.53-3.46-1.585-.85-1.055-1.277-2.477-1.277-4.259v-.38c0-1.143.19-2.152.574-3.027.382-.879.932-1.558 1.648-2.033.714-.482 1.55-.716 2.506-.716zm8.585-4v6.636a4.51 4.51 0 0 1 1.666-1.563 4.568 4.568 0 0 1 2.216-.552c1.279 0 2.233.34 2.859 1.021.623.68.94 1.702.947 3.064v7.393h-1.312v-7.403c-.008-1.009-.233-1.758-.678-2.25-.448-.496-1.158-.741-2.137-.741a3.47 3.47 0 0 0-2.168.724c-.626.483-1.092 1.134-1.393 1.954V324H309v-16h1.312zm11 0v6.636a4.527 4.527 0 0 1 3.882-2.115c1.282 0 2.232.34 2.859 1.021.623.68.94 1.702.947 3.064v7.393h-1.312v-7.403c-.008-1.009-.233-1.758-.678-2.25-.444-.496-1.157-.741-2.136-.741-.817 0-1.537.242-2.165.724-.63.483-1.095 1.134-1.397 1.954V324H320v-16h1.312zm15.265 4c1.255 0 2.24.326 2.966.967.722.649 1.096 1.548 1.117 2.702v5.477c0 1.12.114 1.958.34 2.515v.13h-1.33v-.002c-.124-.366-.201-.902-.235-1.615a4.36 4.36 0 0 1-1.667 1.35 4.956 4.956 0 0 1-2.145.476c-1.08 0-1.953-.308-2.62-.93-.669-.617-1.003-1.405-1.003-2.352 0-1.127.456-2.015 1.364-2.674.911-.656 2.179-.985 3.808-.985h2.25v-1.316c0-.825-.246-1.477-.743-1.951-.492-.472-1.213-.71-2.16-.71-.869 0-1.583.224-2.15.686-.57.455-.854 1.005-.854 1.646l-1.244-.01c0-.92.415-1.72 1.244-2.393.83-.672 1.852-1.011 3.062-1.011zm8.423-4v16h-1v-16h1zm5.405 2v2.816h2.388v.991h-2.388v7.33c0 .612.112 1.063.349 1.362.23.296.617.445 1.158.445.21 0 .556-.033 1.037-.097l.051.986c-.335.112-.79.167-1.365.167-.874 0-1.514-.241-1.915-.725-.396-.483-.596-1.195-.596-2.139v-7.329H347v-.991h2.124V310h1.281zm6.303 1.998V323h-1.454v-11.002h1.454zm-63.285 6.046h-2.22c-1.243.013-2.21.248-2.908.699-.698.455-1.05 1.075-1.05 1.866 0 .649.233 1.189.702 1.616.465.428 1.073.642 1.823.642.828 0 1.57-.207 2.225-.621a3.591 3.591 0 0 0 1.428-1.657v-2.545zm45.998 0h-2.22c-1.24.013-2.209.248-2.908.699-.698.455-1.049 1.075-1.049 1.866 0 .649.232 1.189.701 1.616.467.428 1.074.642 1.823.642.83 0 1.57-.207 2.226-.621a3.588 3.588 0 0 0 1.427-1.657v-2.545zm25.118-4.962c-1.034 0-1.847.411-2.423 1.236-.58.828-.868 2.04-.868 3.65 0 1.441.285 2.576.855 3.408.576.831 1.378 1.248 2.417 1.248 1.519 0 2.597-.689 3.229-2.07v-5.25c-.288-.721-.7-1.274-1.245-1.655-.547-.374-1.202-.567-1.965-.567zM355.996 308c.307 0 .55.078.734.236a.74.74 0 0 1 .27.584c0 .226-.089.42-.27.574-.184.155-.427.233-.734.233-.304 0-.55-.078-.727-.233a.737.737 0 0 1-.269-.574c0-.232.092-.426.269-.584.177-.158.423-.236.727-.236zM379 308v16h-1v-16h1zm7.676 4c1.324 0 2.381.479 3.157 1.439.776.96 1.167 2.27 1.167 3.93v.716h-7.802v.248c0 1.313.356 2.403 1.071 3.282.705.872 1.602 1.306 2.68 1.306.647 0 1.217-.122 1.71-.373.497-.25.95-.652 1.353-1.198l.757.61c-.892 1.361-2.18 2.04-3.872 2.04-.93 0-1.77-.24-2.52-.726-.749-.482-1.332-1.16-1.75-2.026-.422-.866-.627-1.84-.627-2.916v-.457c0-1.114.202-2.118.609-3.007.407-.89.975-1.593 1.705-2.105a4.025 4.025 0 0 1 2.362-.763zm7.555-4v6.283c.785-1.21 1.945-1.82 3.49-1.82 1.32 0 2.364.503 3.13 1.508s1.149 2.402 1.149 4.19v.181c0 1.74-.383 3.116-1.152 4.131-.77 1.018-1.807 1.527-3.107 1.527-1.559 0-2.731-.574-3.53-1.726l-.052 1.524H393V308h1.231zm14.442 4c1.327 0 2.38.479 3.16 1.439.775.96 1.167 2.27 1.167 3.93v.716h-7.802v.248c0 1.313.356 2.403 1.068 3.282.708.872 1.605 1.306 2.682 1.306.648 0 1.218-.122 1.712-.373.496-.25.945-.652 1.349-1.198l.76.61c-.89 1.361-2.18 2.04-3.872 2.04-.93 0-1.77-.24-2.52-.726-.749-.482-1.335-1.16-1.752-2.026-.42-.866-.625-1.84-.625-2.916v-.457c0-1.114.202-2.118.609-3.007.407-.89.975-1.593 1.705-2.105.724-.509 1.512-.763 2.359-.763zm12.52 0c1.28 0 2.231.352 2.855 1.064.626.712.945 1.78.952 3.204v7.731h-1.31v-7.742c-.013-1.054-.237-1.838-.685-2.353-.44-.518-1.154-.774-2.127-.774-.82 0-1.543.253-2.17.757-.63.505-1.092 1.182-1.4 2.043V324H416v-11.786h1.255l.045 2.015c.448-.726 1.005-1.279 1.673-1.659a4.39 4.39 0 0 1 2.22-.57zm-23.702 1.533c-.792 0-1.46.193-2.01.58-.55.388-.97.956-1.25 1.7v5.018c.618 1.4 1.714 2.099 3.283 2.099 1.015 0 1.814-.403 2.387-1.2.573-.804.861-2.004.861-3.6 0-1.468-.285-2.6-.855-3.4-.572-.796-1.377-1.197-2.416-1.197zm-10.815-.44c-.91 0-1.676.353-2.298 1.06-.622.705-1 1.652-1.134 2.843h6.55v-.14c-.031-1.112-.326-2.015-.897-2.714-.564-.7-1.308-1.049-2.22-1.049zm21.997 0c-.907 0-1.673.353-2.295 1.06-.622.705-1.007 1.652-1.135 2.843h6.552v-.14c-.032-1.112-.333-2.015-.898-2.714-.564-.7-1.308-1.049-2.224-1.049zM443.193 312c1.28 0 2.231.352 2.854 1.064.627.712.946 1.78.953 3.204v7.731h-1.313v-7.742c-.01-1.054-.233-1.838-.681-2.353-.441-.518-1.156-.774-2.128-.774-.819 0-1.543.253-2.17.757-.629.505-1.091 1.182-1.399 2.043V324H438v-11.786h1.256l.045 2.015c.448-.726 1.004-1.279 1.673-1.659a4.387 4.387 0 0 1 2.219-.57zm-8.485-.002V323h-1.45v-11.002h1.45zm-.71-3.998c.307 0 .549.078.73.236a.734.734 0 0 1 .272.584c0 .226-.088.42-.272.574-.181.155-.423.233-.73.233s-.552-.078-.729-.233a.738.738 0 0 1-.269-.574c0-.232.092-.426.27-.584.176-.158.421-.236.729-.236zM284.312 338v7.505c0 2.242.915 3.362 2.75 3.362 1.908 0 3.113-.778 3.62-2.343V338H292v11.785h-1.276l-.02-1.496c-.79 1.14-2.06 1.711-3.796 1.711-1.27 0-2.234-.363-2.893-1.092-.66-.729-1-1.81-1.015-3.241V338h1.312zm14.883-1c1.28 0 2.229.356 2.857 1.068.623.711.938 1.779.948 3.2v7.731h-1.314v-7.743c-.008-1.05-.233-1.834-.678-2.353-.444-.514-1.158-.77-2.132-.77a3.36 3.36 0 0 0-2.168.758c-.63.504-1.097 1.184-1.397 2.041V349H294v-11.782h1.258l.042 2.017c.448-.729 1.008-1.281 1.678-1.664.67-.38 1.408-.571 2.217-.571zM315 333v15.794h-1.154l-.055-1.481C313 348.439 311.836 349 310.3 349c-1.29 0-2.327-.516-3.116-1.547-.791-1.031-1.182-2.425-1.182-4.184v-.143c-.001-1.726.384-3.104 1.16-4.125.776-1.029 1.827-1.54 3.157-1.54 1.512 0 2.66.594 3.454 1.778V333H315zm-4.452 5.53c-1.042 0-1.852.405-2.43 1.218-.58.812-.87 2.01-.87 3.596 0 1.42.286 2.539.86 3.358.57.82 1.376 1.23 2.418 1.23 1.522 0 2.604-.669 3.246-2.007v-5.224c-.642-1.45-1.718-2.17-3.224-2.17zM324.312 338v7.505c0 2.242.915 3.362 2.747 3.362 1.91 0 3.113-.778 3.621-2.343V338H332v11.785h-1.275l-.024-1.496c-.792 1.14-2.057 1.711-3.796 1.711-1.269 0-2.233-.363-2.89-1.092-.662-.729-1.001-1.81-1.015-3.241V338h1.312zm22.949-1c2.442 0 3.688 1.379 3.739 4.139v7.86h-1.264v-7.763c-.007-1.054-.224-1.831-.658-2.343-.436-.504-1.138-.76-2.114-.76-.903.014-1.672.317-2.3.909a3.25 3.25 0 0 0-1.04 2.163v7.794h-1.267v-7.86c-.007-1.009-.236-1.762-.689-2.263-.455-.494-1.15-.743-2.092-.743-.795 0-1.476.236-2.046.702-.571.47-.993 1.165-1.265 2.087V349H335v-11.782h1.211l.04 1.917c.422-.712.95-1.244 1.584-1.603a4.263 4.263 0 0 1 2.106-.532c1.8 0 2.942.764 3.428 2.287.408-.732.953-1.3 1.634-1.693a4.404 4.404 0 0 1 2.258-.594zM388.315 338c1.52 0 2.677.613 3.47 1.838l.062-1.63H393v11.064c0 1.454-.4 2.606-1.205 3.453-.807.851-1.894 1.275-3.27 1.275-.78 0-1.52-.176-2.228-.53-.708-.347-1.264-.817-1.67-1.4l.694-.752c.874 1.087 1.913 1.626 3.119 1.626 1.035 0 1.837-.308 2.415-.92.58-.62.88-1.475.9-2.564v-1.42c-.792 1.116-1.946 1.67-3.46 1.67-1.297 0-2.336-.52-3.118-1.567-.787-1.04-1.176-2.45-1.176-4.224v-.17c-.001-1.765.385-3.166 1.162-4.195.774-1.037 1.822-1.554 3.152-1.554zm53 0c1.52 0 2.677.613 3.467 1.838l.065-1.63H446v11.064c0 1.454-.4 2.606-1.205 3.453-.807.851-1.897 1.275-3.273 1.275a4.905 4.905 0 0 1-2.224-.53c-.708-.347-1.265-.817-1.671-1.4l.694-.752c.872 1.087 1.913 1.626 3.12 1.626 1.032 0 1.837-.308 2.414-.92.58-.62.878-1.475.9-2.564v-1.42c-.792 1.116-1.945 1.67-3.459 1.67-1.297 0-2.337-.52-3.123-1.567-.782-1.04-1.172-2.45-1.172-4.224v-.17c-.001-1.765.382-3.166 1.158-4.195.777-1.037 1.826-1.554 3.156-1.554zm-68.003 0v7.505c0 2.242.915 3.362 2.747 3.362 1.909 0 3.112-.778 3.622-2.343V338H381v11.785h-1.277l-.022-1.496c-.796 1.14-2.055 1.711-3.796 1.711-1.268 0-2.234-.363-2.89-1.092-.663-.729-.998-1.81-1.015-3.241V338h1.312zm26.252 0c1.319 0 2.375.319 3.176.957.795.642 1.197 1.47 1.197 2.498h-1.311c0-.675-.292-1.239-.868-1.69-.583-.448-1.312-.676-2.194-.676-.86 0-1.555.188-2.076.565-.52.376-.784.861-.784 1.458 0 .577.219 1.025.656 1.34.434.323 1.222.611 2.37.873 1.153.264 2.014.545 2.582.845.574.298.997.661 1.275 1.082.274.421.413.93.413 1.528 0 .98-.4 1.757-1.208 2.345-.805.583-1.857.875-3.155.875-1.378 0-2.496-.326-3.35-.978-.856-.652-1.287-1.476-1.287-2.474h1.315c.048.747.375 1.33.965 1.747.597.418 1.382.625 2.357.625.913 0 1.648-.193 2.21-.587.563-.393.844-.889.844-1.486 0-.638-.26-1.143-.78-1.53-.525-.387-1.312-.69-2.36-.903-1.049-.22-1.865-.468-2.444-.75-.58-.28-1.006-.628-1.291-1.032-.278-.407-.423-.898-.423-1.476 0-.913.391-1.666 1.172-2.26.778-.597 1.778-.896 3-.896zm20.748 0v7.505c0 2.242.915 3.362 2.747 3.362 1.909 0 3.113-.778 3.622-2.343V338H428v11.785h-1.277l-.021-1.496c-.796 1.14-2.056 1.711-3.797 1.711-1.27 0-2.234-.363-2.89-1.092-.663-.729-.998-1.81-1.015-3.241V338h1.312zm-55.186-4L371 349h-1.364l-1.607-4.213h-7.051l-1.6 4.213H358l5.878-15h1.248zm43.102-1v6.283c.783-1.213 1.945-1.82 3.489-1.82 1.322 0 2.364.502 3.13 1.508.77 1.004 1.153 2.401 1.153 4.189v.186c0 1.735-.383 3.112-1.153 4.127-.773 1.018-1.808 1.527-3.112 1.527-1.552 0-2.731-.575-3.527-1.73l-.055 1.524H407V333h1.228zm26.986 4c.335 0 .594.048.786.142l-.027 1.189a4.01 4.01 0 0 0-.805-.08c-.744 0-1.372.232-1.89.685-.51.452-.876 1.109-1.098 1.973V349H431v-11.782h1.16l.02 1.876c.63-1.396 1.643-2.094 3.034-2.094zm-46.67 2.086c-1.042 0-1.848.41-2.424 1.235-.583.824-.872 2.04-.872 3.65 0 1.44.286 2.575.859 3.407.57.83 1.376 1.247 2.418 1.247 1.52 0 2.594-.689 3.23-2.07v-5.248c-.289-.722-.707-1.275-1.251-1.655-.545-.378-1.197-.566-1.96-.566zm53 0c-1.041 0-1.851.41-2.428 1.235-.58.824-.868 2.04-.868 3.65 0 1.44.285 2.575.855 3.407.574.83 1.38 1.247 2.419 1.247 1.52 0 2.598-.689 3.233-2.07v-5.248c-.291-.722-.708-1.275-1.251-1.655-.544-.378-1.196-.566-1.96-.566zm-30.059-.553c-.792 0-1.46.192-2.011.58-.55.388-.967.956-1.248 1.703v5.018c.62 1.396 1.714 2.095 3.286 2.095 1.014 0 1.814-.402 2.384-1.2.577-.803.865-2.004.865-3.6 0-1.468-.285-2.6-.858-3.399-.57-.796-1.376-1.197-2.418-1.197zm-46.988-2.987l-3.113 8.168h6.229l-3.116-8.168z" fill="#404040"/></g></svg>