<svg width="974" height="500" xmlns="http://www.w3.org/2000/svg"><g fill="#000" fill-rule="nonzero"><path d="M272.914 206.328c3.807-1.759 9.08-3.81 14.644-3.518 4.98.293 9.958 2.345 13.766 5.57 7.908 6.74 10.251 19.051 4.98 28.43-2.637 4.983-7.03 8.207-10.838 10.552-2.343 1.466-4.686 2.931-7.03 4.104l7.616 13.19.519-.44c1.924-1.61 4.094-3.2 6.51-4.544 7.323-4.103 16.695-2.93 22.846 2.931 6.443 6.156 7.322 16.414 2.05 23.449-3.515 4.69-9.373 7.62-15.523 7.62-2.93 0-5.858-.586-8.494-1.758-3.222-1.466-5.858-3.81-8.2-7.62l8.786-4.984c1.171 2.345 3.807 3.81 6.443 4.397 2.343.586 4.687 0 6.737-1.173 1.757-1.172 3.222-3.224 3.514-5.275.586-2.345 0-4.69-1.464-6.449-1.464-1.758-3.515-3.224-5.858-3.517-2.343-.586-4.686 0-6.736 1.466-1.172.879-3.808 2.638-5.858 4.103l-27.531 19.931-1.465.88-.879-1.466-36.904-64.19 1.465-.88s24.603-14.068 28.117-16.12c.586-.293 1.465-.88 2.05-1.172 2.344-1.173 4.394-2.345 6.737-3.517zm18.452 7.62c-4.686-2.051-10.837-1.172-17.866 2.931l-25.482 14.655 27.532 47.776c4.686-3.224 8.494-6.155 12.301-8.793l-13.473-22.569 1.465-.879s7.03-4.103 11.13-6.448c9.079-5.276 10.543-8.207 11.422-10.845 2.05-6.155-1.171-13.19-7.03-15.828z"/><path d="M284.922 165.88c46.57 0 84.352 37.517 84.352 84.12s-37.782 84.707-84.352 84.707c-46.569 0-84.352-37.81-84.352-84.414 0-46.603 37.783-84.414 84.352-84.414zm0 10.258c-40.711 0-73.808 33.12-73.808 73.862 0 41.034 33.097 74.155 73.808 74.155 41.005 0 74.101-33.12 74.101-74.155 0-40.741-33.39-73.862-74.1-73.862zM417.894 223.914c12.594 0 21.673 9.38 21.38 21.983 0 13.19-8.493 22.275-21.38 22.275-4.98 0-11.13-1.465-14.059-5.862l-.879-1.465v24.62h-9.665v-60.672h9.08l.878 7.035.879-1.173c3.515-4.983 9.372-6.741 13.766-6.741zm-.879 9.38c-7.615 0-12.887 5.275-12.887 12.896 0 7.327 5.565 12.896 12.887 12.896s12.887-5.569 12.887-12.896c0-7.621-5.272-12.897-12.887-12.897zM570.782 229.776l-.586 1.172-.879-5.862h-9.08v42.5h9.666v-22.569c0-7.327 4.1-11.43 11.423-11.43 3.514 0 5.564.879 7.615 2.637l4.393-8.5c-2.343-2.345-6.444-3.81-10.544-3.81-4.393 0-8.787.586-12.008 5.862zM605.635 206.328c-2.929 0-5.857 1.758-5.857 5.862 0 4.103 2.928 5.862 5.857 5.862 2.93 0 5.858-1.759 5.858-5.862-.293-4.104-3.222-5.862-5.858-5.862zM600.656 224.793h9.665v42.5h-9.665zM659.234 220.69l6.736 5.569-4.686 6.155.293.293c2.929 3.517 4.393 7.62 4.393 12.603 0 2.931-.585 12.018-8.786 15.828l-.879.586.879.586c6.15 2.931 8.786 7.035 8.786 13.776 0 11.138-8.786 18.759-21.38 18.759-12.302 0-21.088-7.62-21.381-18.466h9.665c.293 5.276 5.565 9.38 12.008 9.38 6.737 0 11.423-4.104 11.423-9.966 0-6.448-5.858-9.38-11.423-9.38-13.18 0-21.38-8.206-21.38-21.396 0-12.603 8.786-21.396 21.38-21.396 2.93 0 6.444.293 9.666 2.345l.293.293 4.393-5.57zm-14.645 11.43c-7.029 0-12.008 5.57-12.008 12.897 0 7.328 4.98 12.604 12.008 12.604 7.03 0 12.009-5.276 11.716-12.604 0-7.62-4.98-12.896-11.716-12.896zM698.481 223.914c12.887 0 22.26 9.38 22.26 22.276 0 13.19-9.08 22.276-22.26 22.276-12.887 0-21.967-9.087-21.967-22.276 0-12.897 9.373-22.276 21.967-22.276zm0 8.793c-8.2 0-12.301 6.741-12.301 13.483 0 6.155 3.807 13.19 12.301 13.19s12.301-6.742 12.301-13.19c0-6.742-4.686-13.483-12.301-13.483zM755.594 224.207c-5.272 0-9.372 2.052-14.058 6.448l-.88.586-.878-6.448h-8.786v42.5h9.665v-21.69c0-7.327 4.98-12.603 11.715-12.603 6.737 0 11.13 4.69 11.13 12.017v22.276h9.666v-22.276c.292-12.31-6.737-20.81-17.574-20.81zM471.785 223.914c7.03 0 12.594 2.052 16.402 6.155 3.808 4.397 5.565 11.138 4.98 19.638H459.19v.586c.879 5.862 5.858 9.673 13.473 9.673 4.979 0 9.665-1.466 13.473-4.397l4.393 7.328c-4.1 3.81-11.423 5.862-17.866 5.862-14.352 0-23.431-8.5-23.431-22.57 0-13.189 9.08-22.275 22.552-22.275zm.293 8.207c-6.443 0-11.13 3.224-12.594 8.793l-.293.586h24.603v-.586c-.586-5.57-4.98-8.793-11.716-8.793zM526.848 223.914c7.03 0 12.594 2.052 16.402 6.155 3.808 4.397 5.565 11.138 4.98 19.638h-33.976v.586c.879 5.862 5.858 9.673 13.473 9.673 4.979 0 9.665-1.466 13.473-4.397l4.393 7.328c-4.1 3.81-11.423 5.862-17.866 5.862-14.352 0-23.431-8.5-23.431-22.57 0-13.189 9.08-22.275 22.552-22.275zm.293 8.207c-6.443 0-11.13 3.224-12.594 8.793l-.293.586h24.603v-.586c-.586-5.57-4.98-8.793-11.716-8.793z"/></g></svg>