<svg version="1.1" id="Ebene_1" xmlns="http://www.w3.org/2000/svg" x="0" y="0" viewBox="0 0 1235 550" xml:space="preserve">
  <path class="st0" d="M959.1 184.3c50.1 0 90.8 40.7 90.8 90.7s-40.7 90.7-90.8 90.7-90.8-40.7-90.8-90.7 40.7-90.7 90.8-90.7m0-19c-60.6 0-109.8 49.1-109.8 109.7s49.2 109.7 109.8 109.7 109.8-49.1 109.8-109.7-49.2-109.7-109.8-109.7z"/>
  <path class="st0" d="M1014.7 285l-.4.3.4-.3c-9.8-9.6-19.4-10.4-31.7-4.2-2.1 1.1-5.4 3.5-8.4 5.6-.6.5-1.3.9-1.9 1.3l-5.6-9.5c5.6-3 16.2-8.4 21.8-17.7 3.7-6.2 4.8-14 3.1-22-1.6-7.5-5.6-14.5-10.9-19.2-5.7-5-12.5-8.2-18.6-8.6-8.1-1-16 1.5-19.9 3.2-2.1.9-5.4 2.6-7.9 4l-2.9 1.5c-4.4 2.5-37.9 22.7-39.3 23.5l-1.6 1L939 334l1.9-1.4c.2-.1 18.9-14 29-21.6 4.9-3.7 8.7-6.7 11.5-8.9 1.9-1.5 3.3-2.6 4.3-3.4 5.3-4 10.7-4.8 14.8-2.3 3.2 2 4.9 5.6 4.2 9.3-.6 3.5-2.7 6.3-5.9 7.9-3.4 1.7-7.5 1.6-10.9-.2-3.4-1.8-6.1-3.7-6.1-3.7l-1.8-1.3-9 15 1.7 1c.3.2.8.5 1.2.8 3.5 2.3 9.9 6.4 16.7 7 10.9.9 21.2-5.6 26.1-12.1 9.6-12.5 5.9-26.7-2-35.1zm-70 22.4L914 250.9l31.6-18.7c2-1.1 4-2 5.9-2.7h.1c.1 0 .2-.1.3-.1 1.3-.5 2.6-.7 3.7-.9 2.8-.5 6.1.1 9.8 1.9 6 2.7 10.3 11.4 8.9 18 0 .2-.1.5-.1.8-.5 2.7-1.4 7.6-9.9 12.7-8.3 4.9-19.6 10.9-19.6 10.9l13.9 24.8-13.9 9.8zM215.8 239.1c-9.5 0-17.3 3.4-23 10l-.9 1v-8.8h-21.3v119.9l21.7-6.1v-42.3l.9 1c5.7 6.3 13.3 9.5 22.7 9.5 22 0 38.7-18.1 38.7-42-.1-24.2-16.7-42.2-38.8-42.2zm-4 64.1c-12.1 0-20.6-9.1-20.6-22.1 0-13 8.5-22.1 20.6-22.1 12.2 0 20.7 9.1 20.7 22.1 0 13-8.5 22.1-20.7 22.1zM305.1 239.6c-23.7 0-40.2 17.3-40.2 42.1 0 24.9 16.6 41.6 41.3 41.6 13.8 0 25.1-4 33.9-12l-12.5-13.7c-5.7 4.8-13.2 7.6-20.1 7.6-10.9 0-18.1-5.7-20.4-16l-.1-.6h56.4c.2-1.8.4-4.7.4-7.2-.2-25-15.7-41.8-38.7-41.8zm-18.6 34.6l.1-.6c2.2-10.3 8.5-15.8 18.3-15.8 9.3 0 15.5 5.6 17.7 15.8l.1.6h-36.2zM394.3 239.6c-23.7 0-40.2 17.3-40.2 42.1 0 24.9 16.6 41.6 41.3 41.6 13.8 0 25.1-4 33.9-12l-12.5-13.7c-5.7 4.8-13.2 7.6-20.1 7.6-10.9 0-18.1-5.7-20.4-16l-.1-.6h56.5c.2-1.8.4-4.7.4-7.2-.3-24.6-16.2-41.8-38.8-41.8zm-18.6 34.6l.1-.6c2.2-10.3 8.5-15.8 18.3-15.8 9.2 0 15.5 5.6 17.7 15.8l.1.6h-36.2zM469.8 249.3l-.9 1.2v-8.7h-20.7v79.5h21.4V278c0-11.2 6.3-17.9 16.8-17.9 4.4 0 9.5 1 12.9 2.5l3.2-21.2c-3.2-1.2-6.9-1.7-11.1-1.7-9.6-.1-16.8 3.2-21.6 9.6zM511.5 241.8h21.4v79.5h-21.4zM584.9 239.6c-20.9 0-36.6 17.5-36.6 40.6s15.7 40.5 36.6 40.5c9.9 0 17.9-3.3 23.6-9.8l.9-1v5.6c0 13-8.7 21.1-22.7 21.1-9.3 0-18.1-2.7-26.3-8.1l-7.6 17.4c8.5 6 21.5 9.6 34.8 9.6 26.5 0 42.9-15.7 42.9-40.9v-73h-20.9v8.9l-.9-1c-5.8-6.4-14-9.9-23.8-9.9zm25.4 40.6c0 12.1-8.4 20.9-20 20.9s-20.1-8.8-20.1-20.9c0-12.2 8.4-21 20.1-21 11.6.1 20 8.9 20 21zM685.4 239.6c-24.5 0-42.9 18-42.9 41.8 0 23.9 18.5 41.8 42.9 41.8 24.6 0 43.1-18 43.1-41.8 0-23.8-18.5-41.8-43.1-41.8zm0 63.8c-12.3 0-21.1-9.2-21.1-22 0-12.7 8.9-22 21.1-22 12.3 0 21.2 9.2 21.2 22 .1 12.8-8.9 22-21.2 22zM788 239.6c-9.7 0-17.5 3.6-22.5 10.3l-.9 1.2v-9.4h-20.8v79.5h21.4v-43.6c0-10.9 6.6-18 16.9-18 9.9 0 15.6 6.5 15.6 17.9v43.7h21.4v-50.6c-.2-18.2-12.9-31-31.1-31zM522.1 207c-7.3 0-13 5.8-13 13.2 0 7.4 5.6 13 13 13 7.3 0 13.1-5.7 13.1-13 0-7.4-5.7-13.2-13.1-13.2z"/>
</svg>
