<svg width="728" height="500" xmlns="http://www.w3.org/2000/svg"><g fill="#000" fill-rule="evenodd"><path d="M335.737 211.217c.027.26.073.503.073.745.003 5.526.024 11.051-.012 16.577-.015 2.296-.386 4.547-1.233 6.702-1.361 3.458-3.807 5.808-7.327 6.948-4.296 1.392-8.633 1.46-12.929-.026-3.129-1.083-5.282-3.252-6.565-6.279a17.025 17.025 0 0 1-1.354-6.565c-.022-3.15-.026-6.3-.028-9.45l-.004-4.726v-3.89h9.17v1.14c0 5.343.003 10.686 0 16.03 0 1.424.162 2.818.642 4.17 1.374 3.877 5.51 4.062 7.8 2.663 1.078-.659 1.67-1.688 2.07-2.846.478-1.39.595-2.84.6-4.29.014-3.466.013-6.932.011-10.398l-.002-5.198v-1.307h9.088zm82.97-.525c1.925.145 3.825.367 5.67.95.477.151.935.368 1.532.607l-1.875 7.078c-1.089-.303-2.047-.616-3.026-.833-2.331-.517-4.685-.61-7.026-.098-3.604.79-5.89 3.445-6.392 6.74-.218 1.428-.207 2.826.167 4.205.95 3.506 3.397 5.4 6.844 6.057 3.13.595 6.21.19 9.377-.838l1.428 7.096c-.727.251-1.387.543-2.076.707-4.853 1.154-9.713 1.249-14.52-.191-5.59-1.674-9.323-5.25-10.574-11.045-1.049-4.857-.373-9.471 2.644-13.562 1.93-2.618 4.527-4.374 7.56-5.492 3.317-1.223 6.738-1.648 10.267-1.381zm-25.351 1.735l-2.093 7.189c-1.277-.393-2.461-.832-3.682-1.114-1.913-.44-3.857-.757-5.82-.329-.52.114-1.058.312-1.49.612-.935.647-.942 1.67-.043 2.363.396.305.854.564 1.324.734 1.874.678 3.787 1.253 5.639 1.985 1.173.464 2.309 1.064 3.382 1.73 3.577 2.222 4.605 6.142 3.662 9.779-.857 3.31-3.145 5.342-6.202 6.523-3.09 1.195-6.322 1.508-9.631 1.212-2.51-.225-4.95-.697-7.304-1.599a10.38 10.38 0 0 1-.795-.354c-.126-.06-.24-.148-.39-.243l.748-2.918 1.138-4.436c.325.11.59.184.842.289 2.844 1.18 5.769 1.97 8.882 1.808.612-.032 1.241-.095 1.819-.279a3.257 3.257 0 0 0 1.276-.777c.718-.722.647-1.764-.173-2.373a7.103 7.103 0 0 0-1.81-.97c-1.74-.624-3.53-1.109-5.252-1.772-1.974-.76-3.788-1.785-5.233-3.419-2.724-3.077-2.586-8.092.11-11.21 1.632-1.886 3.732-3.027 6.098-3.597 5.045-1.216 9.995-.782 14.998 1.166zM256.3 210.983c3.177.006 6.274.577 9.201 1.888 4.431 1.985 7.392 5.217 8.233 10.085.824 4.763.067 9.252-2.872 13.218-1.858 2.507-4.412 4.06-7.304 5.092a27.64 27.64 0 0 1-7.863 1.565c-2.245.12-4.498.185-6.746.143-1.883-.035-3.763-.253-5.642-.406-.208-.018-.411-.087-.62-.153l-.21-.062v-30.624c.886-.423 1.885-.438 2.829-.477 3.662-.152 7.33-.274 10.994-.269zm231.788.256c.028 1.941.02 3.873.017 5.86l-.002 1.502h-13.422v4.32h12.552v7.415c-1.017.009-2.055.022-3.093.026l-1.581.002h-7.856v4.816h14.022v7.278c-.75.21-20.934.282-23.129.082l-.076-.008V211.24h22.568zm-121.344.005v7.443h-8.62l-.164.168c-.024.027-.06.053-.067.084-.02.106-.04.213-.04.32-.008 7.704-.014 15.407-.023 23.11 0 .011-.003.022-.007.033l-.033.063c-.765.204-7.257.265-9.096.072v-23.78h-8.653c-.247-.873-.305-5.732-.112-7.513h26.815zm72.742-.013c.045.902.014 1.833.02 2.762l.003 1.363-.002 1.364v5.665c.967.192 1.904.068 2.828.09.63.015 1.26.012 1.89.009l.946-.004h5.636v-11.248h9.132v31.346h-9.1v-12.024c-.791-.227-9.222-.296-11.188-.105l-.124.014v12.099h-9.132V211.23h9.09zm87.779.024c.189.74.25 29.115.056 31.255l-.006.058h-31.13c-.207-.776-.276-29.108-.08-31.255l.007-.058h31.153zm-226.447.016l.073.008v7.236c-.82.187-1.685.065-2.54.085-.606.014-1.212.012-1.818.009l-.91-.004h-8.007v4.329l2.044.002 2.05.001h8.49v7.433h-12.595v4.806h13.832c.214.821.273 5.406.115 7.208l-.017.177H278.34v-31.215c.752-.21 20.432-.275 22.48-.075zm-67.76-.033v31.298h-31.213v-31.298h31.213zm18.917 6.8c-.073.006-.144.056-.23.11l-.092.052v17.625c1.856.09 3.6.136 5.314-.241 2.256-.497 4.256-1.45 5.643-3.405 1.228-1.728 1.647-3.687 1.645-5.763-.005-4.18-2.081-6.912-6.116-8.053-2.029-.574-4.095-.48-6.164-.324z"/><path d="M426.103 250.2c3.408.57 6.465 1.887 9.155 4.035 2.717 2.171 4.712 4.918 6.186 8.05 1.655 3.515 2.574 7.225 2.91 11.091.504 5.78.044 11.458-1.808 16.979-1.097 3.269-2.732 6.243-5.107 8.782-2.706 2.891-5.986 4.786-9.818 5.755-4.09 1.035-8.187 1.107-12.27.013-5.247-1.405-9.154-4.608-11.975-9.174-2.165-3.504-3.462-7.341-4.017-11.412-.289-2.118-.423-4.256-.627-6.385.098-5.203 1.015-10.202 3.258-14.903 2.923-6.125 7.402-10.538 14.085-12.394 3.3-.916 6.643-1.005 10.028-.438zm-159.838-.24c2.038.204 4.014.593 5.921 1.33 4.223 1.63 7.429 4.476 9.815 8.28 2.21 3.526 3.538 7.383 4.102 11.491.286 2.08.408 4.184.603 6.277-.115 4.472-.671 8.843-2.128 13.075-1.1 3.192-2.674 6.111-4.987 8.604-2.93 3.159-6.502 5.16-10.717 6.067-3.755.807-7.497.844-11.217-.11-5.009-1.284-8.871-4.203-11.73-8.475-2.297-3.43-3.635-7.233-4.386-11.275a39.346 39.346 0 0 1-.592-9.545c.353-5.971 1.883-11.588 5.353-16.557 2.93-4.194 6.8-7.121 11.771-8.473 2.68-.729 5.408-.97 8.192-.69zm125.774.244c1.924.197 3.798.58 5.606 1.264.368.139.722.315 1.2.525l-2.349 11.045c-.44-.144-.775-.247-1.105-.363-3.275-1.146-6.605-1.66-10.05-.892-4.363.973-7.247 3.652-8.89 7.737-.874 2.174-1.289 4.45-1.353 6.794-.083 3.03.058 6.021 1.096 8.917 1.322 3.689 3.642 6.42 7.39 7.773 2.038.735 4.151.934 6.321.78 2.18-.154 4.313-.49 6.492-1.224l1.608 11.03c-.805.555-1.736.744-2.638.978-2.97.77-6.009 1.078-9.062 1.033-3.945-.059-7.799-.671-11.437-2.324-4.239-1.926-7.524-4.895-9.86-8.911-1.811-3.112-2.881-6.475-3.434-10.028a37.848 37.848 0 0 1-.37-8.042c.327-5.632 1.673-10.965 4.93-15.683 3.147-4.56 7.402-7.605 12.66-9.314 4.337-1.41 8.758-1.557 13.245-1.095zm-72.359 1.553c.34.126.673.27 1.004.417.163.072.315.168.552.296l-2.513 11.289c-.45-.195-.843-.368-1.238-.535-2.877-1.217-5.877-1.855-9.002-1.791-1.421.029-2.815.285-4.068 1.038-1.709 1.026-2.404 2.982-1.491 4.683a5.093 5.093 0 0 0 1.764 1.863c1.702 1.033 3.477 1.957 5.275 2.815 2.359 1.126 4.75 2.175 6.855 3.764 3.39 2.558 5.69 5.815 6.264 10.081.777 5.773-.576 10.896-5.012 14.928-2.39 2.173-5.262 3.455-8.383 4.187-4.263 1-8.548 1.031-12.858.3-2.296-.39-4.547-.918-6.704-1.808-.398-.164-.787-.349-1.305-.579a502.115 502.115 0 0 1 2.277-11.513c1.165.468 2.19.914 3.238 1.295a26.26 26.26 0 0 0 9.06 1.593 10.473 10.473 0 0 0 3.628-.624c3.524-1.297 3.717-5.32 1.413-7.181-1.061-.858-2.275-1.553-3.488-2.192-1.571-.827-3.234-1.48-4.815-2.288-2.339-1.195-4.501-2.651-6.374-4.519-2.22-2.214-3.797-4.796-4.276-7.912-.702-4.574.22-8.814 3.06-12.535 2.685-3.523 6.383-5.476 10.63-6.3 5.585-1.085 11.123-.767 16.507 1.228zm146.596-1.456c4.409.177 8.735.82 12.772 2.765 3.98 1.917 7.102 4.742 9.206 8.65 1.708 3.172 2.629 6.572 3.022 10.146.299 2.722.327 5.447.146 8.163-.333 4.975-1.49 9.729-4.087 14.067-2.486 4.153-6.036 6.996-10.493 8.774-2.986 1.191-6.095 1.833-9.279 2.206a57.346 57.346 0 0 1-9.353.32c-2.754-.129-5.5-.403-8.249-.625-.257-.02-.51-.09-.791-.157l-.217-.05V251.31c2.011-.221 3.954-.44 5.898-.647a78.5 78.5 0 0 1 11.425-.361zm60.003.457l.065.006v11.407H509.22v9.151c2.685.074 5.363.023 8.039.033 2.69.009 5.38.002 8.057.002.232.774.32 8.512.134 11.164l-.013.17h-16.225v10.645c1.218.122 2.41.043 3.598.057.8.01 1.6.008 2.4.006l1.2-.002h10.961v11.27c-.767.228-27.797.334-31.232.11l-.099-.006v-53.936c.744-.205 27.932-.278 30.24-.077zm-307.042-.469c2.76.092 5.493.417 8.147 1.253 6.425 2.023 9.934 6.489 10.932 13.046.529 3.475.15 6.89-.982 10.197-1.633 4.767-4.93 7.935-9.607 9.74-3.69 1.423-7.514 1.866-11.434 1.727-.332-.012-.665-.006-1.093-.003h-.27v18.4c-.832.223-11.06.284-12.935.099l-.104-.012V251.35c1.505-.21 2.999-.474 4.503-.618 4.27-.41 8.554-.586 12.843-.443zm142.281.439v11.902h-12.04v42.156h-13.187v-42.095H324.53v-11.963h36.988zm100.949 10.482l-.403.11v32.994c2.789.436 5.464.21 8.003-.95 3.086-1.412 4.974-3.918 6.12-7.037.807-2.194 1.176-4.47 1.372-6.798.249-2.96.089-5.875-.558-8.761a15.045 15.045 0 0 0-1.7-4.34c-2.067-3.525-5.21-5.24-9.221-5.458-1.2-.065-2.405-.054-3.613.24zm-45.501 2.024c-1.646 1.688-2.589 3.76-3.192 5.989-1.411 5.214-1.372 10.486-.37 15.75.449 2.361 1.305 4.602 2.786 6.558 2.886 3.81 8.389 3.851 11.162-.093a14.448 14.448 0 0 0 1.902-3.774c1.08-3.243 1.395-6.59 1.447-9.991-.12-1.701-.214-3.405-.374-5.102-.074-.79-.242-1.577-.427-2.352-.567-2.383-1.386-4.652-2.987-6.576-2.667-3.206-7.038-3.393-9.947-.409zm-157.906-.056c-1.199 1.21-2.026 2.649-2.632 4.22-1.287 3.338-1.69 6.816-1.594 10.37-.069 2.585.125 5.152.721 7.675.564 2.39 1.436 4.641 3.065 6.538 2.675 3.115 7.345 3.156 9.958.41 1.415-1.489 2.29-3.264 2.871-5.19.738-2.442 1.042-4.951 1.195-7.501.213-3.549-.066-7.03-.951-10.466-.53-2.06-1.368-3.974-2.747-5.626-2.618-3.14-7.008-3.332-9.886-.43zm-43.658-2.07l-.438.093v14.146c2.352.369 4.595.261 6.73-.756 1.467-.699 2.498-1.845 3.128-3.337.743-1.76.821-3.589.416-5.435-.607-2.76-2.398-4.35-5.122-4.792a13.345 13.345 0 0 0-4.714.082z" opacity=".6"/><path d="M289.022 312.05c3.445.097 6.75.68 9.837 2.209 4.878 2.414 7.872 6.318 8.54 11.725 1.09 8.822-3.605 15.256-11.205 17.697-5.35 1.718-10.745 1.745-16.024-.268-5.096-1.943-8.513-5.55-9.63-10.965-1.204-5.83.116-11.054 4.479-15.284 2.49-2.416 5.549-3.83 8.935-4.476 1.67-.318 3.377-.432 5.067-.638zm134.59.46l1.852.005c2.43.023 4.85.366 7.153 1.244 1.942.74 3.67 1.776 4.76 3.623 2.35 3.988 1.5 8.88-3.377 11.583-.345.19-.7.363-1.154.597 2.561 1.424 3.637 3.786 4.463 6.304.903 2.753 1.768 5.52 2.649 8.28-.766.212-7.749.286-10.028.094-.874-1.602-1.444-3.284-1.984-4.977-.297-.933-.568-1.875-.867-2.807-.133-.414-.3-.817-.464-1.22-.623-1.537-1.793-2.348-3.421-2.461-.75-.052-1.505-.026-2.322-.015l-.499.003v11.484h-9.82v-31.104c1.288-.144 2.54-.368 3.797-.41 2.47-.08 4.94-.166 7.41-.204l1.852-.019zm64.47.247c.032 2.417.007 4.837.015 7.191-.083.092-.105.12-.131.144-.027.024-.054.057-.086.063-.105.024-.212.052-.319.052-4.653.013-9.307.024-13.96.036-.027 0-.053.01-.11.027l-.069.02v4.184h13.736v7.539H473.4v4.813h15.24c.227.855.29 5.058.13 7.326-.771.2-23.65.237-25.32.038l-.051-.007v-31.426h24.682zm-148.793.008c.003 1.193.008 2.414.01 3.635v3.845c-.816.014-1.596.033-2.377.039l-1.255.003-1.254-.002h-4.889v24h-10.018c-.004-1.347-.009-2.677-.01-4.007l-.001-1.964v-17.996h-9.538v-7.553h29.332zm116.367-.005c.196.74.27 29.59.063 31.524h-9.735c-.213-.788-.298-29.496-.094-31.524zm-83.033-.004c.205.719.255 5.868.062 7.398l-.02.136h-9.64v23.982h-9.951c-.028-1.341-.01-2.671-.013-4l-.002-1.963.001-1.964v-16.078h-9.54v-7.51h29.103zm-129.891.009h9.894c.081 1.249.022 2.543.033 3.834l.005 2.017-.003 2.018v15.903h14.623v7.72h-24.45c-.221-.736-.325-28.308-.109-31.404l.007-.088h9.894zm159.9.03l.061.007v7.403c-1.237.011-2.46.004-3.681.005H388.078v4.249c.88.009 1.77.023 2.659.027l1.364.003 1.363-.002h8.36v7.442c-1.117.13-2.27.043-3.418.059-.376.005-.752.007-1.127.007l-2.255-.004h-6.932v4.866c1.667.021 3.36.007 5.053.01H403.435v7.386h-25.352v-31.395c.699-.201 22.633-.268 24.549-.063zm-169.497.114v31.263h-31.18c-.201-.773-.26-29.173-.064-31.208l.007-.055h31.237zm294.224.005v31.256h-31.3v-31.256h31.3zm-245.904 11.583c-.682 1.847-.845 3.73-.622 5.673.372 3.24 2.437 6.994 7.122 7.462 3.587.358 6.554-1.286 7.931-4.188 1.52-3.201 1.552-6.48.016-9.676-1.382-2.876-3.757-4.332-8.027-4.43-2.561-.109-5.364 2.299-6.42 5.159zm139.347-5.111l-.412.048v6.717h1.037c.5 0 .977 0 1.455-.002.327-.001.658.01.98-.03 1.117-.142 2.24-.271 3.24-.86 1.36-.798 1.924-2.157 1.49-3.617-.321-1.078-1.118-1.681-2.136-1.996-1.855-.573-3.736-.479-5.654-.26z" opacity=".8"/><path d="M197.706 158.108l25.948 8.865-25.731 20.758s25.106-9.003 55.383-8.647c56.536.665 89.338 12.632 114.814 12.537 22.564-.083 21.815-3.243 21.815-3.243s.536-3.546-25.515-6.317c-25.755-2.739-25.876-6.004-25.876-6.004v-17.3s-51.438-9.659-84.546-9.659c-29.984 0-56.292 9.01-56.292 9.01" opacity=".45"/><path d="M389.935 188.378s.536-3.546-25.515-6.317c-25.755-2.739-25.876-6.004-25.876-6.004-.003 0-.684-2.777 13.082-3.318 12.925-.507 24.294.775 38.31 3.027v12.612" opacity=".55"/><path d="M529.812 147.08s-24.402 8.851-60.737 8.745c-32.963-.096-85.579-12.877-109.845-12.877-19.508 0-20.758 3.123-20.758 3.123l.072 29.986c-.003 0-.684-2.777 13.082-3.318 12.925-.507 24.294.775 38.31 3.027 0 .18 47.33 9.777 84.617 9.563 33.444-.192 55.74-8.842 55.74-8.842l-25.756-9.225 25.275-20.182z" opacity=".35"/></g></svg>