<svg width="789" height="500" xmlns="http://www.w3.org/2000/svg"><g fill="#000" fill-rule="nonzero"><path d="M324.59 277.722l4.842-11.248c5.234 3.905 12.186 5.936 19.06 5.936 5.077 0 8.28-1.953 8.28-4.92-.078-8.28-30.386-1.797-30.62-22.575-.079-10.546 9.295-18.67 22.574-18.67 7.89 0 15.779 1.954 21.403 6.406l-4.53 11.483c-5.156-3.281-11.561-5.625-17.654-5.625-4.14 0-6.874 1.953-6.874 4.453.078 8.124 30.62 3.671 30.933 23.512 0 10.78-9.14 18.356-22.262 18.356-9.608 0-18.435-2.265-25.153-7.108M510.419 262.412c-2.422 4.218-6.952 7.108-12.186 7.108a13.968 13.968 0 0 1-13.982-13.982 13.968 13.968 0 0 1 13.982-13.982c5.234 0 9.764 2.89 12.186 7.108l13.357-7.42c-5-8.905-14.607-14.998-25.543-14.998-16.169 0-29.292 13.123-29.292 29.292 0 16.17 13.123 29.292 29.292 29.292 11.014 0 20.544-6.015 25.543-14.997l-13.357-7.421zM378.721 201.953h16.716v81.784h-16.716zM530.338 201.953v81.784h16.716v-24.528l19.84 24.528h21.403l-25.23-29.136 23.355-27.184h-20.465l-18.903 22.575v-48.04zM445.117 262.568c-2.422 3.984-7.42 6.952-13.045 6.952a13.968 13.968 0 0 1-13.982-13.982 13.968 13.968 0 0 1 13.982-13.982c5.624 0 10.623 3.124 13.045 7.186v13.826zm0-35.15v6.639c-2.734-4.609-9.53-7.811-16.638-7.811-14.685 0-26.246 12.966-26.246 29.214 0 16.247 11.56 29.37 26.246 29.37 7.108 0 13.904-3.202 16.638-7.811v6.64h16.716v-56.242h-16.716zM221.247 262.49c0 5.702-4.609 10.31-10.311 10.31a10.301 10.301 0 0 1-10.311-10.31c0-5.702 4.609-10.31 10.31-10.31h10.312v10.31zM226.402 262.49c0-5.702 4.609-10.31 10.31-10.31 5.703 0 10.312 4.608 10.312 10.31v25.777c0 5.702-4.609 10.31-10.311 10.31a10.301 10.301 0 0 1-10.311-10.31V262.49zM236.713 221.09a10.301 10.301 0 0 1-10.311-10.31c0-5.703 4.609-10.311 10.31-10.311 5.703 0 10.312 4.608 10.312 10.31v10.311h-10.311zM236.713 226.324c5.702 0 10.31 4.609 10.31 10.31 0 5.703-4.608 10.312-10.31 10.312h-25.855a10.301 10.301 0 0 1-10.311-10.311c0-5.702 4.608-10.311 10.31-10.311h25.856zM278.034 236.635c0-5.702 4.609-10.311 10.311-10.311s10.311 4.609 10.311 10.31c0 5.703-4.609 10.312-10.31 10.312h-10.312v-10.311zM272.879 236.635c0 5.702-4.609 10.31-10.31 10.31a10.301 10.301 0 0 1-10.312-10.31V210.78c0-5.703 4.609-10.311 10.311-10.311s10.31 4.608 10.31 10.31v25.856zM262.568 277.956c5.702 0 10.31 4.609 10.31 10.311s-4.608 10.31-10.31 10.31a10.301 10.301 0 0 1-10.31-10.31v-10.31h10.31zM262.568 272.8a10.301 10.301 0 0 1-10.31-10.31c0-5.702 4.608-10.31 10.31-10.31h25.855c5.703 0 10.311 4.608 10.311 10.31 0 5.702-4.608 10.31-10.31 10.31h-25.856z"/></g></svg>