<svg width="1289" height="500" xmlns="http://www.w3.org/2000/svg"><g fill="#000" fill-rule="evenodd"><path d="M216.272 273.883l-14.57-45.465h11.265l5.532 19.225c1.55 5.464 2.968 10.59 4.047 16.257h.202c1.147-5.464 2.563-10.86 4.115-16.054l5.802-19.428h10.927l-15.312 45.465h-12.008M265.015 253.58c0-2.428-1.08-6.679-5.734-6.679-4.385 0-6.138 3.98-6.408 6.68h12.142zm-12.076 7.014c.338 4.317 4.521 6.34 9.31 6.34 3.508 0 6.341-.47 9.106-1.415l1.349 6.947c-3.372 1.417-7.487 2.093-11.938 2.093-11.199 0-17.606-6.478-17.606-16.865 0-8.364 5.26-17.606 16.66-17.606 10.66 0 14.707 8.298 14.707 16.459 0 1.755-.202 3.306-.338 4.115l-21.25-.068zM280.873 251.758c0-4.857-.068-8.028-.27-10.86h8.77l.404 6.137h.27c1.686-4.856 5.666-6.88 8.904-6.88.945 0 1.417.069 2.158.203v9.645c-.877-.134-1.687-.27-2.832-.27-3.778 0-6.342 1.957-7.017 5.195-.134.675-.2 1.417-.2 2.293v16.662h-10.255l.068-22.125M316.186 259.853c0 .675.066 1.282.202 1.82.674 2.699 3.036 4.859 6.004 4.859 4.385 0 7.083-3.374 7.083-9.311 0-5.127-2.294-9.173-7.083-9.173-2.766 0-5.33 2.091-6.004 5.06a8.484 8.484 0 0 0-.202 1.888v4.857zm-10.253-33.863h10.253v18.82h.134c1.957-2.833 5.396-4.654 9.983-4.654 7.893 0 13.627 6.542 13.56 16.66 0 11.873-7.488 17.809-15.043 17.809-3.845 0-7.623-1.417-9.917-5.329h-.134l-.404 4.587h-8.702c.134-2.158.27-6.138.27-9.847V225.99zM377.252 263.292c0 4.318.134 7.825.27 10.591h-8.904l-.472-4.653h-.204c-1.28 2.023-4.385 5.395-10.32 5.395-6.746 0-11.601-4.182-11.601-14.368v-19.36h10.253v17.742c0 4.79 1.55 7.69 5.193 7.69 2.834 0 4.519-1.957 5.126-3.576.27-.608.406-1.348.406-2.225v-19.63h10.253v22.394M385.38 251.42c0-4.115-.136-7.555-.272-10.523h8.906l.472 4.587h.202c1.349-2.157 4.654-5.328 10.185-5.328 6.747 0 11.806 4.519 11.806 14.232v19.495h-10.254v-18.28c0-4.25-1.484-7.15-5.194-7.15-2.834 0-4.519 1.956-5.262 3.845-.27.675-.336 1.617-.336 2.562v19.023H385.38V251.42M446.359 254.928c0-.607 0-1.281-.136-1.889-.606-2.764-2.832-4.99-6.004-4.99-4.72 0-7.083 4.18-7.083 9.375 0 5.53 2.766 9.04 7.017 9.04 2.968 0 5.396-2.024 6.002-4.925.136-.675.204-1.484.204-2.294v-4.317zm10.253-28.938v38.046c0 3.775.134 7.622.27 9.847h-9.108l-.404-4.789h-.202c-2.024 3.642-6.072 5.53-10.32 5.53-7.826 0-14.1-6.677-14.1-16.93-.066-11.063 6.882-17.538 14.773-17.538 4.115 0 7.219 1.483 8.702 3.71h.136V225.99h10.253zM499.646 266.464c6.949 0 10.928-6.544 10.928-15.448 0-8.162-3.845-15.179-10.928-15.179-7.082 0-11.061 6.883-11.061 15.381 0 8.567 4.113 15.246 10.994 15.246h.067zm-.47 8.16c-13.425 0-21.386-10.184-21.386-23.137 0-13.624 8.77-23.81 22.127-23.81 13.963 0 21.585 10.456 21.585 23.002 0 14.976-8.971 23.946-22.26 23.946h-.067zM529.779 273.883v-25.43h-4.385v-7.556h4.385v-1.28c0-3.98 1.215-8.365 4.113-11.063 2.632-2.429 6.14-3.306 9.176-3.306 2.226 0 3.979.336 5.396.674l-.406 7.892c-.877-.27-1.956-.472-3.305-.472-3.372 0-4.79 2.63-4.79 5.869v1.686h6.612v7.557h-6.543v25.43h-10.253M554.122 273.883v-25.43h-4.385v-7.556h4.385v-1.28c0-3.98 1.214-8.365 4.114-11.063 2.632-2.429 6.14-3.306 9.175-3.306 2.225 0 3.98.336 5.397.674l-.406 7.892c-.877-.27-1.957-.472-3.306-.472-3.372 0-4.789 2.63-4.789 5.869v1.686h6.61v7.557h-6.542v25.43h-10.253M595.62 253.58c0-2.428-1.08-6.679-5.735-6.679-4.385 0-6.138 3.98-6.408 6.68h12.142zm-12.075 7.014c.338 4.317 4.52 6.34 9.31 6.34 3.506 0 6.34-.47 9.106-1.415l1.349 6.947c-3.374 1.417-7.487 2.093-11.94 2.093-11.197 0-17.606-6.478-17.606-16.865 0-8.364 5.26-17.606 16.662-17.606 10.657 0 14.705 8.298 14.705 16.459 0 1.755-.202 3.306-.338 4.115l-21.248-.068zM611.444 251.42c0-4.115-.134-7.555-.27-10.523h8.904l.472 4.587h.203c1.348-2.157 4.654-5.328 10.186-5.328 6.745 0 11.804 4.519 11.804 14.232v19.495H632.49v-18.28c0-4.25-1.484-7.15-5.195-7.15-2.834 0-4.519 1.956-5.262 3.845-.27.675-.336 1.617-.336 2.562v19.023h-10.253V251.42M670.629 253.58c0-2.428-1.08-6.679-5.734-6.679-4.385 0-6.138 3.98-6.408 6.68h12.142zm-12.074 7.014c.337 4.317 4.519 6.34 9.308 6.34 3.507 0 6.341-.47 9.107-1.415l1.348 6.947c-3.37 1.417-7.487 2.093-11.938 2.093-11.199 0-17.607-6.478-17.607-16.865 0-8.364 5.263-17.606 16.661-17.606 10.66 0 14.706 8.298 14.706 16.459 0 1.755-.202 3.306-.337 4.115l-21.248-.068zM686.487 251.758c0-4.857-.067-8.028-.27-10.86h8.77l.405 6.137h.268c1.687-4.856 5.667-6.88 8.904-6.88.946 0 1.417.069 2.16.203v9.645c-.877-.134-1.686-.27-2.833-.27-3.778 0-6.34 1.957-7.016 5.195-.135.675-.202 1.417-.202 2.293v16.662H686.42l.067-22.125M733.165 273.883l-10.794-45.465h10.996l3.442 18.685c1.01 5.464 1.955 11.333 2.698 15.987h.134c.742-4.99 1.82-10.455 2.966-16.122l3.847-18.55h10.927l3.642 19.157c1.013 5.33 1.755 10.187 2.428 15.246h.136c.675-5.06 1.687-10.39 2.63-15.853l3.712-18.55h10.455l-11.738 45.465h-11.13l-3.844-19.562c-.878-4.587-1.62-8.837-2.159-14.03h-.136c-.81 5.127-1.55 9.443-2.63 14.03l-4.317 19.562h-11.265M803.16 253.58c0-2.428-1.077-6.679-5.732-6.679-4.385 0-6.138 3.98-6.408 6.68h12.14zm-12.074 7.014c.338 4.317 4.52 6.34 9.31 6.34 3.508 0 6.342-.47 9.106-1.415l1.35 6.947c-3.373 1.417-7.488 2.093-11.94 2.093-11.197 0-17.605-6.478-17.605-16.865 0-8.364 5.26-17.606 16.66-17.606 10.658 0 14.707 8.298 14.707 16.459 0 1.755-.202 3.306-.338 4.115l-21.25-.068zM819.02 251.758c0-4.857-.068-8.028-.27-10.86h8.77l.404 6.137h.27c1.686-4.856 5.666-6.88 8.904-6.88.945 0 1.417.069 2.158.203v9.645c-.875-.134-1.686-.27-2.834-.27-3.775 0-6.34 1.957-7.015 5.195a11.664 11.664 0 0 0-.202 2.293v16.662h-10.253l.068-22.125M854.333 254.86h.134a44.597 44.597 0 0 1 2.36-3.98l6.678-9.983h12.346l-11.806 13.356 13.492 19.63h-12.615l-8.026-13.559-2.563 3.306v10.253H844.08V225.99h10.253v28.87M882.016 264.98c1.888 1.146 5.801 2.428 8.837 2.428 3.1 0 4.384-1.012 4.384-2.699 0-1.754-1.013-2.564-4.79-3.845-6.88-2.225-9.512-6.004-9.444-9.848 0-6.205 5.262-10.86 13.424-10.86 3.846 0 7.217.943 9.242 1.956l-1.755 7.014c-1.483-.74-4.385-1.82-7.15-1.82-2.495 0-3.91 1.012-3.91 2.631 0 1.617 1.279 2.429 5.326 3.845 6.274 2.091 8.838 5.327 8.904 10.118 0 6.206-4.789 10.725-14.23 10.725-4.32 0-8.163-1.012-10.66-2.36l1.822-7.286M922.643 231.926v8.971h7.351v7.557h-7.351v12.006c0 3.98 1.011 5.802 4.046 5.802 1.417 0 2.092-.068 3.036-.271l.067 7.758c-1.28.472-3.777.876-6.61.876-3.305 0-6.071-1.146-7.756-2.832-1.889-1.957-2.834-5.127-2.834-9.782v-13.557h-4.385v-7.557h4.385v-6.205l10.051-2.766M956.606 236.986c-2.632 0-4.52-2.092-4.52-4.587 0-2.632 1.955-4.587 4.586-4.587 2.632 0 4.52 1.955 4.52 4.587 0 2.495-1.888 4.587-4.52 4.587h-.066zm-2.968 21.316c-5.397 0-9.58 1.28-9.58 5.194 0 2.63 1.755 3.912 4.049 3.912 2.496 0 4.653-1.687 5.329-3.778.135-.54.202-1.147.202-1.755v-3.573zm-10.725-21.316c-2.563 0-4.589-2.092-4.589-4.587 0-2.632 2.026-4.587 4.656-4.587 2.563 0 4.452 1.955 4.452 4.587 0 2.495-1.89 4.587-4.452 4.587h-.067zm20.642 28.938c0 3.102.134 6.137.54 7.96h-9.244l-.608-3.306h-.202c-2.158 2.63-5.53 4.047-9.443 4.047-6.676 0-10.657-4.857-10.657-10.12 0-8.564 7.689-12.613 19.36-12.613v-.405c0-1.753-.945-4.248-6.005-4.248-3.372 0-6.946 1.147-9.104 2.428l-1.89-6.543c2.292-1.283 6.813-2.968 12.815-2.968 10.996 0 14.438 6.475 14.438 14.232v11.536zM982.691 231.926v8.971h7.352v7.557h-7.352v12.006c0 3.98 1.01 5.802 4.046 5.802 1.417 0 2.09-.068 3.036-.271l.068 7.758c-1.283.472-3.78.876-6.612.876-3.304 0-6.07-1.146-7.757-2.832-1.888-1.957-2.832-5.127-2.832-9.782v-13.557h-4.387v-7.557h4.387v-6.205l10.051-2.766M1008.18 231.926v8.971h7.353v7.557h-7.353v12.006c0 3.98 1.013 5.802 4.048 5.802 1.417 0 2.092-.068 3.036-.271l.066 7.758c-1.28.472-3.776.876-6.61.876-3.306 0-6.072-1.146-7.757-2.832-1.89-1.957-2.834-5.127-2.834-9.782v-13.557h-4.383v-7.557h4.383v-6.205l10.051-2.766M1041.078 253.58c0-2.428-1.081-6.679-5.734-6.679-4.385 0-6.14 3.98-6.41 6.68h12.144zm-12.076 7.014c.338 4.317 4.52 6.34 9.31 6.34 3.506 0 6.34-.47 9.106-1.415l1.349 6.947c-3.372 1.417-7.487 2.093-11.94 2.093-11.197 0-17.606-6.478-17.606-16.865 0-8.364 5.262-17.606 16.662-17.606 10.657 0 14.705 8.298 14.705 16.459 0 1.755-.202 3.306-.338 4.115l-21.248-.068zM1056.902 251.42c0-4.115-.135-7.555-.27-10.523h8.905l.47 4.587h.203c1.35-2.157 4.655-5.328 10.186-5.328 6.747 0 11.805 4.519 11.805 14.232v19.495h-10.253v-18.28c0-4.25-1.484-7.15-5.194-7.15-2.834 0-4.52 1.956-5.262 3.845-.27.675-.336 1.617-.336 2.562v19.023h-10.254V251.42"/><g opacity=".4"><path d="M214.485 285.66h18.458l-.754 3.832h-13.925l-2.377 12.254h12.848l-.758 3.779h-12.845l-3.074 16.51h-4.48l6.907-36.374M230.82 322.036l3.188-16.838c.645-3.404 1.022-6.856 1.294-9.281h3.938a78.637 78.637 0 0 1-.702 5.664h.163c1.727-3.562 4.48-6.259 7.987-6.259.432 0 .918.05 1.294.109l-.863 4.423a7.927 7.927 0 0 0-1.24-.11c-3.832 0-7.287 4.697-8.419 10.743l-2.158 11.549h-4.481M265.105 302.12c0-2.102-1.622-3.294-3.995-3.294-4.264 0-7.448 4.161-8.527 8.26 7.015.108 12.522-.862 12.522-4.908v-.058zm.97 18.458c-1.942 1.084-5.128 2.05-8.635 2.05-6.908 0-9.93-4.744-9.93-10.52 0-7.884 5.827-16.786 14.247-16.786 4.967 0 7.665 2.971 7.665 6.749 0 6.85-7.717 8.634-17.377 8.47-.216 1.133-.055 3.563.538 4.962 1.027 2.381 3.129 3.513 5.829 3.513 3.076 0 5.396-.917 7.015-1.785l.648 3.347zM279.907 291.112c-1.568 0-2.644-1.24-2.644-2.916.053-1.78 1.4-3.182 3.075-3.182 1.672 0 2.807 1.24 2.807 2.914-.055 1.889-1.406 3.184-3.187 3.184h-.05zm-8.367 30.924l4.964-26.12h4.48l-4.965 26.12h-4.48zM283.793 322.036l3.186-16.838c.647-3.404 1.024-6.856 1.294-9.281h3.938a78.596 78.596 0 0 1-.7 5.664h.162c1.728-3.562 4.48-6.259 7.988-6.259.432 0 .918.05 1.295.109l-.863 4.423a7.972 7.972 0 0 0-1.242-.11c-3.832 0-7.285 4.697-8.42 10.743l-2.158 11.549h-4.48M319.867 299.26c-.645-.216-1.564-.375-3.077-.375-6.745 0-12.303 7.015-12.303 14.3 0 2.913 1.023 5.772 4.426 5.772 3.776 0 8.202-4.853 9.446-11.815l1.508-7.882zm-2.86 22.776c0-1.567.27-4.046.593-6.747h-.106c-2.86 5.453-6.477 7.338-10.149 7.338-4.639 0-7.5-3.67-7.5-8.632 0-9.122 6.692-18.673 18.025-18.673 2.482 0 5.235.434 7.016.969l-2.644 13.658c-.863 4.529-1.188 9.175-1.08 12.087h-4.156zM353.145 295.917l-3.563 18.512c-.541 2.91-.918 5.448-1.133 7.607H344.4l.702-4.914h-.107c-2.375 3.402-5.775 5.505-9.229 5.505-3.345 0-6.908-1.615-6.908-7.55 0-1.243.162-2.703.486-4.427l2.86-14.733h4.425l-2.752 14.57c-.271 1.455-.434 2.698-.434 3.833 0 2.695 1.081 4.53 4.158 4.53 3.293 0 7.448-3.83 8.527-9.551l2.536-13.382h4.48M355.88 322.036l3.507-18.512c.541-2.915.917-5.449 1.188-7.607h3.939l-.701 4.912h.16c2.43-3.67 5.72-5.507 9.176-5.507 3.996 0 5.881 2.536 6.099 5.83 2.321-3.779 5.668-5.78 9.55-5.83 3.026 0 6.37 1.944 6.37 6.856 0 1.185-.162 2.965-.432 4.423l-2.912 15.435h-4.373l2.806-15.058c.214-.97.377-2.32.377-3.399 0-2.75-1.024-4.535-3.937-4.535-3.24 0-7.126 3.78-8.205 9.61l-2.482 13.382h-4.317l2.914-15.326c.215-1.185.322-2.16.322-3.186 0-2.212-.592-4.48-3.885-4.48-3.291 0-7.34 4.319-8.366 9.876l-2.428 13.116h-4.37M407.15 319.282l12.681-14.14c2.212-2.428 3.672-3.777 5.452-5.397v-.16h-13.385l.755-3.668h18.73l-.597 2.968-12.465 13.923c-2.373 2.536-3.779 3.887-5.398 5.4l-.053.157h14.518l-.758 3.67h-19.968l.488-2.753M456.785 295.917l-3.563 18.512c-.54 2.91-.916 5.448-1.13 7.607h-4.05l.702-4.914h-.108c-2.375 3.402-5.774 5.505-9.228 5.505-3.347 0-6.908-1.615-6.908-7.55 0-1.243.163-2.703.484-4.427l2.861-14.733h4.426l-2.753 14.57c-.27 1.455-.43 2.698-.43 3.833 0 2.695 1.077 4.53 4.155 4.53 3.292 0 7.446-3.83 8.527-9.551l2.536-13.382h4.48M459.52 322.036l3.507-18.512c.543-2.915.919-5.449 1.189-7.607h3.94l-.703 4.912h.163c2.428-3.67 5.721-5.507 9.174-5.507 3.997 0 5.882 2.536 6.098 5.83 2.32-3.779 5.67-5.78 9.553-5.83 3.023 0 6.37 1.944 6.37 6.856 0 1.185-.163 2.965-.434 4.423l-2.913 15.435h-4.37l2.805-15.058c.216-.97.379-2.32.379-3.399 0-2.75-1.028-4.535-3.94-4.535-3.241 0-7.125 3.78-8.205 9.61l-2.482 13.382h-4.318l2.916-15.326c.213-1.185.322-2.16.322-3.186 0-2.212-.593-4.48-3.884-4.48-3.294 0-7.34 4.319-8.366 9.876l-2.43 13.116h-4.371M513.705 316.423c1.942 1.35 4.695 2.32 7.717 2.32 4.104 0 7.878-2.43 7.878-6.801 0-2.75-1.51-4.748-5.34-6.8-4.641-2.535-7.232-5.45-7.232-9.336 0-6.53 5.61-10.685 12.306-10.685 3.561 0 6.204 1.024 7.447 1.89l-1.62 3.67c-1.135-.7-3.4-1.783-6.261-1.727-4.535 0-7.232 2.964-7.232 5.932 0 2.972 1.835 4.647 5.668 6.75 4.48 2.43 6.908 5.288 6.908 9.714 0 6.313-4.91 11.277-13.115 11.277-3.67-.05-7.23-1.185-8.743-2.534l1.619-3.67M555.564 302.12c0-2.102-1.62-3.294-3.995-3.294-4.263 0-7.447 4.161-8.527 8.26 7.017.108 12.522-.862 12.522-4.908v-.058zm.97 18.458c-1.942 1.084-5.127 2.05-8.635 2.05-6.91 0-9.93-4.744-9.93-10.52 0-7.884 5.827-16.786 14.247-16.786 4.967 0 7.666 2.971 7.666 6.749 0 6.85-7.718 8.634-17.378 8.47-.218 1.133-.055 3.563.538 4.962 1.026 2.381 3.13 3.513 5.829 3.513 3.077 0 5.396-.917 7.015-1.785l.647 3.347zM562.027 322.036l7.287-38.32h4.481l-7.288 38.32h-4.48M580.1 311.942a11.88 11.88 0 0 0-.323 3.347c0 2.483 1.457 3.835 4.21 3.835 6.744 0 10.846-8.044 10.846-13.874 0-3.236-1.402-6.206-4.964-6.206-3.884 0-7.88 3.995-9.174 10.148l-.594 2.75zm5.668-28.225l-3.454 16.945h.108c2.32-3.503 5.666-5.34 9.174-5.34 5.72 0 7.88 4.748 7.88 9.395 0 8.036-5.772 17.91-16.243 17.91-4.59 0-8.044-1.885-8.044-6.69 0-1.292.216-2.857.487-4.102l5.613-28.118h4.48zM620.517 302.12c0-2.102-1.62-3.294-3.992-3.294-4.265 0-7.451 4.161-8.529 8.26 7.015.108 12.52-.862 12.52-4.908v-.058zm.97 18.458c-1.94 1.084-5.125 2.05-8.634 2.05-6.91 0-9.928-4.744-9.928-10.52 0-7.884 5.825-16.786 14.245-16.786 4.969 0 7.667 2.971 7.667 6.749 0 6.85-7.72 8.634-17.38 8.47-.217 1.133-.054 3.563.54 4.962 1.025 2.381 3.128 3.513 5.828 3.513 3.077 0 5.398-.917 7.015-1.785l.647 3.347zM626.953 322.036l3.186-16.838c.647-3.404 1.022-6.856 1.293-9.281h3.942a78.72 78.72 0 0 1-.705 5.664h.164c1.726-3.562 4.481-6.259 7.987-6.259.43 0 .917.05 1.296.109l-.865 4.423a7.95 7.95 0 0 0-1.24-.11c-3.833 0-7.289 4.697-8.418 10.743l-2.16 11.549h-4.48M643.694 322.036l3.508-18.512c.54-2.915.918-5.449 1.186-7.607h3.939l-.7 4.912h.163c2.427-3.67 5.72-5.507 9.174-5.507 3.995 0 5.881 2.536 6.097 5.83 2.32-3.779 5.67-5.78 9.553-5.83 3.023 0 6.368 1.944 6.368 6.856 0 1.185-.16 2.965-.432 4.423l-2.913 15.435h-4.37l2.803-15.058c.218-.97.38-2.32.38-3.399 0-2.75-1.027-4.535-3.938-4.535-3.243 0-7.126 3.78-8.203 9.61l-2.484 13.382h-4.319l2.916-15.326c.216-1.185.322-2.16.322-3.186 0-2.212-.593-4.48-3.885-4.48-3.294 0-7.342 4.319-8.367 9.876l-2.427 13.116h-4.37M707.168 299.26c-.648-.216-1.565-.375-3.075-.375-6.747 0-12.306 7.015-12.306 14.3 0 2.913 1.025 5.772 4.427 5.772 3.776 0 8.202-4.853 9.444-11.815l1.51-7.882zm-2.86 22.776c0-1.567.27-4.046.594-6.747h-.107c-2.86 5.453-6.477 7.338-10.146 7.338-4.644 0-7.503-3.67-7.503-8.632 0-9.122 6.694-18.673 18.024-18.673 2.484 0 5.236.434 7.017.969l-2.643 13.658c-.864 4.529-1.188 9.175-1.08 12.087h-4.155zM732.862 321.012c-1.347.699-4.048 1.615-7.555 1.615-6.748 0-10.037-4.528-10.037-10.087 0-8.96 6.582-17.218 15.973-17.218 2.43 0 4.644.702 5.452 1.185l-1.295 3.51c-1.024-.484-2.482-.973-4.425-.973-6.8 0-11.062 6.692-11.062 12.898 0 4.265 2.21 7.015 6.475 7.015 2.698 0 4.696-.808 6.044-1.453l.43 3.508M737.216 322.036l7.286-38.32h4.48l-3.24 16.786h.108c2.214-3.187 5.398-5.18 9.336-5.18 2.97 0 6.48 1.778 6.48 7.015 0 1.351-.163 3.077-.436 4.373l-2.913 15.326h-4.48l2.915-15.112c.162-.917.323-2.158.323-3.618 0-2.37-1.131-4.262-4.046-4.262-3.455 0-7.824 4.048-8.907 9.876l-2.427 13.116h-4.48M783.61 302.12c0-2.102-1.623-3.294-3.996-3.294-4.264 0-7.446 4.161-8.529 8.26 7.017.108 12.525-.862 12.525-4.908v-.058zm.968 18.458c-1.94 1.084-5.125 2.05-8.635 2.05-6.91 0-9.928-4.744-9.928-10.52 0-7.884 5.828-16.786 14.247-16.786 4.966 0 7.666 2.971 7.666 6.749 0 6.85-7.721 8.634-17.38 8.47-.215 1.133-.055 3.563.537 4.962 1.029 2.381 3.132 3.513 5.832 3.513 3.075 0 5.395-.917 7.015-1.785l.646 3.347zM790.072 322.036l3.455-18.512c.594-2.915.97-5.449 1.24-7.607h4.048l-.7 5.13h.107c2.373-3.674 5.882-5.725 9.715-5.725 3.075 0 6.584 1.778 6.584 7.231 0 1.189-.216 2.861-.486 4.209l-2.914 15.274h-4.426l2.862-15.112c.16-.972.322-2.207.322-3.345 0-2.592-1.025-4.535-4.1-4.535-3.185 0-7.718 3.836-8.906 10.31l-2.375 12.682h-4.426"/></g><path d="M557.698 10.046a2.894 2.894 0 0 1 3.356 2.338 158.865 158.865 0 0 1 2.463 27.839c0 86.375-70.275 156.645-156.651 156.645-64.137 0-121.146-38.404-145.232-97.837a2.888 2.888 0 0 1 1.593-3.763 2.889 2.889 0 0 1 3.767 1.589c23.198 57.244 78.1 94.234 139.872 94.234 83.19 0 150.868-67.678 150.868-150.868 0-8.99-.798-18.018-2.375-26.823a2.894 2.894 0 0 1 2.339-3.354z" opacity=".4"/><path d="M300.262 122.287c55.613-4.206 108.058 20.86 139.664 65.15-2.41.546-4.841 1.03-7.293 1.453-30.419-40.843-79.683-63.82-131.863-59.873-82.681 6.266-144.852 78.633-138.59 161.317a151.752 151.752 0 0 0 4.378 26.48 3.373 3.373 0 1 1-6.533 1.684 158.248 158.248 0 0 1-4.57-27.656c-6.546-86.395 58.414-162.005 144.807-168.555zm143.168 70.268a159.631 159.631 0 0 1 9.508 16.587 3.37 3.37 0 0 1-1.522 4.521 3.372 3.372 0 0 1-4.52-1.52 152.593 152.593 0 0 0-10.561-18.061c1.917-.36 3.822-.761 5.713-1.197z"/></g></svg>