<svg height="80" viewBox="0 0 207 80" width="207" xmlns="http://www.w3.org/2000/svg"><g fill="#0f0f0e" fill-rule="nonzero"><path d="m38.1225 42.4287698v-3.9738962c0-1.2196612-1.125-2.0119411-2.585-2.0119411-1.58 0-2.6575 1.1721744-2.6575 2.9441822v2.1544015c0 1.7720078 1.0775 2.9216885 2.6575 2.9216885 1.4575 0 2.585-.7422938 2.585-2.0344349zm0 2.534296c-.455 1.4121078-1.915 2.0369342-3.5675 2.0369342-3.1375 0-4.885-2.3693418-4.885-6.5581783 0-4.1663427 1.7475-6.5106915 4.885-6.5106915 1.6525 0 3.1375.5773397 3.5675 2.0144405v-6.9455707h3.065v17.7150791h-3.065z"/><path d="m56 44.6566038 1.8675-1.8314466c.91 1.0591195 2.0125 1.7106919 3.425 1.7106919 1.46 0 2.0825-.5534592 2.0825-1.4465409 0-.7220126-.43-1.1798742-1.5325-1.3257862l-1.245-.1685534c-2.6825-.337107-4.1675-1.5169812-4.1675-3.8062894 0-2.4327044 1.8925-3.9748427 4.7425-3.9748427 2.4425 0 3.6875.7220126 4.885 1.9748427l-1.795 1.8062894c-.7175-.7698114-1.7725-1.3484277-2.9925-1.3484277-1.3175 0-1.8925.5308176-1.8925 1.3006289 0 .8427673.455 1.2301887 1.6275 1.4213837l1.27.1685534c2.73.3849057 4.0475 1.6150944 4.0475 3.7106918 0 2.4327044-2.035 4.1207548-5.1475 4.1207548-2.375 0-3.93-.8654088-5.175-2.3119497"/><path d="m119.366269 42.5685535v-4c0-1.2301887-1.113523-2.0251573-2.558628-2.0251573-1.563882 0-2.630389 1.1798742-2.630389 2.963522v2.1685535c0 1.7836478 1.066507 2.9408805 2.630389 2.9408805 1.445105 0 2.558628-.7471698 2.558628-2.0477987zm0 2.5509434c-.450358 1.4213836-1.895464 2.0503144-3.531105 2.0503144-3.105492 0-4.835164-2.3849056-4.835164-6.6012578 0-4.191195 1.729672-6.5534592 4.835164-6.5534592 1.635641 0 3.105492.5811321 3.531105 2.027673v-1.7383648h3.033731v12.5786164h-3.033731z"/><path d="m51.1662687 42.5685535v-4c0-1.2301887-1.1135229-2.0251573-2.5586282-2.0251573-1.563881 0-2.6303885 1.1798742-2.6303885 2.963522v2.1685535c0 1.7836478 1.0665075 2.9408805 2.6303885 2.9408805 1.4451053 0 2.5586282-.7471698 2.5586282-2.0477987zm0 2.5509434c-.4503581 1.4213836-1.8954634 2.0503144-3.5311048 2.0503144-3.1054917 0-4.8351639-2.3849056-4.8351639-6.6012578 0-4.191195 1.7296722-6.5534592 4.8351639-6.5534592 1.6356414 0 3.1054916.5811321 3.5311048 2.027673v-1.7383648h3.0337313v12.5786164h-3.0337313z"/><path d="m164.9325 42.5685535v-4c0-1.2301887-1.125-2.0251573-2.585-2.0251573-1.58 0-2.6575 1.1798742-2.6575 2.963522v2.1685535c0 1.7836478 1.0775 2.9408805 2.6575 2.9408805 1.4575 0 2.585-.7471698 2.585-2.0477987zm0 2.5509434c-.455 1.4213836-1.915 2.0503144-3.5675 2.0503144-3.1375 0-4.885-2.3849056-4.885-6.6012578 0-4.191195 1.7475-6.5534592 4.885-6.5534592 1.6525 0 3.1375.5811321 3.5675 2.027673v-1.7383648h3.065v12.5786164h-3.065z"/><path d="m144.125977 44.4477987v-10.1433962h-1.797161-2.925519v2.4327044h1.799756v7.7106918h-2.503053v2.4352202h2.503053 2.922924 2.503052v-2.4352202z"/><path d="m152.135 46.8830189c-2.1075 0-3.2325-1.1572327-3.2325-3.2050315v-6.9383648h-1.8425v-2.4327044h2.155v-3.1119496l2.7525-1.6603774v4.772327h2.895v2.4327044h-2.895v7.6855346h2.7025v2.4578617z"/><path d="m133.9075 41.6779874v-2.1685534c0-1.7836478-1.1025-2.9635221-2.6825-2.9635221-1.46 0-2.5625.7949686-2.5625 2.0251573v4c0 1.3006289 1.1025 2.0477987 2.5625 2.0477987 1.58-.0025157 2.6825-1.1572327 2.6825-2.9408805zm-8.31-12.6264151h3.065v6.991195c.455-1.4465409 1.8925-2.027673 3.545-2.027673 3.16 0 4.9075 2.3622642 4.9075 6.5534592 0 4.2163522-1.7475 6.6012578-4.9075 6.6012578-1.6525 0-3.065-.6289308-3.545-2.0503144v1.7610062h-3.065z"/><path d="m172.21 43.6779874v-6.9383648h-1.8425v-2.4327044h2.155v-3.1119496l2.5775-1.6603774v4.772327h3.07v2.4327044h-3.07v7.6855346h2.8775v2.4578617h-2.535c-2.1075 0-3.2325-1.1572327-3.2325-3.2050315z"/><path d="m140.7 30.35c0 1.022435.826999 1.85 1.848735 1.85 1.021737 0 1.851265-.827565 1.851265-1.85s-.829528-1.85-1.851265-1.85c-1.021736 0-1.848735.827565-1.848735 1.85"/><path d="m98.41 29.0515723h3.042041v7.0138365c.498736-1.3484277 1.662453-2.0503145 3.587922-2.0503145 2.543305 0 3.970037 1.7836478 3.970037 4.9157233v7.9522013h-3.042041v-7.6377359c0-1.7836478-.593025-2.6993711-2.044569-2.6993711-1.260487 0-2.471349.6742139-2.471349 2.0251573v8.3144654h-3.042041z"/><path d="m67 49h29v3h-29z"/></g></svg>